<?xml version="1.0" encoding="UTF-8" standalone="no"?><!DOCTYPE svg PUBLIC "-//W3C//DTD SVG 1.1//EN" "http://www.w3.org/Graphics/SVG/1.1/DTD/svg11.dtd"><svg width="100%" height="100%" viewBox="0 0 1251 578" version="1.1" xmlns="http://www.w3.org/2000/svg" xmlns:xlink="http://www.w3.org/1999/xlink" xml:space="preserve" xmlns:serif="http://www.serif.com/" style="fill-rule:evenodd;clip-rule:evenodd;stroke-linejoin:round;stroke-miterlimit:1.41421;"><g><path d="M394.675,362.519c-26.394,10.431 -39.337,40.284 -28.906,66.681c10.431,26.397 40.287,39.341 66.684,28.906c26.397,-10.428 46.447,-52.887 36.013,-79.284c-10.432,-26.397 -47.391,-26.738 -73.791,-16.303Z" style="fill:#fccbad;"/><path d="M382.95,110.306l192.344,29.897l-42.282,272.025l-192.343,-29.894l42.281,-272.028Z" style="fill:#fff;"/><path d="M427.903,147.134l93.381,14.516l-0.746,4.787l-93.379,-14.512l0.744,-4.791Z" style="fill:#c3c3c2;"/><path d="M394.213,154.159l157.037,24.41l-0.741,4.787l-157.04,-24.406l0.744,-4.791Z" style="fill:#c3c3c2;"/><path d="M392.909,162.541l157.038,24.406l-0.741,4.79l-157.04,-24.409l0.743,-4.787Z" style="fill:#c3c3c2;"/><path d="M391.609,170.919l157.038,24.409l-0.744,4.788l-157.037,-24.41l0.743,-4.787Z" style="fill:#c3c3c2;"/><path d="M390.306,179.3l157.038,24.406l-0.744,4.791l-157.037,-24.41l0.743,-4.787Z" style="fill:#c3c3c2;"/><path d="M389.003,187.678l157.038,24.41l-0.744,4.79l-157.038,-24.409l0.744,-4.791Z" style="fill:#c3c3c2;"/><path d="M387.7,196.059l157.037,24.41l-0.74,4.787l-157.041,-24.406l0.744,-4.791Z" style="fill:#c3c3c2;"/><path d="M386.397,204.441l157.04,24.406l-0.743,4.787l-157.041,-24.406l0.744,-4.787Z" style="fill:#c3c3c2;"/><path d="M385.097,212.819l157.037,24.409l-0.743,4.788l-157.038,-24.407l0.744,-4.79Z" style="fill:#c3c3c2;"/><path d="M383.794,221.2l78.519,12.203l-0.744,4.788l-78.519,-12.203l0.744,-4.788Z" style="fill:#c3c3c2;"/><path d="M504.3,346.45c11.247,1.75 18.947,12.284 17.2,23.531c-1.75,11.244 -12.284,18.947 -23.531,17.197c-11.247,-1.747 -18.947,-12.281 -17.2,-23.528c1.75,-11.247 12.284,-18.95 23.531,-17.2Z" style="fill:#c4563f;"/><path d="M487.284,382.078c-2.622,-2.384 -4.606,-5.422 -5.725,-8.806l19.575,-6.456l-13.85,15.262Z" style="fill:#889ba3;"/><path d="M481.559,373.272c-0.993,-3.003 -1.309,-6.281 -0.79,-9.622c1.012,-6.512 4.972,-11.834 10.306,-14.825l10.059,17.991l-19.575,6.456Z" style="fill:#c7ced7;"/><path d="M491.075,348.825c3.881,-2.172 8.491,-3.112 13.225,-2.375l-3.166,20.366l-10.059,-17.991Z" style="fill:#f09031;"/><path d="M504.3,346.45l-3.166,20.366l16.735,-12.028c-3.113,-4.329 -7.888,-7.457 -13.569,-8.338Z" style="fill:#4d7d9a;"/><path d="M360.759,369.397l93.444,14.525l-0.372,2.391l-93.444,-14.525l0.372,-2.391Z" style="fill:#c3c3c2;"/><path d="M368.537,319.356l16.613,2.581l-7.778,50.041l-16.613,-2.581l7.778,-50.041Z" style="fill:#c4563f;"/><path d="M384.812,341.209l16.61,2.582l-4.844,31.175l-16.609,-2.585l4.843,-31.172Z" style="fill:#4d7d9a;"/><path d="M402.378,354.75l16.613,2.581l-3.207,20.619l-16.609,-2.581l3.203,-20.619Z" style="fill:#f09031;"/><path d="M423.088,348.072l16.612,2.581l-4.706,30.281l-16.613,-2.581l4.707,-30.281Z" style="fill:#c7ced7;"/><path d="M440.953,359.684l16.613,2.585l-3.363,21.653l-16.616,-2.585l3.366,-21.653Z" style="fill:#889ba3;"/><path d="M478.363,387.675l8.384,1.303l-0.372,2.391l-8.381,-1.303l0.369,-2.391Z" style="fill:#c3c3c2;"/><path d="M490.628,389.581l24.903,3.872l-0.368,2.391l-24.907,-3.872l0.372,-2.391Z" style="fill:#c3c3c2;"/><path d="M486.966,263.341l7.04,1.093l-0.975,6.269l-7.037,-1.094l0.972,-6.268Z" style="fill:#c4563f;"/><path d="M485.356,273.687l7.041,1.094l-0.975,6.269l-7.038,-1.094l0.972,-6.269Z" style="fill:#4d7d9a;"/><path d="M483.75,284.034l7.038,1.094l-0.975,6.269l-7.038,-1.094l0.975,-6.269Z" style="fill:#f09031;"/><path d="M482.141,294.381l7.04,1.097l-0.975,6.266l-7.037,-1.094l0.972,-6.269Z" style="fill:#c7ced7;"/><path d="M480.534,304.728l7.038,1.097l-0.975,6.266l-7.038,-1.094l0.975,-6.269Z" style="fill:#889ba3;"/><path d="M500.594,265.459l8.565,1.332l-0.972,6.268l-8.568,-1.331l0.975,-6.269Z" style="fill:#c3c3c2;"/><path d="M498.984,275.809l19.597,3.044l-0.975,6.269l-19.597,-3.047l0.975,-6.266Z" style="fill:#c3c3c2;"/><path d="M497.378,286.153l26.281,4.088l-0.975,6.268l-26.281,-4.087l0.975,-6.269Z" style="fill:#c3c3c2;"/><path d="M512.266,267.275l21.953,3.413l-0.975,6.268l-21.953,-3.412l0.975,-6.269Z" style="fill:#c3c3c2;"/><path d="M521.072,279.241l6.162,0.956l-0.975,6.269l-6.159,-0.957l0.972,-6.268Z" style="fill:#c3c3c2;"/><path d="M529.466,280.544l15.181,2.362l-0.972,6.266l-15.184,-2.36l0.975,-6.268Z" style="fill:#c3c3c2;"/><path d="M541.431,303.6l-8.565,-1.334l-0.975,6.268l8.565,1.332l0.975,-6.266Z" style="fill:#c3c3c2;"/><path d="M529.759,301.784l-21.953,-3.412l-0.975,6.269l21.953,3.409l0.975,-6.266Z" style="fill:#c3c3c2;"/><path d="M504.334,297.831l-8.565,-1.331l-0.975,6.269l8.565,1.331l0.975,-6.269Z" style="fill:#c3c3c2;"/><path d="M517.737,310.512l-6.162,-0.959l-0.975,6.269l6.162,0.959l0.975,-6.269Z" style="fill:#c3c3c2;"/><path d="M509.344,309.209l-15.181,-2.362l-0.975,6.269l15.184,2.359l0.972,-6.266Z" style="fill:#c3c3c2;"/><path d="M375.081,303.309l93.216,14.488l-0.197,1.256l-93.213,-14.484l0.194,-1.26Z" style="fill:#c3c3c2;fill-rule:nonzero;"/><path d="M384.816,244.831l-9.2,59.207l-1.26,-0.197l9.203,-59.207l1.257,0.197Z" style="fill:#c3c3c2;fill-rule:nonzero;"/><path d="M402.594,247.594l-9.203,59.206l-1.257,-0.194l9.2,-59.206l1.26,0.194Z" style="fill:#c3c3c2;fill-rule:nonzero;"/><path d="M420.369,250.359l-9.2,59.204l-1.26,-0.194l9.203,-59.206l1.257,0.196Z" style="fill:#c3c3c2;fill-rule:nonzero;"/><path d="M438.147,253.122l-9.203,59.203l-1.256,-0.194l9.2,-59.206l1.259,0.197Z" style="fill:#c3c3c2;fill-rule:nonzero;"/><path d="M456.631,256.044l-9.915,59.05l-1.25,-0.206l9.915,-59.054l1.25,0.21Z" style="fill:#c3c3c2;fill-rule:nonzero;"/><path d="M473.7,258.647l-9.203,59.206l-1.256,-0.197l9.203,-59.206l1.256,0.197Z" style="fill:#c3c3c2;fill-rule:nonzero;"/><path d="M377.241,289.419l93.215,14.487l-0.197,1.257l-93.212,-14.491l0.194,-1.253Z" style="fill:#c3c3c2;fill-rule:nonzero;"/><path d="M379.403,275.528l93.094,15.159l-0.2,1.251l-93.094,-15.157l0.2,-1.253Z" style="fill:#c3c3c2;fill-rule:nonzero;"/><path d="M381.562,261.631l93.213,14.491l-0.197,1.256l-93.212,-14.487l0.196,-1.26Z" style="fill:#c3c3c2;fill-rule:nonzero;"/><path d="M383.722,247.741l93.212,14.487l-0.193,1.26l-93.216,-14.491l0.197,-1.256Z" style="fill:#c3c3c2;fill-rule:nonzero;"/><path d="M400.109,264.744l-26.409,38.578l1.575,1.078l25.391,-37.087l11.143,28.606l0.397,1.022l0.957,-0.535l19.284,-10.765l15.109,16.109l0.857,0.916l0.653,-1.069l19.04,-31.25l3.444,2.097l0.459,-10.338l-8.978,5.15l3.444,2.097l-18.384,30.178l-14.76,-15.74l-0.512,-0.544l-0.65,0.362l-18.978,10.597l-11.403,-29.269l-0.657,-1.684l-1.022,1.491Z" style="fill:#4d7d9a;fill-rule:nonzero;"/><path d="M371.991,305.375l5.412,0.844l-0.428,2.75l-5.412,-0.841l0.428,-2.753Z" style="fill:#c3c3c2;"/><path d="M389.769,308.141l5.409,0.84l-0.425,2.753l-5.416,-0.84l0.432,-2.753Z" style="fill:#c3c3c2;"/><path d="M407.544,310.903l5.412,0.841l-0.428,2.75l-5.415,-0.838l0.431,-2.753Z" style="fill:#c3c3c2;"/><path d="M425.322,313.666l5.409,0.84l-0.428,2.753l-5.409,-0.84l0.428,-2.753Z" style="fill:#c3c3c2;"/><path d="M443.097,316.431l5.412,0.841l-0.428,2.75l-5.412,-0.841l0.428,-2.75Z" style="fill:#c3c3c2;"/><path d="M460.872,319.191l5.412,0.843l-0.425,2.75l-5.412,-0.84l0.425,-2.753Z" style="fill:#c3c3c2;"/><path d="M370.109,287.544l5.413,0.84l-0.428,2.754l-5.413,-0.844l0.428,-2.75Z" style="fill:#c3c3c2;"/><path d="M372.269,273.65l5.412,0.844l-0.428,2.75l-5.412,-0.841l0.428,-2.753Z" style="fill:#c3c3c2;"/><path d="M374.428,259.759l5.413,0.841l-0.428,2.753l-5.413,-0.844l0.428,-2.75Z" style="fill:#c3c3c2;"/><path d="M376.338,247.481l5.409,0.841l-0.428,2.753l-5.41,-0.844l0.429,-2.75Z" style="fill:#c3c3c2;"/><path d="M382.891,419.828l-43.491,104.025l15.828,52.944l41.647,-20.763l43.903,-105.093l-57.887,-31.113Z" style="fill:#fccbad;"/><path d="M356.116,469.047l-22.341,53.466l21.453,54.284l45.163,-17.844l25.356,-60.731l-69.631,-29.175Z" style="fill:#889ba3;"/><path d="M382.25,412.369c-10.003,8.297 -9.691,23.684 0.697,34.372c10.387,10.687 26.916,12.628 36.916,4.334c10.003,-8.294 9.69,-23.684 -0.697,-34.372c-10.385,-10.687 -26.913,-12.631 -36.916,-4.334Z" style="fill:#eab28f;"/><path d="M397.328,327.112c1.485,4.022 1.856,3.775 0.247,7.613l-30.578,72.944c-2.788,6.653 -1.5,18.894 5.15,21.694c6.65,2.8 14.4,-0.341 17.181,-6.997l27.053,-64.7c4.528,-10.832 -7.944,-26.735 -19.053,-30.554Z" style="fill:#eab28f;"/><path d="M397.328,327.112l-33.156,79.101c-2.791,6.649 -1.503,18.89 5.147,21.693c6.647,2.8 14.403,-0.34 17.181,-6.997l25.947,-62.062c7.566,-18.091 -9.619,-30.05 -15.119,-31.735Z" style="fill:#fccbad;"/><path d="M375.025,412.313c-9.603,8.537 -7.869,24.79 3.878,36.303c11.744,11.512 29.047,13.925 38.653,5.39c9.6,-8.537 7.866,-24.79 -3.878,-36.303c-11.744,-11.512 -29.05,-13.928 -38.653,-5.39Z" style="fill:#fccbad;"/><path d="M344.753,490.031l-92.953,222.288l88.213,0l79.799,-190.838l-75.059,-31.45Z" style="fill:#4d7d9a;"/><path d="M382.284,505.756l-86.212,206.563l43.937,0l79.803,-190.838l-37.528,-15.725Z" style="fill:#3f647f;"/><path d="M595.466,460.384l45.331,79.369l67.1,18.153l5.006,-23.978l-56.522,-98.894l-60.915,25.35Z" style="fill:#ddc49f;"/><path d="M659.859,444.025l63.013,94.472l-2.253,21.878l-75.644,-20.028l-36.747,-55.125l51.631,-41.197Z" style="fill:#fccbad;"/><path d="M682.747,467.528l38.262,58.653l-3.728,34.263l-78.5,-21.235l-19.378,-29.681l63.344,-42Z" style="fill:#889ba3;"/><path d="M701.328,491.4l119.306,176.903l-90.497,7.706l-95.021,-140.709l66.212,-43.9Z" style="fill:#3f647f;"/><path d="M701.328,491.4l119.306,176.903l-47.753,1.591l-105.24,-156.16l33.687,-22.334Z" style="fill:#4d7d9a;"/><path d="M514.128,409.25l47.95,50.491c4.872,5.131 28.45,19.753 33.956,15.309c5.504,-4.444 -5.881,-22.775 -10.89,-27.784l-38.522,-37.204c-16.05,-15.5 -27.081,-6.271 -32.494,-0.812Z" style="fill:#eab28f;"/><path d="M520.903,330.097l33.725,53.937c0.481,-10.737 16.163,-14.675 23.369,-5.675c-1.019,-11.071 13.434,-15.99 21.559,-9.103c0.741,-10.359 16.566,-13.678 22.853,-3.7l28.797,45.691c8.085,12.828 11.547,33.706 10.197,43.7c-3.994,29.628 -41.431,36.053 -55.94,29.262c-11.316,-5.293 -19.972,-7.812 -24.394,-14.618l-81.822,-126.241c-10.363,-15.953 13.491,-26.591 21.656,-13.253Z" style="fill:#fccbad;"/><path d="M574.412,375.25c1.322,0.778 2.544,1.809 3.585,3.109c-0.066,-0.734 -0.066,-1.443 -0.003,-2.125c5.556,8.95 12.393,20.06 12.393,20.06c0,0 -9.99,-12.885 -15.975,-21.044Zm-19.762,8.478c0.069,-0.953 0.259,-1.853 0.553,-2.691c5.516,9.129 14.591,24.944 14.591,24.944c0,0 -10.86,-15.281 -15.166,-21.947l0.022,-0.306Zm55.666,1.1c0,0 -5.532,-9.175 -10.482,-17.303c-0.137,0.553 -0.234,1.131 -0.278,1.731c-0.712,-0.603 -1.475,-1.115 -2.275,-1.544c5.828,7.772 13.035,17.116 13.035,17.116Z" style="fill:#eab28f;"/><path d="M249.809,322.844l-90.209,14.728l-40.462,56.522l20.712,13.072l112.419,-18.388l-2.46,-65.934Z" style="fill:#ddc49f;"/><path d="M242.628,388.894l-110.54,26.012l-19.71,-9.759l45.206,-63.869l64.491,-15.159l20.553,62.775Z" style="fill:#fccbad;"/><path d="M212.603,402.125l-287.812,58.081l-52.597,-55.359l323.203,-76.753l17.206,74.031Z" style="fill:#fff;"/><path d="M183.744,411.187l-251.925,56.416l-62.803,-66.097l296.743,-67.703l17.985,77.384Z" style="fill:#1b9997;"/><path d="M183.744,411.187l-253.338,56.585l-31.84,-33.509l276.028,-62.45l9.15,39.374Z" style="fill:#43c0bb;"/><path d="M326.15,264.516l-64.066,27.271c-6.512,2.772 -28.456,19.754 -26.215,26.466c2.237,6.706 23.393,2.447 29.837,-0.494l48.322,-23.084c20.138,-9.622 15.347,-23.181 12.122,-30.159Z" style="fill:#eab28f;"/><path d="M397.944,298.531l-62.325,12.744c9.89,4.203 8.1,20.269 -2.856,23.875c10.731,2.916 10.287,18.178 0.993,23.384c9.45,4.313 7.025,20.3 -4.522,22.703l-52.872,11.007c-14.846,3.094 -35.615,-0.966 -44.509,-5.722c-26.359,-14.1 -19.294,-51.419 -7.859,-62.644c8.912,-8.747 14.3,-15.975 22.222,-17.737l146.881,-32.535c18.565,-4.131 20.197,21.938 4.847,24.925Z" style="fill:#fccbad;"/><path d="M336.931,332.878c-1.19,0.969 -2.584,1.75 -4.168,2.272c0.715,0.194 1.378,0.444 1.993,0.744c-10.325,2.075 -23.125,4.597 -23.125,4.597c0,0 15.566,-4.857 25.3,-7.613Zm-1.034,-21.478c0.869,0.4 1.647,0.891 2.328,1.459c-10.481,1.975 -28.472,4.95 -28.472,4.95c0,0 18.116,-4.828 25.866,-6.534l0.278,0.125Zm-20.488,51.772c0,0 10.529,-1.978 19.872,-3.772c-0.469,-0.325 -0.975,-0.616 -1.525,-0.866c0.816,-0.456 1.563,-0.993 2.244,-1.593c-9.316,2.743 -20.591,6.231 -20.591,6.231Z" style="fill:#caa68f;"/><path d="M739.781,76.972l160.6,78.578c8.638,4.228 12.25,14.753 8.019,23.391l-17.928,36.653l-6.488,13.256c-1.584,3.231 -2.834,4.475 -5.893,4.197l-6.816,-0.613c-3.384,-0.306 -6.187,1.707 -8.097,5.61l-22.428,45.84c-1.909,3.904 -1.781,7.347 0.538,9.835l4.671,5.006c2.094,2.244 1.882,3.994 0.3,7.228l-6.487,13.256l-48.869,99.878c-4.228,8.641 -14.753,12.25 -23.39,8.025l-160.6,-78.578c-8.641,-4.228 -12.25,-14.753 -8.022,-23.393l117.5,-240.147c4.225,-8.641 14.753,-12.25 23.39,-8.022Z" style="fill:#3f647f;"/><path d="M709.659,322.097l139.932,-129.388l-57.285,-69.397l-147.353,136.247l64.706,62.538Z" style="fill:#c7ced7;"/><path d="M587.669,190.159l139.928,-129.381l64.709,62.534l-147.353,136.247l-57.284,-69.4Z" style="fill:#d7dee9;"/><path d="M587.669,190.159l139.928,-129.381l70.387,-28.087l-147.35,136.243l-62.965,21.225Z" style="fill:#c7ced7;"/><path d="M741.009,162.597l223.55,-94.844l47.422,111.775l-223.553,94.844l-47.419,-111.775Z" style="fill:#fff;"/><path d="M883.694,160.816l78.197,-33.178c2.265,-0.96 4.906,0.106 5.868,2.374l14.841,34.975c0.959,2.269 -0.109,4.91 -2.375,5.872l-78.197,33.175c-2.265,0.96 -4.906,-0.106 -5.869,-2.371l-14.837,-34.979c-0.963,-2.265 0.106,-4.909 2.372,-5.868Z" style="fill:#43c0bb;"/><path d="M781.15,212.066l7.422,-2.954l1.753,4.404l-7.422,2.953l-1.753,-4.403Z" style="fill:#c7ced2;"/><path d="M790.928,208.175l13.381,-5.328l1.75,4.406l-13.378,5.325l-1.753,-4.403Z" style="fill:#c7ced2;"/><path d="M806.428,202.003l7.5,-2.984l1.753,4.403l-7.5,2.987l-1.753,-4.406Z" style="fill:#c7ced2;"/><path d="M785.491,221.291l6.884,-2.741l1.072,2.691l-6.888,2.74l-1.068,-2.69Z" style="fill:#c7ced2;"/><path d="M794.091,217.869l2.884,-1.15l1.072,2.69l-2.885,1.147l-1.071,-2.687Z" style="fill:#c7ced2;"/><path d="M798.178,216.241l2.884,-1.15l1.072,2.69l-2.884,1.147l-1.072,-2.687Z" style="fill:#c7ced2;"/><path d="M802.437,214.544l6.888,-2.741l1.072,2.688l-6.891,2.74l-1.069,-2.687Z" style="fill:#c7ced2;"/><path d="M811.038,211.119l2.887,-1.147l1.069,2.691l-2.885,1.146l-1.071,-2.69Z" style="fill:#c7ced2;"/><path d="M815.128,209.491l2.885,-1.144l1.065,2.687l-2.881,1.147l-1.069,-2.69Z" style="fill:#c7ced2;"/><path d="M832.616,211.391l2.521,-1.007l1.041,2.61l-2.522,1.006l-1.04,-2.609Z" style="fill:#c7ced2;"/><path d="M825.416,214.319l5.94,-2.363l1.038,2.61l-5.938,2.362l-1.04,-2.609Z" style="fill:#c7ced2;"/><path d="M836.887,209.741l2.525,-1.004l1.038,2.61l-2.522,1.006l-1.041,-2.612Z" style="fill:#c7ced2;"/><path d="M841.031,208.094l5.941,-2.366l1.037,2.609l-5.937,2.366l-1.041,-2.609Z" style="fill:#c7ced2;"/><path d="M788.778,228.894l7.46,-2.969l1.037,2.609l-7.459,2.969l-1.038,-2.609Z" style="fill:#c7ced2;"/><path d="M798.097,225.184l3.122,-1.243l1.043,2.609l-3.128,1.244l-1.037,-2.61Z" style="fill:#c7ced2;"/><path d="M802.525,223.422l3.125,-1.244l1.038,2.606l-3.125,1.244l-1.038,-2.606Z" style="fill:#c7ced2;"/><path d="M807.144,221.584l7.459,-2.971l1.041,2.609l-7.463,2.969l-1.037,-2.607Z" style="fill:#c7ced2;"/><path d="M816.463,217.872l3.125,-1.241l1.04,2.606l-3.125,1.244l-1.04,-2.609Z" style="fill:#c7ced2;"/><path d="M820.894,216.109l3.125,-1.243l1.037,2.609l-3.125,1.244l-1.037,-2.61Z" style="fill:#c7ced2;"/><path d="M794.034,232.847l-3.181,1.265l1.038,2.61l3.181,-1.269l-1.038,-2.606Z" style="fill:#c7ced2;"/><path d="M840.034,214.534l-9.403,3.744l1.038,2.609l9.403,-3.743l-1.038,-2.61Z" style="fill:#c7ced2;"/><path d="M828.288,219.209l-3.938,1.569l1.041,2.609l3.934,-1.568l-1.037,-2.61Z" style="fill:#c7ced2;"/><path d="M822.706,221.431l-3.937,1.569l1.037,2.609l3.938,-1.568l-1.038,-2.61Z" style="fill:#c7ced2;"/><path d="M816.891,223.747l-9.404,3.744l1.041,2.609l9.4,-3.744l-1.037,-2.609Z" style="fill:#c7ced2;"/><path d="M805.147,228.422l-3.938,1.565l1.038,2.61l3.937,-1.566l-1.037,-2.609Z" style="fill:#c7ced2;"/><path d="M799.566,230.644l-3.938,1.565l1.038,2.613l3.937,-1.569l-1.037,-2.609Z" style="fill:#c7ced2;"/><path d="M790.256,500.444l46.96,-38.588l27.625,33.622l-2.378,24.3l-33.619,27.625l-38.588,-46.959Z" style="fill:#fff;"/><path d="M851.5,506.438l13.341,-10.96l-2.378,24.3l-10.963,-13.34Z" style="fill:#c4563f;"/><path d="M790.256,500.444l46.96,-38.588l5.737,6.985l-46.959,38.587l-5.738,-6.984Z" style="fill:#c4563f;"/><path d="M875.803,508.819l-13.34,10.959l2.378,-24.3l10.962,13.341Z" style="fill:#dc7e67;"/><path d="M790.438,118.978c-0.126,0.372 -0.529,0.572 -0.901,0.444c-0.368,-0.125 -0.565,-0.528 -0.44,-0.897l5.462,-16.075c0.738,-2.162 2.441,-3.131 4.225,-3.203c0.682,-0.028 1.366,0.075 2.004,0.291c0.643,0.218 1.25,0.556 1.775,0.993c1.368,1.144 2.128,2.95 1.39,5.113l-7.991,23.515c-0.628,1.847 -2.021,2.694 -3.471,2.785c-0.557,0.037 -1.119,-0.044 -1.644,-0.222c-0.528,-0.181 -1.022,-0.463 -1.441,-0.828c-1.103,-0.969 -1.703,-2.51 -1.072,-4.369l6.997,-20.575c0.485,-1.428 1.56,-2.084 2.678,-2.159c0.425,-0.028 0.857,0.031 1.263,0.171c0.406,0.138 0.787,0.357 1.106,0.638c0.853,0.75 1.316,1.947 0.825,3.387l-4.584,13.479c-0.125,0.372 -0.528,0.572 -0.9,0.443c-0.369,-0.128 -0.566,-0.528 -0.441,-0.9l4.581,-13.478c0.275,-0.812 0.038,-1.468 -0.415,-1.869l-0.625,-0.362l-0.716,-0.1c-0.587,0.041 -1.159,0.406 -1.431,1.206l-6.994,20.575c-0.419,1.231 -0.044,2.231 0.66,2.847c0.278,0.247 0.612,0.434 0.962,0.556c0.356,0.119 0.731,0.175 1.1,0.15c0.916,-0.056 1.806,-0.615 2.219,-1.831l7.993,-23.516c0.519,-1.518 -0.006,-2.781 -0.962,-3.574c-0.378,-0.316 -0.828,-0.566 -1.316,-0.732c-0.484,-0.165 -0.997,-0.243 -1.49,-0.225c-1.241,0.05 -2.425,0.731 -2.941,2.25l-5.465,16.072Z" style="fill:#c4563f;fill-rule:nonzero;"/><path d="M957.669,431.559c-18.428,21.588 -15.863,54.029 5.728,72.454c21.587,18.425 54.025,15.862 72.453,-5.729c18.425,-21.59 5.606,-56.3 -11.178,-79.187c-19.484,-26.575 -48.578,-9.128 -67.003,12.462Z" style="fill:#fccbad;"/><path d="M877.603,317.003l113.694,-96.516l125.375,138.635l-113.694,96.512l-125.375,-138.631Z" style="fill:#43c0bb;"/><path d="M877.603,317.003l113.694,-96.516l118.012,139.019l-113.693,96.516l-118.013,-139.019Z" style="fill:#fff;"/><path d="M986.266,224.819l117.953,138.95l-0.594,0.562l-0.113,0.097l-118.012,-139.019l0.112,-0.093l0.654,-0.497Z" style="fill:#b5c3d3;"/><path d="M979.809,230.241l118.013,139.018l-0.738,0.625l-118.009,-139.018l0.734,-0.625Z" style="fill:#b5c3d3;"/><path d="M973.381,235.7l118.013,139.016l-0.735,0.625l-118.012,-139.019l0.734,-0.622Z" style="fill:#b5c3d3;"/><path d="M966.956,241.153l118.01,139.019l-0.735,0.625l-118.012,-139.019l0.737,-0.625Z" style="fill:#b5c3d3;"/><path d="M960.528,246.609l118.009,139.019l-0.734,0.625l-118.012,-139.019l0.737,-0.625Z" style="fill:#b5c3d3;"/><path d="M954.1,252.066l118.012,139.018l-0.737,0.622l-118.009,-139.015l0.734,-0.625Z" style="fill:#b5c3d3;"/><path d="M947.672,257.522l118.012,139.019l-0.734,0.625l-118.013,-139.019l0.735,-0.625Z" style="fill:#b5c3d3;"/><path d="M941.244,262.978l118.012,139.016l-0.734,0.628l-118.013,-139.019l0.735,-0.625Z" style="fill:#b5c3d3;"/><path d="M934.819,268.434l118.009,139.019l-0.734,0.625l-118.01,-139.022l0.735,-0.622Z" style="fill:#b5c3d3;"/><path d="M928.391,273.891l118.012,139.018l-0.737,0.622l-118.01,-139.018l0.735,-0.622Z" style="fill:#b5c3d3;"/><path d="M921.963,279.347l118.012,139.019l-0.734,0.622l-118.013,-139.016l0.735,-0.625Z" style="fill:#b5c3d3;"/><path d="M915.534,284.803l118.013,139.019l-0.735,0.625l-118.012,-139.019l0.734,-0.625Z" style="fill:#b5c3d3;"/><path d="M909.109,290.259l118.01,139.019l-0.735,0.622l-118.012,-139.016l0.737,-0.625Z" style="fill:#b5c3d3;"/><path d="M902.681,295.716l118.013,139.018l-0.738,0.625l-118.009,-139.018l0.734,-0.625Z" style="fill:#b5c3d3;"/><path d="M896.253,301.172l118.013,139.019l-0.735,0.622l-118.012,-139.019l0.734,-0.622Z" style="fill:#b5c3d3;"/><path d="M889.825,306.628l118.012,139.019l-0.734,0.622l-118.012,-139.016l0.734,-0.625Z" style="fill:#b5c3d3;"/><path d="M883.4,312.081l118.012,139.019l-0.112,0.097l-0.653,0.494l-117.953,-138.947l0.594,-0.566l0.112,-0.097Z" style="fill:#b5c3d3;"/><path d="M899.263,342.519l113.693,-96.513l0.65,0.763l-113.697,96.512l-0.646,-0.762Z" style="fill:#b5c3d3;"/><path d="M905.559,349.938l-0.647,-0.763l113.694,-96.516l0.647,0.763l-113.694,96.516Z" style="fill:#b5c3d3;"/><path d="M910.563,355.828l113.693,-96.512l0.647,0.759l-113.697,96.519l-0.643,-0.766Z" style="fill:#b5c3d3;"/><path d="M916.212,362.484l113.694,-96.512l0.647,0.759l-113.694,96.516l-0.647,-0.763Z" style="fill:#b5c3d3;"/><path d="M922.506,369.9l-0.647,-0.759l113.694,-96.516l0.647,0.762l-113.694,96.513Z" style="fill:#b5c3d3;"/><path d="M927.509,375.794l113.697,-96.516l0.644,0.763l-113.694,96.515l-0.647,-0.762Z" style="fill:#b5c3d3;"/><path d="M933.803,383.213l-0.647,-0.763l113.697,-96.516l0.647,0.76l-113.697,96.519Z" style="fill:#b5c3d3;"/><path d="M939.453,389.866l-0.647,-0.763l113.697,-96.512l0.647,0.759l-113.697,96.516Z" style="fill:#b5c3d3;"/><path d="M944.456,395.759l113.694,-96.515l0.647,0.762l-113.694,96.513l-0.647,-0.76Z" style="fill:#b5c3d3;"/><path d="M950.753,403.175l-0.647,-0.763l113.697,-96.515l0.644,0.765l-113.694,96.513Z" style="fill:#b5c3d3;"/><path d="M955.756,409.069l113.694,-96.516l0.647,0.763l-113.694,96.515l-0.647,-0.762Z" style="fill:#b5c3d3;"/><path d="M962.05,416.484l-0.647,-0.759l113.697,-96.516l0.647,0.763l-113.697,96.512Z" style="fill:#b5c3d3;"/><path d="M967.7,423.141l-0.644,-0.763l113.694,-96.515l0.647,0.762l-113.697,96.516Z" style="fill:#b5c3d3;"/><path d="M972.703,429.034l113.694,-96.515l0.647,0.759l-113.694,96.516l-0.647,-0.76Z" style="fill:#b5c3d3;"/><path d="M979,436.45l-0.647,-0.762l113.697,-96.516l0.644,0.762l-113.694,96.516Z" style="fill:#b5c3d3;"/><path d="M984.003,442.344l113.694,-96.516l0.647,0.759l-113.697,96.519l-0.644,-0.762Z" style="fill:#b5c3d3;"/><path d="M990.297,449.759l-0.647,-0.762l113.697,-96.513l0.644,0.76l-113.694,96.515Z" style="fill:#b5c3d3;"/><path d="M882.316,322.556l113.693,-96.515l0.113,0.134l0.534,0.628l-113.693,96.516l-0.535,-0.628l-0.112,-0.135Z" style="fill:#b5c3d3;"/><path d="M888.609,329.972l-0.646,-0.763l113.696,-96.512l0.647,0.759l-113.697,96.516Z" style="fill:#b5c3d3;"/><path d="M893.612,335.866l113.694,-96.516l0.65,0.763l-113.697,96.512l-0.647,-0.759Z" style="fill:#b5c3d3;"/><path d="M877.603,317.003l113.694,-96.516l16.659,19.626l-113.697,96.512l-16.656,-19.622Z" style="fill:#43c0bb;"/><path d="M968.878,475.966l9.472,102.75l62.581,-33.885l-6.337,-68.522l-65.716,-0.343Z" style="fill:#fccbad;"/><path d="M968.3,531.994l4.591,49.678l78.6,1.744l-8.01,-58.297l-75.181,6.875Z" style="fill:#c4563f;"/><path d="M964.812,469.678c-4.946,12.016 2.544,25.463 16.729,30.031c14.184,4.572 29.693,-1.462 34.64,-13.478c4.947,-12.015 -2.543,-25.459 -16.728,-30.031c-14.184,-4.572 -29.694,1.459 -34.641,13.478Z" style="fill:#eab28f;"/><path d="M938.159,387.3c3.197,2.856 3.413,2.463 3.791,6.609l7.187,78.766c0.657,7.184 7.532,17.394 14.716,16.75c7.188,-0.644 12.566,-7.053 11.897,-14.237l-6.434,-69.832c-1.079,-11.69 -19.553,-19.89 -31.157,-18.056Z" style="fill:#eab28f;"/><path d="M938.159,387.3l7.797,85.412c0.653,7.188 7.531,17.394 14.716,16.751c7.187,-0.641 12.562,-7.054 11.897,-14.235l-6.175,-66.984c-1.8,-19.525 -22.585,-22.035 -28.235,-20.944Z" style="fill:#fccbad;"/><path d="M958.403,473.016c-4.481,12.043 4.672,25.584 20.441,30.246c15.775,4.663 32.19,-1.318 36.672,-13.362c4.481,-12.041 -4.672,-25.581 -20.444,-30.247c-15.772,-4.662 -32.188,1.319 -36.669,13.363Z" style="fill:#fccbad;"/><path d="M968.1,555.853l10.331,105.241l41.338,-0.231l-11.147,-108.713l-40.522,3.703Z" style="fill:#71858e;"/><path d="M1008.62,552.15l11.147,108.713l41.778,0.646l-12.397,-113.037l-40.528,3.678Z" style="fill:#889ba3;"/><path d="M1041.95,268.772c-5.684,0.447 -10.881,-3.835 -11.147,-9.516l-2.522,-54.215c-0.266,-5.682 3.831,-10.7 9.516,-11.147c5.684,-0.447 10.681,3.834 11.144,9.519l2.524,54.215c0.266,5.697 -3.834,10.697 -9.515,11.144Z" style="fill:#eab28f;"/><path d="M1062.76,258.931c-5.538,1.344 -11.351,-2.056 -12.516,-7.622l-11.119,-53.125c-1.165,-5.565 2.084,-11.171 7.622,-12.515c5.537,-1.347 11.156,2.084 12.512,7.622l11.119,53.125c1.172,5.581 -2.078,11.168 -7.618,12.515Z" style="fill:#eab28f;"/><path d="M1113.92,180.047l-65.766,-13.391l-30.118,44.647l6.325,34.331l81.337,-30.79l8.222,-34.797Z" style="fill:#eab28f;"/><path d="M1084.06,247.047c-4.965,2.8 -11.484,1.103 -14.115,-3.935l-25.128,-48.109c-2.632,-5.041 -1.028,-11.316 3.937,-14.116c4.966,-2.799 11.307,-1.025 14.116,3.938l25.125,48.109c2.64,5.053 1.031,11.316 -3.935,14.113Z" style="fill:#eab28f;"/><path d="M1097.44,180.325c15.103,-15.428 45.475,-0.803 50.84,13.756c5.363,14.557 -6.559,31.232 -26.512,39.866c-19.953,8.634 -39.263,-1.431 -41.881,-9.163c-2.619,-7.728 2.453,-29.031 17.553,-44.459Z" style="fill:#fccbad;"/><path d="M1125.06,180.634c-0.15,5.7 -5.103,11.397 -10.631,10.088l-67.475,-15.991c-5.525,-1.309 -10.234,-4.931 -10.087,-10.628c0.15,-5.7 4.931,-10.225 10.631,-10.084l67.475,15.987c5.547,1.316 10.234,4.932 10.087,10.628Z" style="fill:#fccbad;"/><path d="M1012.08,207.909c-4.328,-3.709 -4.725,-10.215 -1.122,-14.612l27.835,-34.928c3.541,-4.444 10.284,-4.832 14.609,-1.122c4.328,3.709 4.822,10.275 1.122,14.609l-27.834,34.932c-3.553,4.456 -10.285,4.831 -14.61,1.121Z" style="fill:#fccbad;"/><path d="M1014.43,266.412c-5.697,-0.165 -10.403,-4.984 -10.056,-10.656l3.313,-54.175c0.35,-5.675 4.962,-10.222 10.659,-10.059c5.697,0.169 10.209,4.962 10.056,10.659l-3.312,54.175c-0.35,5.691 -4.963,10.222 -10.66,10.056Z" style="fill:#fccbad;"/><path d="M1041.24,186.497c9.731,0.837 50.881,5.466 37.722,26.362c-13.157,20.894 43.337,-8.953 43.337,-8.953l-23.963,-32.619c0,0 -37.784,-13.709 -57.096,15.21Z" style="fill:#fccbad;"/><path d="M1011.27,272.781l-1.557,12.041c-0.237,1.834 0.819,2.472 2.085,0.847l7.356,-9.406l-7.884,-3.482Z" style="fill:#3f647f;"/><path d="M1011.27,272.781l-1.341,10.385c1.075,-0.057 2.137,0.412 2.816,1.296l6.409,-8.199l-7.884,-3.482Z" style="fill:#c4563f;"/><path d="M1008.6,275.647l68.95,-168.969l11.588,4.375l-69.094,169.435l-11.444,-4.841Z" style="fill:#4d7d9a;"/><path d="M1083.35,108.866l5.791,2.187l-69.094,169.435l-5.741,-2.429l69.044,-169.193Z" style="fill:#3f647f;"/><path d="M1100.1,171.206l14.813,50.522l32.218,-4.4l-9.259,-52.003l-37.772,5.881Z" style="fill:#fccbad;"/><path d="M1131.7,161.05l11.209,66.316l20.491,-3.466l-11.209,-66.312l-20.491,3.462Z" style="fill:#c4563f;"/><path d="M1357.5,198.519l-192.99,31.997l-13.447,-79.544l160.556,-26.581l45.881,74.128Z" style="fill:#71858e;"/><path d="M1361.13,116.194l-210.068,34.781l6.725,39.769l260.478,-42.335l-57.135,-32.215Z" style="fill:#889ba3;"/><path d="M1098.02,215.622c3.25,5.853 1.322,13.722 -4.728,16.547l-54.679,25.506c-6.049,2.825 -13.293,1.122 -16.543,-4.728c-3.25,-5.853 -1.113,-13.281 4.731,-16.544l54.675,-25.509c6.069,-2.832 13.297,-1.122 16.544,4.728Z" style="fill:#fccbad;"/><path d="M1057.81,142.778l15.307,-43.831l16.343,6.169l-0.95,2.334l-14.378,-5.431l-14.359,41.503l-1.963,-0.744Z" style="fill:#3f647f;"/><path d="M1058.07,147.706l20.531,-50.309l16.344,6.172l-20.519,50.315l-16.356,-6.178Z" style="fill:#4d7d9a;"/><path d="M1086.77,100.484l8.172,3.085l-20.519,50.315l-8.188,-3.09l20.535,-50.31Z" style="fill:#3f647f;"/><path d="M1058.83,152.472l1.622,-3.863l11.588,4.375l-1.766,4.328l-11.444,-4.84Z" style="fill:#c4563f;"/><path d="M930.716,352.153l3.159,-1.944l0.016,0.05l0.009,0.054l0.003,0.053l0.003,0.059l-0.003,0.056l-0.006,0.06l-0.01,0.059l-0.015,0.063l-0.019,0.059l-0.019,0.065l-0.025,0.063l-0.028,0.066l-0.034,0.065l-0.031,0.063l-0.041,0.065l-0.041,0.066l-0.043,0.069l-0.05,0.065l-0.05,0.066l-0.053,0.062l-0.054,0.066l-0.059,0.063l-0.062,0.062l-0.063,0.066l-0.066,0.059l-0.068,0.059l-0.072,0.06l-0.072,0.059l-0.075,0.057l-0.078,0.053l-0.078,0.053l-0.082,0.053l-0.081,0.047l-0.081,0.047l-0.081,0.04l-0.082,0.041l-0.081,0.037l-0.078,0.032l-0.078,0.031l-0.078,0.025l-0.075,0.025l-0.075,0.022l-0.075,0.015l-0.072,0.016l-0.069,0.009l-0.072,0.01l-0.065,0.003l-0.066,0.003l-0.062,0l-0.063,-0.006l-0.056,-0.007l-0.06,-0.012l-0.05,-0.016l-0.053,-0.012l-0.05,-0.022l-0.044,-0.025l-0.04,-0.025l-0.041,-0.031l-0.037,-0.031l-0.035,-0.035l-0.028,-0.04l-0.025,-0.041l-0.022,-0.047l-0.018,-0.047Zm3.159,-1.944l-3.159,1.944l-0.313,-0.981l-0.275,-0.928l-0.244,-0.882l-0.215,-0.831l-0.178,-0.784l-0.15,-0.744l-0.119,-0.694l-0.084,-0.656l-0.054,-0.615l-0.018,-0.582l0.012,-0.543l0.05,-0.519l0.094,-0.506l0.14,-0.497l0.216,-0.51l0.316,-0.544l0.469,-0.584l0.634,-0.575l0.719,-0.469l0.684,-0.309l0.609,-0.181l0.547,-0.088l0.51,-0.028l0.496,0.019l0.501,0.056l0.506,0.091l0.522,0.125l0.537,0.153l0.563,0.184l0.581,0.213l0.603,0.24l0.628,0.269l-2.55,2.597l-0.6,-0.253l-0.569,-0.228l-0.54,-0.2l-0.507,-0.166l-0.475,-0.134l-0.437,-0.106l-0.397,-0.069l-0.35,-0.044l-0.294,-0.009l-0.225,0.009l-0.131,0.022l-0.012,0.003l0.118,-0.059l0.216,-0.138l0.184,-0.172l0.082,-0.097l-0.01,0.022l-0.053,0.132l-0.065,0.231l-0.057,0.309l-0.037,0.378l-0.01,0.438l0.016,0.493l0.05,0.551l0.078,0.599l0.109,0.654l0.141,0.703l0.175,0.753l0.203,0.809l0.241,0.856l0.272,0.91l0.306,0.962Zm2.578,-7.159l2.55,-2.597l0.616,0.269l0.606,0.25l0.591,0.234l0.581,0.222l0.566,0.2l0.553,0.184l0.534,0.16l0.516,0.144l0.503,0.118l0.475,0.097l0.45,0.072l0.428,0.047l0.394,0.025l0.356,0.003l0.309,-0.022l0.26,-0.037l0.19,-0.044l0.11,-0.037l0.025,-0.01l-0.041,0.025l-0.056,0.047l-0.028,0.025l0.022,-0.031l0.071,-0.116l0.094,-0.203l0.097,-0.284l0.091,-0.354l0.072,-0.418l0.046,-0.481l0.019,-0.535l-0.012,-0.59l-0.047,-0.647l3.212,-1.669l0.05,0.712l0.016,0.672l-0.022,0.638l-0.059,0.6l-0.097,0.575l-0.141,0.556l-0.19,0.541l-0.254,0.54l-0.334,0.55l-0.434,0.56l-0.541,0.54l-0.622,0.488l-0.653,0.4l-0.637,0.294l-0.601,0.203l-0.565,0.131l-0.535,0.078l-0.528,0.037l-0.522,0l-0.525,-0.031l-0.525,-0.059l-0.537,-0.088l-0.547,-0.109l-0.553,-0.134l-0.566,-0.153l-0.575,-0.176l-0.587,-0.193l-0.594,-0.213l-0.606,-0.228l-0.616,-0.244l-0.622,-0.259l-0.631,-0.275Zm14.153,-5.953l-3.212,1.669l-0.091,-0.635l-0.153,-0.644l-0.209,-0.643l-0.257,-0.644l-0.29,-0.641l-0.322,-0.634l-0.341,-0.625l-0.35,-0.613l-0.35,-0.6l-0.34,-0.587l-0.325,-0.572l-0.294,-0.559l-0.26,-0.544l-0.212,-0.534l-0.156,-0.528l-0.081,-0.547l0.018,-0.585l0.185,-0.681l0.481,-0.831l0.841,-0.86l0.978,-0.653l0.943,-0.422l0.938,-0.281l0.987,-0.197l1.091,-0.14l1.225,-0.088l1.381,-0.041l1.55,0.007l1.738,0.053l1.934,0.1l2.141,0.153l2.362,0.203l-2.019,2.728l-2.331,-0.2l-2.103,-0.15l-1.887,-0.1l-1.679,-0.05l-1.474,-0.006l-1.276,0.034l-1.081,0.079l-0.884,0.112l-0.678,0.134l-0.438,0.132l-0.153,0.065l0.135,-0.093l0.225,-0.232l0.087,-0.134l-0.016,0.081l-0.006,0.235l0.053,0.337l0.119,0.403l0.181,0.453l0.235,0.491l0.281,0.528l0.312,0.556l0.338,0.578l0.35,0.607l0.359,0.625l0.35,0.647l0.341,0.665l0.312,0.684l0.279,0.707l0.234,0.722l0.178,0.743l0.106,0.763Zm9.531,-9.416l2.019,-2.728l2.116,0.088l1.619,-0.144l1.037,-0.278l0.4,-0.213l0.147,-0.156l0.262,-0.509l0.219,-0.897l0.053,-1.163l-0.131,-1.343l-0.3,-1.479l-0.444,-1.575l-0.562,-1.653l-0.65,-1.7l-0.716,-1.728l-0.747,-1.741l-0.75,-1.725l-0.731,-1.693l-0.678,-1.644l-0.6,-1.575l-0.494,-1.491l-0.356,-1.393l-0.194,-1.297l0.019,-1.222l0.353,-1.263l1.11,-1.5l1.831,-1.147l1.64,-0.375l1.644,0.019l1.888,0.31l2.225,0.603l2.618,0.915l3.054,1.241l-2.541,2.603l-2.997,-1.222l-2.534,-0.881l-2.094,-0.569l-1.647,-0.272l-1.166,-0.018l-0.5,0.096l0.307,-0.206l0.131,-0.131l-0.116,0.494l-0.009,0.884l0.169,1.122l0.334,1.297l0.472,1.431l0.587,1.538l0.669,1.621l0.725,1.685l0.753,1.728l0.753,1.747l0.722,1.75l0.663,1.734l0.578,1.697l0.466,1.65l0.318,1.588l0.147,1.518l-0.072,1.457l-0.362,1.44l-0.831,1.507l-1.519,1.496l-1.891,1.041l-1.931,0.538l-2.097,0.19l-2.388,-0.097Zm14.36,-27.853l2.541,-2.603l3.065,1.269l2.716,1.022l2.387,0.79l2.069,0.569l1.766,0.366l1.462,0.175l1.153,0.012l0.791,-0.106l0.347,-0.113l-0.069,0.047l-0.062,0.053l0.115,-0.24l0.134,-0.516l0.066,-0.7l-0.022,-0.816l-0.103,-0.893l-0.169,-0.956l-0.218,-0.988l-0.25,-1.006l-0.266,-1.013l-0.263,-1.003l-0.24,-0.978l-0.2,-0.947l-0.141,-0.903l-0.059,-0.862l0.053,-0.844l0.244,-0.897l0.703,-1.116l1.409,-1.115l1.356,-0.485l1.138,-0.081l1.162,0.131l-2.196,2.703l-0.853,-0.1l-0.466,0.029l0.131,-0.063l0.525,-0.413l0.116,-0.149l-0.069,0.303l-0.031,0.553l0.05,0.706l0.125,0.816l0.19,0.893l0.232,0.95l0.259,0.994l0.269,1.019l0.256,1.031l0.228,1.028l0.181,1.019l0.113,1l0.025,0.978l-0.094,0.969l-0.269,0.987l-0.571,1.078l-1.06,1.16l-1.422,0.912l-1.39,0.485l-1.375,0.193l-1.478,-0.012l-1.663,-0.203l-1.897,-0.391l-2.162,-0.593l-2.45,-0.81l-2.766,-1.044l-3.103,-1.281Zm20.419,-12.044l2.196,-2.703l1.063,0.203l0.938,0.194l0.821,0.185l0.716,0.178l0.612,0.165l0.525,0.156l0.441,0.151l0.369,0.14l0.303,0.131l0.247,0.125l0.197,0.122l0.162,0.119l0.122,0.116l0.091,0.112l0.059,0.091l0.019,0.034l-0.069,-0.084l-0.278,-0.138l-0.362,-0.015l-0.163,0.028l0.003,-0.003l0.116,-0.032l0.194,-0.053l0.256,-0.072l0.322,-0.084l0.39,-0.097l0.472,-0.106l0.556,-0.122l0.65,-0.137l0.757,-0.147l0.862,-0.163l0.985,-0.175l-1.26,2.688l-0.956,0.172l-0.835,0.153l-0.715,0.143l-0.609,0.125l-0.513,0.113l-0.419,0.097l-0.34,0.084l-0.269,0.069l-0.206,0.056l-0.157,0.044l-0.14,0.04l-0.178,0.047l-0.282,0.05l-0.437,-0.015l-0.325,-0.166l-0.106,-0.134l-0.022,-0.041l-0.003,-0.006l-0.01,-0.013l-0.031,-0.031l-0.069,-0.05l-0.115,-0.072l-0.172,-0.087l-0.238,-0.103l-0.309,-0.119l-0.388,-0.131l-0.481,-0.144l-0.572,-0.156l-0.678,-0.166l-0.79,-0.178l-0.91,-0.188l-1.037,-0.2Zm12.312,0.807l1.26,-2.688l0.074,-0.012l0.072,-0.007l0.072,-0.006l0.066,0l0.066,0.003l0.062,0.006l0.056,0.01l0.06,0.009l0.05,0.016l0.05,0.019l0.05,0.025l0.04,0.022l0.041,0.028l0.037,0.028l0.035,0.034l0.031,0.034l0.05,0.082l0.022,0.04l0.015,0.047l0.013,0.047l0.009,0.05l0.007,0.053l0,0.11l-0.01,0.059l-0.009,0.059l-0.013,0.063l-0.018,0.065l-0.022,0.066l-0.025,0.066l-0.031,0.069l-0.035,0.068l-0.037,0.072l-0.041,0.069l-0.044,0.069l-0.05,0.065l-0.047,0.069l-0.053,0.066l-0.056,0.065l-0.056,0.066l-0.063,0.062l-0.059,0.063l-0.066,0.062l-0.065,0.06l-0.069,0.059l-0.069,0.056l-0.069,0.054l-0.075,0.053l-0.071,0.053l-0.076,0.05l-0.075,0.047l-0.078,0.046l-0.075,0.044l-0.078,0.041l-0.078,0.037l-0.081,0.038l-0.078,0.031l-0.078,0.031l-0.079,0.025l-0.078,0.025l-0.078,0.022l-0.078,0.019l-0.075,0.016Z" style="fill:#3f647f;fill-rule:nonzero;"/><path d="M693.787,375.369l85.157,-46.597l27.056,49.453l-85.153,46.597l-27.06,-49.453Z" style="fill:#c7ced2;"/><path d="M728.75,374.256l6.616,-3.619l2.146,3.926l-6.612,3.618l-2.15,-3.925Z" style="fill:#fff;"/><path d="M737.466,369.491l11.928,-6.529l2.147,3.926l-11.929,6.524l-2.146,-3.921Z" style="fill:#fff;"/><path d="M751.281,361.928l6.685,-3.656l2.15,3.922l-6.688,3.659l-2.147,-3.925Z" style="fill:#fff;"/><path d="M760.897,382.631l2.253,-1.231l1.272,2.325l-2.25,1.231l-1.275,-2.325Z" style="fill:#fff;"/><path d="M764.591,380.609l5.293,-2.896l1.275,2.325l-5.293,2.896l-1.275,-2.325Z" style="fill:#fff;"/><path d="M771.241,376.969l2.25,-1.232l1.275,2.329l-2.25,1.231l-1.275,-2.328Z" style="fill:#fff;"/><path d="M774.934,374.947l5.294,-2.897l1.275,2.328l-5.294,2.894l-1.275,-2.325Z" style="fill:#fff;"/><path d="M736.431,387.013l5.956,-3.263l1.276,2.328l-5.96,3.259l-1.272,-2.324Z" style="fill:#fff;"/><path d="M743.875,382.938l2.491,-1.363l1.275,2.325l-2.494,1.363l-1.272,-2.325Z" style="fill:#fff;"/><path d="M747.409,381.003l2.497,-1.366l1.269,2.325l-2.491,1.366l-1.275,-2.325Z" style="fill:#fff;"/><path d="M751.094,378.988l5.956,-3.26l1.275,2.325l-5.959,3.259l-1.272,-2.324Z" style="fill:#fff;"/><path d="M758.534,374.916l2.494,-1.366l1.275,2.328l-2.494,1.363l-1.275,-2.325Z" style="fill:#fff;"/><path d="M762.072,372.978l2.494,-1.362l1.271,2.325l-2.493,1.365l-1.272,-2.328Z" style="fill:#fff;"/><path d="M728.356,400.437l6.653,-3.64l1.269,2.325l-6.65,3.644l-1.272,-2.329Z" style="fill:#fff;"/><path d="M736.662,395.891l2.788,-1.522l1.272,2.325l-2.785,1.522l-1.275,-2.325Z" style="fill:#fff;"/><path d="M740.613,393.731l2.784,-1.525l1.275,2.325l-2.784,1.525l-1.275,-2.325Z" style="fill:#fff;"/><path d="M744.728,391.478l6.65,-3.637l1.275,2.325l-6.653,3.64l-1.272,-2.328Z" style="fill:#fff;"/><path d="M753.038,386.931l2.784,-1.522l1.272,2.325l-2.788,1.525l-1.268,-2.328Z" style="fill:#fff;"/><path d="M756.984,384.772l2.785,-1.525l1.275,2.328l-2.788,1.522l-1.272,-2.325Z" style="fill:#fff;"/><path d="M737.625,401.103l-2.834,1.55l1.271,2.328l2.835,-1.553l-1.272,-2.325Z" style="fill:#fff;"/><path d="M778.628,378.666l-8.381,4.584l1.272,2.328l8.381,-4.587l-1.272,-2.325Z" style="fill:#fff;"/><path d="M768.159,384.394l-3.509,1.919l1.272,2.328l3.509,-1.922l-1.272,-2.325Z" style="fill:#fff;"/><path d="M763.184,387.116l-3.509,1.921l1.272,2.325l3.509,-1.918l-1.272,-2.328Z" style="fill:#fff;"/><path d="M758,389.953l-8.381,4.588l1.272,2.325l8.381,-4.588l-1.272,-2.325Z" style="fill:#fff;"/><path d="M747.531,395.681l-3.509,1.922l1.272,2.325l3.509,-1.919l-1.272,-2.328Z" style="fill:#fff;"/><path d="M742.556,398.406l-3.509,1.919l1.272,2.325l3.509,-1.919l-1.272,-2.325Z" style="fill:#fff;"/><path d="M385.894,172.847l-29.435,-32.466l-52.518,-21.587l-42.757,37.259l10.766,34.244c0,0 45.713,24.1 43.112,28.634c-2.6,4.538 6.422,-11.153 6.422,-11.153l64.41,-34.931Z" style="fill:#eab28f;"/><path d="M310.781,144.487l-18.269,31.738c-3.537,6.147 -1.403,14.069 4.744,17.609l84.26,48.497c6.147,3.538 14.068,1.403 17.606,-4.74l18.269,-31.738c3.537,-6.147 1.403,-14.072 -4.744,-17.606l-84.26,-48.5c-6.143,-3.538 -14.065,-1.406 -17.606,4.74Z" style="fill:#889ba3;"/><path d="M323.325,143.372l-25.475,44.262l0.066,0.244l87.521,50.378l0.247,-0.065l25.475,-44.263l-0.065,-0.244l-87.522,-50.378l-0.247,0.066Z" style="fill:#fff;"/><path d="M262.134,127.469l-61.259,3.193c-6.728,15.163 -10.172,31.104 -10.559,46.941l12.628,10.041l57.29,-3.006l1.9,-57.169Z" style="fill:#fccbad;"/><path d="M282.981,206.584c-4.075,-2.328 -44.459,-22 -49.681,-29.565c-9.653,-8.872 -8.122,-44.119 7.019,-48.413c31.469,-8.931 64.281,-22.606 74.384,-17.965l28.991,13.309c6.631,3.044 13.015,7.087 22.54,14.025l29.747,21.494c8.36,6.037 4.141,23.39 -10.781,12.619l-35.384,-25.535l-30.291,-9.962c-34.166,9.246 -45.334,45.059 -23.638,56.331l22.457,13.122c8.297,4.847 11.803,9.728 8.64,18.781c-1.69,4.841 -4.393,4.444 -8.168,2.281l-35.835,-20.522Z" style="fill:#fccbad;"/><path d="M238.934,124.547l-26.172,0.219l3.919,71.337l27.138,-0.394l-4.885,-71.162Z" style="fill:#fff;"/><path d="M323.906,193.722l51.01,29.228l-0.394,0.691l-51.013,-29.232l0.397,-0.687Z" style="fill:#c3c3c2;fill-rule:nonzero;"/><path d="M342.619,161.862l-18.566,32.401l-0.687,-0.394l18.565,-32.4l0.688,0.393Z" style="fill:#c3c3c2;fill-rule:nonzero;"/><path d="M352.347,167.437l-18.566,32.401l-0.69,-0.394l18.568,-32.4l0.688,0.393Z" style="fill:#c3c3c2;fill-rule:nonzero;"/><path d="M362.075,173.012l-18.569,32.401l-0.684,-0.394l18.565,-32.4l0.688,0.393Z" style="fill:#c3c3c2;fill-rule:nonzero;"/><path d="M371.803,178.587l-18.569,32.397l-0.687,-0.393l18.569,-32.397l0.687,0.393Z" style="fill:#c3c3c2;fill-rule:nonzero;"/><path d="M381.906,184.412l-18.947,32.151l-0.681,-0.4l18.947,-32.151l0.681,0.4Z" style="fill:#c3c3c2;fill-rule:nonzero;"/><path d="M391.259,189.738l-18.568,32.396l-0.688,-0.393l18.566,-32.397l0.69,0.394Z" style="fill:#c3c3c2;fill-rule:nonzero;"/><path d="M328.259,186.119l51.013,29.231l-0.394,0.687l-51.012,-29.231l0.393,-0.687Z" style="fill:#c3c3c2;fill-rule:nonzero;"/><path d="M332.619,178.519l50.787,29.593l-0.393,0.685l-50.788,-29.594l0.394,-0.684Z" style="fill:#c3c3c2;fill-rule:nonzero;"/><path d="M336.975,170.916l51.009,29.231l-0.397,0.684l-51.006,-29.228l0.394,-0.687Z" style="fill:#c3c3c2;fill-rule:nonzero;"/><path d="M341.331,163.312l51.01,29.232l-0.394,0.687l-51.01,-29.231l0.394,-0.688Z" style="fill:#c3c3c2;fill-rule:nonzero;"/><path d="M347.075,176.862l-23.975,16.557l0.675,0.981l23.05,-15.916l0.1,19.132l0.006,0.681l0.675,-0.097l13.625,-1.963l5.194,12.747l0.297,0.725l0.619,-0.478l18.053,-13.934l1.534,1.99l2.575,-5.912l-6.372,0.991l1.535,1.99l-17.435,13.457l-5.075,-12.454l-0.175,-0.428l-0.459,0.066l-13.409,1.928l-0.107,-19.575l-0.003,-1.125l-0.928,0.637Z" style="fill:#59acb6;fill-rule:nonzero;"/><path d="M321.644,194.234l2.962,1.697l-0.862,1.503l-2.963,-1.693l0.863,-1.507Z" style="fill:#c3c3c2;"/><path d="M331.372,199.809l2.962,1.697l-0.862,1.507l-2.963,-1.697l0.863,-1.507Z" style="fill:#c3c3c2;"/><path d="M341.1,205.381l2.962,1.7l-0.862,1.507l-2.963,-1.7l0.863,-1.507Z" style="fill:#c3c3c2;"/><path d="M350.828,210.959l2.959,1.697l-0.859,1.507l-2.962,-1.697l0.862,-1.507Z" style="fill:#c3c3c2;"/><path d="M360.556,216.531l2.963,1.697l-0.866,1.506l-2.959,-1.697l0.862,-1.506Z" style="fill:#c3c3c2;"/><path d="M370.284,222.106l2.96,1.697l-0.86,1.506l-2.962,-1.697l0.862,-1.506Z" style="fill:#c3c3c2;"/><path d="M324.531,183.437l2.96,1.697l-0.863,1.504l-2.962,-1.697l0.865,-1.504Z" style="fill:#c3c3c2;"/><path d="M328.888,175.834l2.959,1.697l-0.863,1.507l-2.962,-1.697l0.866,-1.507Z" style="fill:#c3c3c2;"/><path d="M333.244,168.231l2.959,1.697l-0.862,1.506l-2.96,-1.696l0.863,-1.507Z" style="fill:#c3c3c2;"/><path d="M337.094,161.512l2.959,1.697l-0.862,1.507l-2.963,-1.697l0.866,-1.507Z" style="fill:#c3c3c2;"/><path d="M223.241,201.628l-258.013,8.897l-49.506,-76.562l304.141,-11.71l3.378,79.375Z" style="fill:#43c0bb;"/><path d="M223.241,201.628l-258.013,8.897l-24.425,-37.775l280.75,-10.809l1.688,39.687Z" style="fill:#1b9997;"/><path d="M401.125,225.375c1.744,0 3.166,-1.425 3.166,-3.169c0,-1.747 -1.422,-3.168 -3.166,-3.168c-1.747,0 -3.169,1.421 -3.169,3.168c0,1.744 1.422,3.169 3.169,3.169Z" style="fill:#fff;"/><path d="M308.612,157.828l0.004,0c0.596,0.319 0.825,1.066 0.506,1.666l-3.578,6.706c-0.319,0.597 -1.066,0.825 -1.666,0.506c-0.6,-0.319 -0.825,-1.069 -0.506,-1.665l3.575,-6.707c0.319,-0.6 1.069,-0.828 1.665,-0.506Z" style="fill:#fff;"/><path d="M1102.57,426.55l58.087,-27.703c3.294,-1.569 7.272,-0.16 8.844,3.134l35.172,73.744c1.569,3.294 0.159,7.272 -3.131,8.844l-58.088,27.703c-3.29,1.572 -7.272,0.162 -8.844,-3.131l-35.171,-73.747c-1.572,-3.294 -0.16,-7.272 3.131,-8.844Z" style="fill:#637279;"/><path d="M1106.03,430.694l55.672,-26.55c1.66,-0.791 3.663,-0.081 4.453,1.578l4.047,8.481c0.791,1.66 0.081,3.663 -1.578,4.453l-55.672,26.553c-1.659,0.788 -3.662,0.078 -4.453,-1.578l-4.047,-8.481c-0.791,-1.659 -0.081,-3.666 1.578,-4.456Z" style="fill:#889ba3;"/><path d="M1113.8,447.566l7.834,-3.735c1.535,-0.731 3.385,-0.078 4.116,1.456l3.875,8.122c0.728,1.532 0.072,3.385 -1.46,4.113l-7.834,3.737c-1.534,0.732 -3.384,0.075 -4.116,-1.459l-3.871,-8.119c-0.732,-1.531 -0.075,-3.384 1.456,-4.115Z" style="fill:#dddcdb;"/><path d="M1129.89,439.888l7.837,-3.735c1.531,-0.731 3.382,-0.075 4.116,1.456l3.872,8.122c0.731,1.531 0.075,3.385 -1.456,4.113l-7.838,3.737c-1.531,0.731 -3.384,0.075 -4.116,-1.456l-3.871,-8.122c-0.732,-1.531 -0.076,-3.384 1.456,-4.115Z" style="fill:#dddcdb;"/><path d="M1145.99,432.209l7.834,-3.734c1.535,-0.731 3.385,-0.075 4.116,1.456l3.872,8.122c0.731,1.531 0.075,3.384 -1.457,4.113l-7.834,3.737c-1.534,0.734 -3.384,0.075 -4.116,-1.456l-3.871,-8.122c-0.732,-1.531 -0.076,-3.381 1.456,-4.116Z" style="fill:#dddcdb;"/><path d="M1162.09,424.531l7.834,-3.734c1.531,-0.731 3.381,-0.075 4.116,1.456l3.872,8.119c0.731,1.534 0.075,3.387 -1.46,4.119l-7.834,3.734c-1.531,0.731 -3.384,0.078 -4.113,-1.456l-3.875,-8.119c-0.731,-1.534 -0.075,-3.387 1.46,-4.119Z" style="fill:#dddcdb;"/><path d="M1121.24,463.181l7.834,-3.737c1.534,-0.732 3.385,-0.075 4.116,1.459l3.872,8.119c0.731,1.534 0.075,3.384 -1.457,4.116l-7.834,3.734c-1.534,0.734 -3.384,0.078 -4.116,-1.453l-3.871,-8.122c-0.732,-1.531 -0.075,-3.385 1.456,-4.116Z" style="fill:#dddcdb;"/><path d="M1137.34,455.503l7.834,-3.737c1.531,-0.729 3.385,-0.075 4.113,1.459l3.875,8.119c0.731,1.534 0.075,3.384 -1.46,4.115l-7.834,3.738c-1.531,0.731 -3.381,0.075 -4.113,-1.456l-3.875,-8.122c-0.728,-1.535 -0.075,-3.385 1.46,-4.116Z" style="fill:#dddcdb;"/><path d="M1153.44,447.825l7.834,-3.738c1.534,-0.728 3.384,-0.074 4.116,1.46l3.875,8.122c0.728,1.531 0.071,3.381 -1.46,4.112l-7.834,3.738c-1.531,0.731 -3.384,0.075 -4.116,-1.46l-3.872,-8.118c-0.731,-1.532 -0.078,-3.385 1.457,-4.116Z" style="fill:#dddcdb;"/><path d="M1169.54,440.147l7.837,-3.734c1.531,-0.732 3.384,-0.075 4.116,1.456l3.872,8.122c0.731,1.531 0.074,3.381 -1.457,4.112l-7.837,3.738c-1.532,0.731 -3.385,0.075 -4.116,-1.457l-3.872,-8.121c-0.731,-1.532 -0.075,-3.385 1.457,-4.116Z" style="fill:#dddcdb;"/><path d="M1128.69,478.797l7.834,-3.738c1.534,-0.731 3.384,-0.075 4.116,1.457l3.871,8.122c0.735,1.531 0.076,3.384 -1.456,4.115l-7.834,3.734c-1.535,0.732 -3.385,0.076 -4.116,-1.456l-3.872,-8.118c-0.731,-1.535 -0.078,-3.388 1.457,-4.116Z" style="fill:#dddcdb;"/><path d="M1144.79,471.119l7.834,-3.738c1.531,-0.731 3.384,-0.075 4.113,1.456l3.874,8.122c0.732,1.532 0.076,3.385 -1.456,4.116l-7.837,3.734c-1.531,0.732 -3.385,0.075 -4.116,-1.456l-3.872,-8.122c-0.731,-1.531 -0.075,-3.384 1.46,-4.112Z" style="fill:#dddcdb;"/><path d="M1160.89,463.441l7.834,-3.738c1.531,-0.731 3.384,-0.075 4.116,1.456l3.871,8.122c0.732,1.531 0.075,3.385 -1.456,4.116l-7.834,3.734c-1.535,0.731 -3.385,0.078 -4.116,-1.456l-3.872,-8.122c-0.731,-1.531 -0.075,-3.384 1.457,-4.112Z" style="fill:#dddcdb;"/><path d="M1176.99,455.763l7.835,-3.738c1.531,-0.731 3.384,-0.075 4.112,1.459l3.875,8.119c0.732,1.531 0.075,3.384 -1.459,4.116l-7.831,3.734c-1.535,0.734 -3.385,0.075 -4.116,-1.456l-3.875,-8.122c-0.731,-1.531 -0.072,-3.381 1.459,-4.112Z" style="fill:#dddcdb;"/><path d="M1136.14,494.409l7.835,-3.737c1.534,-0.728 3.384,-0.075 4.116,1.459l3.871,8.119c0.732,1.534 0.075,3.384 -1.456,4.116l-7.834,3.737c-1.535,0.731 -3.385,0.075 -4.116,-1.459l-3.872,-8.119c-0.731,-1.534 -0.075,-3.384 1.456,-4.116Z" style="fill:#dddcdb;"/><path d="M1152.23,486.731l7.838,-3.737c1.531,-0.731 3.384,-0.075 4.112,1.459l3.875,8.119c0.732,1.534 0.075,3.384 -1.456,4.116l-7.837,3.737c-1.535,0.731 -3.385,0.075 -4.116,-1.456l-3.872,-8.122c-0.731,-1.531 -0.075,-3.384 1.456,-4.116Z" style="fill:#dddcdb;"/><path d="M1168.33,479.053l7.835,-3.734c1.534,-0.735 3.384,-0.078 4.115,1.456l3.872,8.119c0.732,1.534 0.078,3.384 -1.456,4.115l-7.834,3.738c-1.535,0.731 -3.385,0.075 -4.116,-1.456l-3.875,-8.122c-0.728,-1.532 -0.075,-3.385 1.459,-4.116Z" style="fill:#dddcdb;"/><path d="M1184.43,471.375l7.835,-3.737c1.531,-0.729 3.381,-0.075 4.115,1.459l3.872,8.119c0.732,1.534 0.075,3.384 -1.459,4.115l-7.834,3.738c-1.532,0.731 -3.385,0.075 -4.113,-1.456l-3.875,-8.122c-0.731,-1.532 -0.075,-3.385 1.459,-4.116Z" style="fill:#f19d31;"/><path d="M1162.42,412.016l0,-2.3l-0.269,1.734l0.269,0.566Zm-0.097,4.296l0.097,-0.043l0,1.15l-0.072,0.034l-0.716,-0.219l0.01,-0.025l-0.547,-0.218l-1.231,-2.582l0.168,-0.571l-0.54,-0.207l-1.235,-2.587l0.207,-0.719l0.012,0.003l0.209,-0.55l1.526,-0.728l0.562,0.175l0.197,-0.538l1.45,-0.69l0,1.15l-1.003,0.478l-0.563,-0.172l-0.197,0.535l-1.443,0.687l1.2,2.516l-0.163,0.572l0.534,0.206l0.669,1.403l0.319,-2.009l0.513,-0.247l0.134,0.281l0,2.306l-0.097,0.609Zm0.097,-2.915l0,2.306l0.272,-1.737l-0.272,-0.569Zm0,2.872l1.003,-0.478l0.566,0.171l0.197,-0.537l1.44,-0.684l-1.197,-2.51l0.163,-0.568l-0.532,-0.21l-0.671,-1.409l-0.322,2.009l-0.513,0.247l-0.134,-0.284l0,-2.3l0.094,-0.616l-0.094,0.047l0,-1.15l0.072,-0.034l0.715,0.218l-0.003,0.013l0.535,0.215l1.24,2.604l-0.169,0.574l0.541,0.204l1.231,2.581l-0.2,0.734l-0.025,-0.009l-0.203,0.54l-1.522,0.729l-0.565,-0.175l-0.197,0.537l-1.45,0.691l0,-1.15Z" style="fill:#fff;fill-rule:nonzero;"/><path d="M1122.14,449.716c-0.272,1.021 -0.376,1.9 -0.3,2.637c0.071,0.738 0.271,1.572 0.599,2.506l0.222,0.616l-1.159,0.553l-0.225,-0.615c-0.316,-0.894 -0.494,-1.766 -0.538,-2.619c-0.04,-0.853 0.054,-1.7 0.285,-2.544l-2.972,1.416l-0.425,-0.894l4.087,-1.95l0.426,0.894Z" style="fill:#3f647f;fill-rule:nonzero;"/><path d="M1136.62,447.872c-0.303,-0.169 -0.547,-0.441 -0.728,-0.822c-0.15,-0.312 -0.191,-0.628 -0.131,-0.953c0.062,-0.325 0.218,-0.625 0.465,-0.906c-0.331,0.003 -0.625,-0.069 -0.881,-0.219c-0.256,-0.147 -0.453,-0.366 -0.591,-0.656c-0.246,-0.516 -0.268,-0.991 -0.065,-1.435c0.203,-0.444 0.578,-0.794 1.131,-1.059l0.8,-0.25l0,1.066l-0.375,0.078l-0.397,0.446l0.091,0.65l0.453,0.491l0.228,0.056l0,3.513Zm1.209,0.175l-0.803,-0.022l-0.406,-0.153l0,-3.513l0.378,-0.084l0.391,-0.45l-0.091,-0.659l-0.453,-0.472l-0.225,-0.056l0,-1.066l0.731,0.041l0.478,0.212l0,3.25l-0.412,0.097l-0.475,0.516l0.078,0.728l0.522,0.521l0.287,0.05l0,1.06Zm0.6,-5.484c0.138,0.29 0.185,0.578 0.138,0.874c-0.047,0.297 -0.172,0.569 -0.381,0.822c0.368,-0.018 0.7,0.054 0.993,0.21c0.291,0.156 0.513,0.39 0.66,0.7c0.256,0.537 0.272,1.034 0.044,1.493c-0.226,0.463 -0.632,0.832 -1.216,1.11c-0.291,0.14 -0.569,0.231 -0.838,0.275l0,-1.06l0.413,-0.103l0.475,-0.509l-0.075,-0.731l-0.525,-0.516l-0.288,-0.053l0,-3.25c0.247,0.169 0.447,0.413 0.6,0.738Z" style="fill:#3f647f;fill-rule:nonzero;"/><path d="M1152.92,439.744l-0.025,-0.085l0.025,-0.003l0,0.088Zm0,-1.306c-0.316,0.046 -0.616,0.009 -0.906,-0.116c-0.475,-0.203 -0.856,-0.606 -1.144,-1.203c-0.275,-0.578 -0.319,-1.147 -0.138,-1.703c0.182,-0.56 0.56,-0.972 1.122,-1.241c0.36,-0.172 0.716,-0.25 1.066,-0.228l0,1.1l-0.634,0.019c-0.235,0.112 -0.372,0.312 -0.416,0.6c-0.044,0.287 0.009,0.587 0.156,0.9c0.16,0.328 0.353,0.562 0.581,0.703l0.313,0.109l0,1.06Zm1.147,0.899c0.303,-0.146 0.497,-0.378 0.581,-0.696c0.084,-0.319 0.028,-0.688 -0.175,-1.11l-0.134,-0.284l-0.288,0.594l-0.515,0.403l-0.616,0.194l0,-1.06l0.403,-0.078l0.45,-0.347l0.21,-0.45l-0.254,-0.534c-0.203,-0.422 -0.431,-0.71 -0.684,-0.86l-0.125,-0.062l0,-1.1l0.663,0.153c0.565,0.231 1.021,0.712 1.371,1.45l0.653,1.369c0.335,0.703 0.391,1.353 0.172,1.953c-0.222,0.6 -0.65,1.05 -1.29,1.356l-0.65,0.235l-0.678,0.1l-0.241,-0.819l0,-0.088l0.553,-0.094l0.594,-0.225Z" style="fill:#3f647f;fill-rule:nonzero;"/><path d="M1166,428.903c-0.166,-0.344 -0.188,-0.681 -0.078,-1.012c0.112,-0.335 0.369,-0.597 0.762,-0.785l0.644,-0.175l0,0.772l-0.337,0.047l-0.282,0.334l0.063,0.45l0.143,0.303l0.313,0.329l0.1,0.034l0,0.766l-0.444,-0.066c-0.331,-0.119 -0.578,-0.35 -0.74,-0.694l-0.144,-0.303Zm2.787,3.353l0,0.166l-0.018,-0.003l0.018,-0.163Zm-1.459,-5.325l0.45,0.069c0.325,0.122 0.572,0.356 0.738,0.703l0.146,0.303l0.125,0.394l0,0.412l-0.05,0.201c-0.112,0.331 -0.368,0.59 -0.762,0.778l-0.647,0.175l0,-0.766l0.341,-0.053l0.281,-0.325l-0.06,-0.447l-0.146,-0.306l-0.313,-0.328l-0.103,-0.038l0,-0.772Zm1.459,5.491l0.688,0.028l0.672,-5.872l-0.71,-0.031l-0.65,5.709l0,0.166Zm2.872,-3.55l0,0.772l-0.343,0.047l-0.285,0.334l0.059,0.447l0.144,0.303l0.322,0.322l0.103,0.034l0,0.775l-0.453,-0.068c-0.331,-0.122 -0.578,-0.354 -0.744,-0.694l-0.147,-0.306c-0.159,-0.338 -0.184,-0.675 -0.068,-1.007c0.115,-0.337 0.369,-0.597 0.762,-0.784l0.65,-0.175Zm-2.872,-0.472l0,0.412l0,-0.412Zm2.872,3.506l0,-0.775l0.335,-0.043l0.296,-0.325l-0.078,-0.454l-0.143,-0.306l-0.313,-0.325l-0.097,-0.034l0,-0.772l0.441,0.069c0.328,0.122 0.575,0.353 0.741,0.696l0.143,0.304c0.166,0.346 0.191,0.684 0.078,1.012c-0.112,0.331 -0.368,0.591 -0.762,0.778l-0.641,0.175Z" style="fill:#3f647f;fill-rule:nonzero;"/><path d="M1128.47,470.15l-1.266,0.603l-0.384,-0.669l0.572,-4.981l1.078,-0.516l0,2.747l-0.329,-0.687l-0.024,0.003l-0.016,0.206l-0.297,2.51l0.666,-0.319l0,1.103Zm1.821,-1.972l0.657,-0.312l0.428,0.9l-0.653,0.309l0.597,1.259l-1.157,0.55l-0.6,-1.256l-1.093,0.522l0,-1.103l0.665,-0.316l-0.665,-1.397l0,-2.747l0.09,-0.04l1.731,3.631Z" style="fill:#3f647f;fill-rule:nonzero;"/><path d="M1143.05,461.587l-1.203,-3.381l3.228,-1.537l0.441,0.928l-2.275,1.087l0.478,1.41l0.29,-0.382l0.463,-0.318c0.553,-0.272 1.065,-0.31 1.534,-0.113c0.472,0.197 0.853,0.607 1.147,1.222c0.266,0.553 0.316,1.1 0.16,1.628c-0.163,0.528 -0.557,0.941 -1.188,1.241c-0.531,0.256 -1.056,0.328 -1.575,0.215c-0.516,-0.106 -0.888,-0.418 -1.119,-0.934l-0.003,-0.025l1.091,-0.587l0.506,0.496l0.678,-0.056l0.456,-0.572c0.041,-0.253 -0.015,-0.534 -0.165,-0.846c-0.16,-0.335 -0.356,-0.569 -0.588,-0.704l-0.756,-0.012l-0.453,0.369l-0.094,0.453l-1.053,0.418Z" style="fill:#3f647f;fill-rule:nonzero;"/><path d="M1159.75,449.566l0.631,-0.225l0.641,-0.085l0.2,0.95l-0.534,0.088l-0.494,0.178c-0.356,0.169 -0.572,0.434 -0.663,0.8c-0.087,0.366 -0.012,0.778 0.228,1.237l0.022,0.013l0.341,-0.553l0.616,-0.435l0.503,-0.165l0,1.106l-0.391,0.084l-0.5,0.363l-0.213,0.45l0.185,0.387c0.219,0.457 0.469,0.769 0.75,0.938l0.169,0.081l0,1.106l-0.694,-0.153c-0.585,-0.228 -1.05,-0.712 -1.4,-1.447l-0.541,-1.128c-0.359,-0.759 -0.428,-1.465 -0.206,-2.122c0.225,-0.656 0.675,-1.146 1.35,-1.468Zm1.491,1.803c0.334,-0.063 0.659,-0.016 0.975,0.137c0.465,0.225 0.837,0.625 1.109,1.194c0.278,0.584 0.325,1.153 0.147,1.703c-0.184,0.55 -0.563,0.966 -1.138,1.238c-0.368,0.178 -0.737,0.259 -1.093,0.243l0,-1.106l0.672,-0.025c0.237,-0.116 0.375,-0.315 0.415,-0.603c0.041,-0.288 -0.012,-0.588 -0.162,-0.897c-0.15,-0.322 -0.347,-0.547 -0.588,-0.675l-0.337,-0.103l0,-1.106Z" style="fill:#3f647f;fill-rule:nonzero;"/><path d="M1176.88,445l0.022,-0.012l0.006,-1.682l1.313,-0.625l-0.281,2.744l2.375,1.537l-1.307,0.622l-1.384,-1.09l-0.025,1.762l-1.309,0.625l0.303,-2.815l-2.313,-1.504l1.303,-0.621l1.297,1.059Z" style="fill:#3f647f;fill-rule:nonzero;"/><path d="M1137.98,486.319l-1.162,0.553l-2.269,-4.763l-1.178,0.563l-0.391,-0.819l2.238,-1.322l2.762,5.788Z" style="fill:#3f647f;fill-rule:nonzero;"/><path d="M1155.53,477.953l-3.953,1.885l-0.363,-0.76l0.916,-2.9c0.122,-0.441 0.191,-0.791 0.203,-1.062l-0.112,-0.675l-0.482,-0.504l-0.672,0.035l-0.478,0.562c-0.053,0.247 -0.006,0.522 0.135,0.825l-1.125,0.538l-0.022,-0.019c-0.263,-0.516 -0.3,-1.04 -0.116,-1.569c0.185,-0.534 0.578,-0.943 1.182,-1.231c0.596,-0.284 1.137,-0.353 1.628,-0.206c0.487,0.147 0.853,0.481 1.1,0.997c0.168,0.35 0.225,0.719 0.175,1.103c-0.054,0.39 -0.185,0.928 -0.4,1.619l-0.491,1.615l0.019,0.019l2.431,-1.163l0.425,0.891Z" style="fill:#3f647f;fill-rule:nonzero;"/><path d="M1167.23,468.213l0.653,-0.31l0.51,-0.509l-0.091,-0.697l-0.466,-0.466l-0.675,0.066l-0.459,0.453l0.019,0.606l-1.125,0.535l-0.022,-0.019c-0.231,-0.447 -0.235,-0.903 -0.013,-1.369c0.222,-0.469 0.603,-0.831 1.141,-1.087c0.6,-0.285 1.144,-0.369 1.638,-0.253c0.493,0.115 0.865,0.437 1.118,0.968c0.122,0.25 0.153,0.531 0.103,0.832c-0.05,0.303 -0.184,0.584 -0.403,0.843c0.375,-0.037 0.703,0.022 0.985,0.175c0.281,0.156 0.497,0.391 0.643,0.703c0.253,0.532 0.26,1.038 0.019,1.528c-0.241,0.485 -0.662,0.872 -1.262,1.16c-0.538,0.256 -1.069,0.334 -1.591,0.234c-0.519,-0.103 -0.897,-0.415 -1.134,-0.94l-0.003,-0.029l1.124,-0.537l0.504,0.437l0.706,-0.068l0.528,-0.528l-0.056,-0.713c-0.144,-0.306 -0.328,-0.494 -0.547,-0.562c-0.222,-0.072 -0.478,-0.035 -0.775,0.109l-0.653,0.309l-0.416,-0.871Z" style="fill:#3f647f;fill-rule:nonzero;"/><path d="M1185.93,461.006l-2.241,1.072l-0.424,-0.897l2.237,-1.069l0.428,0.894Z" style="fill:#3f647f;fill-rule:nonzero;"/><path d="M1143.37,502.525l-0.294,-0.097c-0.541,-0.228 -0.994,-0.722 -1.359,-1.49l-0.61,-1.276c-0.362,-0.762 -0.462,-1.428 -0.303,-1.993c0.16,-0.566 0.541,-0.994 1.144,-1.281c0.494,-0.235 0.965,-0.294 1.422,-0.182l0,1.322l-0.247,-0.209l-0.747,-0.038l-0.447,0.603c-0.034,0.279 0.063,0.647 0.281,1.11l0.716,1.503c0.147,0.303 0.294,0.537 0.444,0.709l0,1.319Zm2.262,-3.456c0.366,0.769 0.466,1.431 0.307,1.997c-0.163,0.562 -0.544,0.987 -1.144,1.272c-0.494,0.237 -0.972,0.3 -1.425,0.187l0,-1.319l0.25,0.213l0.753,0.031l0.437,-0.6c0.038,-0.278 -0.059,-0.65 -0.278,-1.119l-0.719,-1.506c-0.143,-0.297 -0.29,-0.531 -0.443,-0.697l0,-1.322l0.293,0.1c0.544,0.228 0.997,0.725 1.36,1.491l0.609,1.272Z" style="fill:#3f647f;fill-rule:nonzero;"/><path d="M1158.51,491.766l-0.053,-0.775c0.091,-0.254 0.278,-0.447 0.563,-0.582c0.293,-0.14 0.562,-0.165 0.815,-0.078l0.572,0.528l0.169,0.36l0.053,0.769c-0.094,0.246 -0.281,0.437 -0.572,0.575c-0.287,0.14 -0.559,0.165 -0.809,0.081l-0.566,-0.522l-0.172,-0.356Z" style="fill:#3f647f;fill-rule:nonzero;"/><path d="M1176.06,483.362l1.432,-0.681l0.478,1l-1.431,0.685l0.784,1.643l-1.097,0.525l-0.784,-1.646l-1.441,0.687l-0.478,-1.003l1.441,-0.684l-0.744,-1.566l1.094,-0.525l0.746,1.565Z" style="fill:#3f647f;fill-rule:nonzero;"/><path d="M1191.91,477.031l0,1.116l-1.153,0.55l-0.437,-0.91l1.59,-0.756Zm0,-0.987l-1.972,0.94l-0.434,-0.909l2.406,-1.15l0,1.119Zm0,2.103l0,-1.116l1.972,-0.944l0.435,0.91l-2.407,1.15Zm1.588,-2.859l-1.588,0.756l0,-1.119l1.157,-0.55l0.431,0.913Z" style="fill:#3f647f;fill-rule:nonzero;"/><path d="M304.431,472.475c-6.509,-0.372 -99.297,-8.703 -114.359,-9.603c-15.066,-0.9 -30.641,14.484 -37.653,21.497c-6.985,6.993 2.703,8.272 5.972,5c7.546,-7.55 20.006,-20.578 34.9,-20.203c14.893,0.371 109.178,10.168 111.872,10.459c2.312,0.25 2.403,-6.972 -0.732,-7.15Z" style="fill:#637279;"/><path d="M158.869,457.888c6.456,0.928 99.053,11.171 113.994,13.278c14.94,2.106 27.156,20.278 32.637,28.543c5.459,8.238 -4.291,7.569 -6.844,3.713c-5.9,-8.894 -15.528,-24.138 -30.2,-26.725c-14.669,-2.591 -109.025,-11.694 -111.722,-11.944c-2.315,-0.215 -0.971,-7.309 2.135,-6.865Z" style="fill:#637279;"/><path d="M161.806,457.356c3.725,-1.825 15.022,-2.647 26.197,-1.372l0,-3.572c-13.562,-1.587 -27.959,-0.809 -32.303,1.322c-1.278,1.047 -3.178,3.479 -4.35,7.613c-0.2,0.697 1.594,1.737 1.444,2.534c-0.585,3.091 -0.763,6.935 -0.153,11.619c1.665,12.794 18.225,22.728 35.362,23.306l0,-2.9c-14.9,-0.756 -29.215,-9.965 -30.528,-20.062c-1.463,-11.222 2.319,-16.844 4.331,-18.488Zm26.197,-1.372c5.719,0.653 11.403,1.857 16.025,3.757c13.653,5.612 18.131,12.525 12.388,21.918c-6.71,10.979 -17.713,14.791 -28.413,14.247l0,2.9c12.622,0.425 25.559,-4.225 33.097,-16.556c3.391,-5.55 0.228,-0.381 0.338,-0.569c1.496,-2.134 5.306,-3.787 8.896,-3.356c3.604,0.287 7.01,2.666 8.053,5.056c0.072,0.207 -2.003,-5.487 0.219,0.625c5.647,15.525 20.21,22.616 34.538,23.385l0,-3.007c-12.26,-0.375 -24.769,-6.118 -29.831,-20.031c-3.763,-10.347 1.996,-16.228 16.49,-19.025c4.019,-0.775 8.647,-0.95 13.341,-0.712l0,-3.541c-2.653,-0.125 -5.253,-0.144 -7.722,-0.028l0,-0.003c-6.225,0.122 -17.597,2.287 -33.428,0.722c-15.832,-1.607 -26.544,-5.985 -32.622,-7.338c-3.538,-0.887 -7.419,-1.553 -11.369,-2.016l0,3.572Zm85.141,51.407l0,-3.007c13.228,0.407 26.159,-5.44 29.094,-14.034c3.656,-10.709 1.068,-16.969 -0.579,-18.981c-3.593,-2.763 -16.284,-6.147 -28.515,-6.753l0,-3.541c14.715,0.7 31.025,4.728 35.219,7.956c1.046,1.278 2.425,4.041 2.756,8.325c0.056,0.722 -1.913,1.388 -1.922,2.197c-0.041,3.147 -0.628,6.947 -2.156,11.419c-3.729,10.919 -18.682,17.234 -33.897,16.419Z" style="fill:#637279;"/><path d="M301.659,471.369c-4.971,-3.822 -27.359,-8.835 -41.856,-6.041c-14.494,2.797 -20.253,8.678 -16.49,19.025c10.521,28.928 53.271,22.55 58.925,5.997c3.656,-10.709 1.068,-16.969 -0.579,-18.981Z" style="fill:#f5c086;"/><path d="M302.303,472.319c-7.172,-0.56 -28.859,-2.457 -51.444,-4.413c-3.396,1.447 -5.815,3.275 -7.218,5.528c26.606,2.575 54.559,5.463 60.443,6.078c-0.106,-3.356 -0.95,-5.746 -1.781,-7.193Z" style="fill:#9fa3a4;"/><path d="M249.859,468.356c10.785,1.263 19.291,2.288 23.004,2.81c11.64,1.64 21.628,13.034 28.062,21.896c-1.297,2.063 -3.194,3.913 -5.522,5.494c-5.981,-8.74 -14.712,-19.7 -26.947,-21.859c-3.847,-0.681 -13.184,-1.809 -24.909,-3.106c1.25,-2.097 3.362,-3.828 6.312,-5.235Z" style="fill:#9fa3a4;"/><path d="M161.806,457.356c5.632,-2.759 28.569,-3.231 42.222,2.385c13.653,5.612 18.131,12.525 12.388,21.918c-16.054,26.266 -56.688,11.532 -58.941,-5.812c-1.463,-11.225 2.319,-16.847 4.331,-18.491Z" style="fill:#f5c086;"/><path d="M160.984,458.159c7.141,0.872 28.772,3.316 51.297,5.882c3.047,2.093 5.05,4.362 5.982,6.85c-26.588,-2.757 -54.557,-5.469 -60.447,-6.035c0.768,-3.269 2.068,-5.447 3.168,-6.697Z" style="fill:#9fa3a4;"/><path d="M213.175,464.681c-10.822,-0.906 -19.362,-1.587 -23.103,-1.809c-11.738,-0.703 -23.784,8.481 -31.85,15.891c0.862,2.278 2.353,4.468 4.322,6.481c7.597,-7.382 18.328,-16.391 30.747,-16.078c3.909,0.093 13.284,0.843 25.034,1.897c-0.809,-2.301 -2.537,-4.419 -5.15,-6.382Z" style="fill:#9fa3a4;"/><path d="M176.028,458.575c-11.381,-1.556 -17.303,4.244 -15.031,15.634c1.372,-8.328 8.656,-14.978 15.031,-15.634Z" style="fill:#ffe7d1;"/><path d="M167.794,458.963l4.697,0.543c-2.788,1.163 -5.513,3.288 -7.635,6.032l-3.659,-0.357c1.056,-3.118 3.319,-5.231 6.597,-6.218Z" style="fill:#dcdbda;"/><path d="M264.681,468.881c-11.381,-1.559 -17.303,4.241 -15.031,15.635c1.372,-8.332 8.656,-14.979 15.031,-15.635Z" style="fill:#ffe7d1;"/><path d="M256.787,469.175l4.582,0.544c-2.51,0.997 -4.982,2.778 -7.016,5.1l-4.044,-0.469c1.235,-2.597 3.438,-4.353 6.478,-5.175Z" style="fill:#dcdbda;"/><path d="M819.172,432.434l-9.125,-11.262l14.472,0.859l96.244,49.444c1.559,0.803 2.181,2.734 1.378,4.294l-2.428,4.731c-0.804,1.559 -2.735,2.178 -4.294,1.378l-96.247,-49.444Z" style="fill:#4d7d9a;"/><path d="M819.172,432.434l-9.125,-11.262l12.272,6.303l98.609,50.659l-1.215,2.366c-0.8,1.559 -2.735,2.178 -4.294,1.378l-96.247,-49.444Z" style="fill:#3f647f;"/><path d="M819.172,432.434l-9.125,-11.262l14.472,0.859l92.065,47.3c-1.259,3.981 -3.056,7.41 -5.343,10.4l-92.069,-47.297Z" style="fill:#fff;"/><path d="M819.172,432.434l-9.125,-11.262l12.272,6.303l92.05,47.291c-0.91,1.781 -1.953,3.431 -3.128,4.965l-92.069,-47.297Z" style="fill:#c7c6c5;"/><path d="M819.172,432.434l-9.125,-11.262l14.472,0.859l88.75,45.594c-1.228,4.025 -3.025,7.453 -5.347,10.403l-88.75,-45.594Z" style="fill:#dc7e67;"/><path d="M819.172,432.434l-9.125,-11.262l12.272,6.303l88.765,45.603c-0.912,1.788 -1.968,3.431 -3.162,4.95l-88.75,-45.594Z" style="fill:#c4563f;"/><path d="M819.172,432.434l-9.125,-11.262l14.472,0.859c-0.544,1.81 -1.275,3.641 -2.2,5.444c-0.928,1.803 -1.988,3.462 -3.147,4.959Z" style="fill:#e5a56b;"/><path d="M819.172,432.434l-9.125,-11.262l12.272,6.303c-0.928,1.803 -1.988,3.462 -3.147,4.959Z" style="fill:#be8551;"/><path d="M813.062,424.891l-3.015,-3.719l4.781,0.281c-0.181,0.6 -0.425,1.203 -0.728,1.8c-0.303,0.597 -0.656,1.144 -1.038,1.638Z" style="fill:#211e24;"/><path d="M630.981,275.325l3.2,-3.113c0.291,-0.284 0.756,-0.278 1.041,0.016l18.35,18.869c0.281,0.29 0.272,0.756 -0.016,1.04l-3.203,3.113c-0.287,0.281 -0.756,0.275 -1.037,-0.016l-18.35,-18.868c-0.285,-0.291 -0.278,-0.757 0.015,-1.041Z" style="fill:#c7ced7;"/><path d="M643.356,278.616l0.003,-0.004l-0.003,0.004Zm0.003,2.581l-0.49,-0.316c-0.494,-0.509 -0.485,-1.322 0.028,-1.815c0.312,-0.307 0.394,-0.385 0.456,-0.447l0.006,-0.007l0,2.585Zm0,-2.585l0,-0.003l0,0.003Zm1.325,2.294c-0.362,0.353 -0.878,0.447 -1.325,0.291l0,-2.585l0,-0.003c1.875,-1.89 4.082,-4.112 8.228,-1.559c1.713,1.056 8.319,7.556 15.226,14.644c8.446,8.668 17.412,18.284 18.381,19.831c0.637,1.019 0.981,1.734 1.115,2.309c0.225,0.95 -0.009,1.553 -0.54,2.097c-0.925,0.957 -2.472,0.613 -3.847,-0.206c-0.416,-0.247 -0.828,-0.537 -1.194,-0.837c-0.372,-0.307 -0.706,-0.635 -0.959,-0.944c-0.657,-0.81 -0.825,-1.65 -0.253,-2.353c0.446,-0.547 1.256,-0.628 1.803,-0.178c0.3,0.243 0.459,0.6 0.468,0.959l0.569,0.537c0.266,0.216 0.569,0.432 0.882,0.616l0.296,0.241c-0.128,-0.241 -0.296,-0.532 -0.515,-0.882c-0.897,-1.431 -9.7,-10.85 -18.041,-19.409c-6.775,-6.953 -13.2,-13.297 -14.74,-14.244c-2.413,-1.487 -3.847,-0.047 -5.063,1.182l-0.006,0.003l-0.485,0.49Z" style="fill:#c7ced7;fill-rule:nonzero;"/><path d="M637.053,284.062l5.694,-5.534c0.512,-0.5 1.344,-0.49 1.847,0.025l93.615,96.275c1.972,2.025 22.272,25.385 21.1,26.522l-2.74,2.669c-1.007,0.978 -23.953,-19.806 -25.925,-21.835l-93.616,-96.272c-0.503,-0.515 -0.49,-1.346 0.025,-1.85Z" style="fill:#c4563f;"/><path d="M711.322,347.175l1.872,1.925l-7.569,7.359l-1.869,-1.928l7.566,-7.356Z" style="fill:#c7ced7;"/><path d="M708.044,343.806l1.875,1.925l-7.569,7.36l-1.872,-1.929l7.566,-7.356Z" style="fill:#c7ced7;"/><path d="M718.044,394.844c0.231,-0.316 0.675,-0.382 0.99,-0.147c0.316,0.231 0.382,0.675 0.15,0.987l-10.071,13.666c-1.357,1.841 -3.272,2.25 -4.997,1.778c-0.657,-0.181 -1.278,-0.484 -1.825,-0.887c-0.541,-0.404 -1.019,-0.907 -1.385,-1.482c-0.962,-1.503 -1.137,-3.456 0.219,-5.297l14.734,-19.993c1.157,-1.569 2.744,-1.953 4.154,-1.603c0.537,0.134 1.05,0.381 1.496,0.712c0.447,0.331 0.835,0.75 1.122,1.225c0.76,1.256 0.866,2.906 -0.3,4.484l-12.893,17.497c-0.894,1.213 -2.119,1.516 -3.207,1.247c-0.415,-0.1 -0.809,-0.29 -1.153,-0.547c-0.344,-0.256 -0.641,-0.578 -0.859,-0.943c-0.585,-0.972 -0.663,-2.25 0.24,-3.478l8.444,-11.46c0.234,-0.316 0.678,-0.381 0.994,-0.15c0.312,0.231 0.381,0.675 0.15,0.991l-8.447,11.462c-0.509,0.691 -0.481,1.388 -0.172,1.907l0.491,0.534l0.653,0.309c0.569,0.141 1.225,-0.034 1.725,-0.715l12.894,-17.494c0.768,-1.044 0.715,-2.113 0.231,-2.909c-0.191,-0.322 -0.45,-0.6 -0.75,-0.826c-0.3,-0.218 -0.644,-0.384 -1.003,-0.474c-0.891,-0.222 -1.906,0.04 -2.669,1.075l-14.734,19.99c-0.954,1.294 -0.835,2.656 -0.169,3.7c0.265,0.416 0.625,0.791 1.037,1.094c0.413,0.309 0.878,0.537 1.357,0.669c1.19,0.325 2.528,0.034 3.481,-1.257l10.072,-13.665Z" style="fill:#fff;fill-rule:nonzero;"/></g></svg>