<svg width="80" height="80" viewBox="0 0 80 80" fill="none" xmlns="http://www.w3.org/2000/svg">
<path d="M40 80C62.0914 80 80 62.0914 80 40C80 17.9086 62.0914 0 40 0C17.9086 0 0 17.9086 0 40C0 62.0914 17.9086 80 40 80Z" fill="#6EB1E1"/>
<path d="M63.3289 4.84692H16.6712C15.4461 4.84692 14.4874 5.8056 14.4874 6.97743V73.0758C14.4874 74.2477 15.4461 75.2063 16.6712 75.2063H63.3822C64.6073 75.2063 65.566 74.2477 65.566 73.0758V6.97743C65.5127 5.75234 64.5539 4.84692 63.3289 4.84692Z" fill="#F1F3F7"/>
<path d="M37.8163 30.2529H20.1865V47.8827H37.8163V30.2529Z" fill="#0090FF"/>
<path d="M59.8135 30.2529H42.1837V47.8827H59.8135V30.2529Z" fill="#73D658"/>
<path d="M37.8163 51.7177H20.1865V69.3475H37.8163V51.7177Z" fill="#F0582F"/>
<path d="M59.8135 51.7177H42.1837V69.3475H59.8135V51.7177Z" fill="#FBD303"/>
<path d="M59.8136 10.7058H20.1865V25.5126H59.8136V10.7058Z" fill="#4484C5"/>
<path d="M59.8136 24.2876H20.1865V25.5126H59.8136V24.2876Z" fill="#397CB2"/>
<path d="M23.2756 61.9973H27.5366V66.2583H30.4128V61.9973H34.7269V59.0146H30.4128V54.7536H27.5366V59.0146H23.2756V61.9973Z" fill="#FFFFFC"/>
<path d="M44.7935 45.0067H48.4686L50.9188 41.3316L53.3688 45.0067H57.2036L52.8361 38.7217L56.8309 33.1291H53.1558L50.9188 36.3782L48.8415 33.1291H45.0067L49.1078 38.8814L44.7935 45.0067Z" fill="#FFFFFC"/>
<path d="M56.7244 55.7655H45.2729V58.6417H56.7244V55.7655Z" fill="#FFFFFC"/>
<path d="M56.7244 62.3168H45.2729V65.193H56.7244V62.3168Z" fill="#FFFFFC"/>
<path d="M33.8747 37.4966H24.1278V40.639H33.8747V37.4966Z" fill="#FFFFFC"/>
</svg>
