<?xml version="1.0" encoding="UTF-8" standalone="no"?><!DOCTYPE svg PUBLIC "-//W3C//DTD SVG 1.1//EN" "http://www.w3.org/Graphics/SVG/1.1/DTD/svg11.dtd"><svg width="100%" height="100%" viewBox="0 0 535 540" version="1.1" xmlns="http://www.w3.org/2000/svg" xmlns:xlink="http://www.w3.org/1999/xlink" xml:space="preserve" xmlns:serif="http://www.serif.com/" style="fill-rule:evenodd;clip-rule:evenodd;stroke-linejoin:round;stroke-miterlimit:1.41421;"><rect id="data" x="0" y="0" width="534.303" height="538.572" style="fill:none;"/><clipPath id="_clip1"><rect x="0" y="0" width="534.303" height="538.572"/></clipPath><g clip-path="url(#_clip1)"><path d="M534.309,282.051c0,147.544 -119.624,267.15 -267.165,267.15c-147.541,0 -267.15,-119.606 -267.15,-267.15c0,-147.54 119.609,-267.153 267.15,-267.153c147.541,0 267.165,119.613 267.165,267.153Z" style="fill:#ffda81;fill-rule:nonzero;"/><path d="M120.6,461.801c-4.828,-3.94 -9.494,-8.072 -13.984,-12.378l6.606,-6.887c4.309,4.131 8.781,8.093 13.409,11.871l-6.031,7.394Zm-26.928,-25.834c-4.131,-4.65 -8.078,-9.472 -11.828,-14.447l7.622,-5.744c3.596,4.772 7.378,9.394 11.34,13.853l-7.134,6.338Zm-22.456,-29.791c-3.332,-5.244 -6.453,-10.631 -9.363,-16.15l8.444,-4.447c2.787,5.291 5.784,10.453 8.975,15.482l-8.056,5.115Zm-17.391,-32.997c-2.437,-5.697 -4.653,-11.512 -6.637,-17.437l9.05,-3.031c1.9,5.678 4.025,11.253 6.362,16.715l-8.775,3.753Zm430.922,-10.781l0,-7.741l2.437,0.813c-0.781,2.325 -1.562,4.637 -2.437,6.928Zm-442.766,-24.587c-1.484,-6.01 -2.731,-12.113 -3.737,-18.297l9.422,-1.528c0.962,5.928 2.159,11.775 3.581,17.537l-9.266,2.288Zm450.391,-0.282l-7.625,-1.868l0,-7.65c0.719,-3.404 1.375,-6.838 1.937,-10.3l9.407,1.518c-1,6.185 -2.25,12.288 -3.719,18.3Zm-456.378,-36.547c-0.497,-6.153 -0.753,-12.371 -0.76,-18.65l9.541,-0.012c0.009,6.025 0.256,11.991 0.731,17.894l-9.512,0.768Zm462.316,-0.287l-9.501,-0.756c0.469,-5.9 0.719,-11.869 0.719,-17.891l0,-0.541l9.532,-0.021l0,0.562c0,6.275 -0.251,12.494 -0.75,18.647Zm-452.847,-36.266l-9.513,-0.747c0.491,-6.253 1.228,-12.434 2.203,-18.537l9.425,1.506c-0.937,5.853 -1.644,11.781 -2.115,17.778Zm443.315,-0.815c-0.5,-5.994 -1.25,-11.919 -2.187,-17.769l9.406,-1.541c1,6.1 1.75,12.282 2.281,18.532l-9.5,0.778Zm-437.662,-34.51l-9.269,-2.262c1.484,-6.081 3.209,-12.066 5.162,-17.947l9.057,3.009c-1.872,5.635 -3.525,11.372 -4.95,17.2Zm433.631,-1.231l0,-18.697l0,-0.003l-0.25,-0.241l2.531,-0.843c1.969,5.875 3.719,11.853 5.219,17.928l-7.5,1.856Zm-422.35,-32.728l-8.781,-3.734c2.443,-5.75 5.112,-11.385 7.997,-16.885l8.453,4.428c-2.766,5.275 -5.325,10.675 -7.669,16.191Zm409.194,-0.722c-2.375,-5.5 -4.938,-10.884 -7.719,-16.144l8.437,-4.459c2.907,5.487 5.594,11.103 8.032,16.837l-8.75,3.766Zm-392.575,-30.984l-8.069,-5.097c3.331,-5.272 6.869,-10.403 10.603,-15.375l7.631,5.728c-3.578,4.769 -6.972,9.687 -10.165,14.744Zm375.856,-0.632c-3.219,-5.043 -6.625,-9.946 -10.219,-14.703l7.622,-5.753c3.753,4.959 7.316,10.072 10.659,15.331l-8.062,5.125Zm-354.372,-27.993l-7.15,-6.322c4.125,-4.666 8.434,-9.163 12.919,-13.482l6.622,6.872c-4.3,4.141 -8.435,8.457 -12.391,12.932Zm332.809,-0.55c-3.968,-4.46 -8.124,-8.76 -12.437,-12.888l6.594,-6.897c4.496,4.307 8.84,8.788 12.969,13.441l-7.126,6.344Zm-307.037,-24.278l-6.05,-7.382c4.809,-3.94 9.781,-7.694 14.9,-11.247l5.441,7.844c-4.913,3.406 -9.679,7.003 -14.291,10.785Zm281.194,-0.466c-4.657,-3.766 -9.441,-7.35 -14.344,-10.744l5.406,-7.859c5.125,3.537 10.125,7.275 14.938,11.203l-6,7.4Zm-251.8,-19.922l-4.791,-8.253c5.369,-3.116 10.875,-6.025 16.506,-8.713l4.11,8.613c-5.397,2.578 -10.675,5.366 -15.825,8.353Zm222.3,-0.378c-5.156,-2.975 -10.438,-5.747 -15.875,-8.306l4.094,-8.628c5.656,2.672 11.156,5.562 16.562,8.665l-4.781,8.269Zm-190.032,-15.019l-3.4,-8.919c5.794,-2.209 11.7,-4.19 17.704,-5.94l2.665,9.165c-5.756,1.675 -11.415,3.575 -16.969,5.694Zm157.688,-0.284c-5.563,-2.097 -11.25,-3.978 -17,-5.631l2.625,-9.176c6.031,1.729 11.937,3.688 17.719,5.879l-3.344,8.928Zm-123.341,-9.709l-0.003,0l-1.912,-9.351c6.059,-1.24 12.203,-2.246 18.425,-3.003l1.156,9.472c-5.966,0.728 -11.859,1.691 -17.666,2.882Zm88.947,-0.16c-5.812,-1.169 -11.709,-2.112 -17.678,-2.819l1.122,-9.475c6.225,0.735 12.375,1.719 18.437,2.938l-1.881,9.356Zm-53.437,-4.175l-0.394,-9.534c3.234,-0.135 6.484,-0.203 9.75,-0.203c2.984,0 5.956,0.056 8.915,0.168l-0.362,9.538c-2.837,-0.11 -5.687,-0.163 -8.553,-0.163c-3.134,0 -6.253,0.066 -9.356,0.194Z" style="fill:#f6e9c0;fill-rule:nonzero;"/><path d="M128.119,347.151c-1.053,-1.887 -2.069,-3.8 -3.044,-5.734l3.044,-1.538l0,7.272Zm-10.438,-22.772c-2.115,-5.778 -3.909,-11.715 -5.353,-17.784l9.285,-2.209c1.356,5.706 3.04,11.281 5.028,16.712l-8.96,3.281Zm-8.59,-36.068c-0.716,-6.079 -1.088,-12.263 -1.1,-18.529l9.54,-0.018c0.013,5.9 0.366,11.715 1.038,17.434l-0.003,0l-9.475,1.113Zm9.406,-35.985l-9.481,-1.075c0.706,-6.212 1.768,-12.319 3.165,-18.297l9.291,2.172c-1.313,5.619 -2.309,11.36 -2.975,17.2Zm7.941,-33.944l-8.972,-3.243c2.115,-5.86 4.565,-11.557 7.328,-17.072l3.325,1.665l0,14.222c-0.581,1.466 -1.144,2.941 -1.681,4.428Zm209.121,-93.618l-5.937,0l0.937,-2.235c1.688,0.716 3.344,1.463 5,2.235Zm-24.996,0l-2.335,0c-4.853,-1.357 -9.809,-2.472 -14.85,-3.338l1.616,-9.406c6.156,1.059 12.194,2.469 18.087,4.209l-2.518,8.535Zm-83.291,0l-3.291,0l-2.493,-8.257c5.887,-1.778 11.912,-3.225 18.062,-4.318l1.675,9.393c-4.734,0.844 -9.387,1.907 -13.953,3.182Zm-22.41,0l-4.912,0c1.356,-0.638 2.725,-1.257 4.103,-1.857l0.809,1.857Zm53.701,-5.241l-0.576,-9.525c3.229,-0.194 6.485,-0.294 9.763,-0.294c2.95,0 5.884,0.082 8.797,0.241l-0.519,9.528c-2.741,-0.15 -5.5,-0.225 -8.278,-0.225c-3.087,0 -6.15,0.094 -9.187,0.275Z" style="fill:#f6e9c0;fill-rule:nonzero;"/><path d="M267.144,549.201c-50.925,0 -98.525,-14.25 -139.025,-38.978l0,-163.072c1.966,3.525 4.059,6.966 6.278,10.316l7.959,-5.263c-3.203,-4.84 -6.131,-9.878 -8.765,-15.09l-5.472,2.765l0,-125.925c1.575,-3.959 3.316,-7.834 5.209,-11.618l-5.209,-2.604l0,-74.968l71.831,0c-4.256,2 -8.412,4.178 -12.453,6.531l4.8,8.247c5.012,-2.916 10.206,-5.55 15.566,-7.885l-3.001,-6.893l19.119,0l0.266,0.878c1.003,-0.303 2.013,-0.594 3.025,-0.878l80.956,0c0.719,0.2 1.438,0.406 2.15,0.618l0.185,-0.618l19.059,0l-2.813,6.537c5.376,2.303 10.594,4.909 15.625,7.8l4.75,-8.278c-3.781,-2.172 -7.656,-4.194 -11.625,-6.059l58.219,0l0,0.003l0,-0.003l90.719,84.168l-6.531,2.197c1.906,5.632 3.562,11.363 5,17.185l1.781,-0.441l0,100.138c-0.5,2.431 -1.063,4.843 -1.625,7.243l1.625,0.407l0,18.996l-6.594,-2.206c-1.906,5.688 -4.031,11.275 -6.378,16.75l8.784,3.744c1.5,-3.472 2.876,-6.991 4.188,-10.547l0,74.65c-48.441,67.891 -127.844,112.153 -217.603,112.153Zm-26.672,-46.365l-1.131,9.475c6.134,0.734 12.34,1.225 18.609,1.471l0.372,-9.537c-6.016,-0.234 -11.969,-0.706 -17.85,-1.409Zm53.606,-0.032c-5.881,0.71 -11.831,1.191 -17.847,1.432l0.385,9.534c6.269,-0.25 12.472,-0.75 18.606,-1.491l-1.144,-9.475Zm-88.665,-7.065l-2.644,9.168c5.95,1.716 12,3.2 18.137,4.444l1.894,-9.356c-5.884,-1.191 -11.681,-2.613 -17.387,-4.256Zm123.709,-0.072c-5.688,1.653 -11.494,3.081 -17.375,4.278l1.903,9.35c6.138,-1.247 12.191,-2.738 18.128,-4.463l-2.656,-9.165Zm-157.175,-12.6l-4.091,8.622c5.613,2.662 11.347,5.106 17.194,7.322l3.378,-8.925c-5.603,-2.122 -11.103,-4.466 -16.481,-7.019Zm190.612,-0.097c-5.374,2.553 -10.875,4.897 -16.468,7.022l3.406,8.922c5.844,-2.219 11.562,-4.666 17.156,-7.328l-4.094,-8.616Zm-221.609,-17.803l-5.422,7.853c5.116,3.531 10.381,6.866 15.785,9.987l4.775,-8.265c-5.182,-2.994 -10.232,-6.188 -15.138,-9.575Zm252.547,-0.116c-4.875,3.391 -9.937,6.588 -15.094,9.585l4.782,8.259c5.374,-3.125 10.656,-6.463 15.749,-9.997l-5.437,-7.847Zm27.719,-22.65c-4.313,4.138 -8.785,8.1 -13.407,11.881l6.032,7.388c4.84,-3.944 9.496,-8.075 13.968,-12.388l-6.593,-6.881Zm23.718,-26.784c-3.597,4.778 -7.375,9.403 -11.312,13.869l7.125,6.331c4.122,-4.656 8.059,-9.481 11.813,-14.46l-7.626,-5.74Zm-203.115,1.831l-1.635,9.4c6.038,1.05 12.194,1.763 18.444,2.116l0.538,-9.528c-5.882,-0.332 -11.669,-1 -17.347,-1.988Zm52.156,-0.053c-5.678,1 -11.462,1.678 -17.344,2.022l0.557,9.528c6.25,-0.366 12.403,-1.088 18.44,-2.15l-1.653,-9.4Zm-85.566,-9.894l-3.771,8.766c5.659,2.437 11.49,4.556 17.465,6.334l2.725,-9.147c-5.619,-1.672 -11.097,-3.662 -16.419,-5.953Zm118.932,-0.115c-5.313,2.3 -10.772,4.303 -16.381,5.984l2.74,9.141c5.969,-1.791 11.797,-3.919 17.453,-6.366l-3.812,-8.759Zm-149.138,-17.307l-5.694,7.66c4.96,3.687 10.141,7.097 15.522,10.2l4.769,-8.266c-5.059,-2.919 -9.931,-6.122 -14.597,-9.594Zm179.294,-0.156c-4.656,3.475 -9.5,6.688 -14.562,9.613l4.781,8.256c5.375,-3.113 10.562,-6.528 15.5,-10.222l-5.719,-7.647Zm106.594,-4.544c-2.785,5.3 -5.782,10.472 -8.969,15.507l8.059,5.106c3.347,-5.25 6.472,-10.644 9.375,-16.169l-8.465,-4.444Zm-311.279,-19.193l-7.3,6.146c3.994,4.738 8.254,9.241 12.763,13.485l6.541,-6.95c-4.241,-3.991 -8.25,-8.225 -12.004,-12.681Zm230.029,-0.204c-3.719,4.463 -7.75,8.704 -11.969,12.704l6.562,6.937c4.5,-4.25 8.75,-8.759 12.719,-13.506l-7.312,-6.135Zm19.187,-29.125c-2.625,5.222 -5.531,10.269 -8.75,15.119l7.969,5.25c3.403,-5.159 6.528,-10.525 9.312,-16.081l-8.531,-4.288Zm11.934,-32.765c-1.371,5.712 -3.028,11.294 -4.999,16.734l8.968,3.263c2.097,-5.788 3.875,-11.728 5.316,-17.807l-9.285,-2.19Zm13.535,-35.272l-9.531,0.037l0,0.604c0,5.9 -0.344,11.718 -1,17.437l9.469,1.094c0.718,-6.081 1.062,-12.263 1.062,-18.531l0,-0.641Zm-4.406,-36.803l-9.282,2.228c1.341,5.612 2.376,11.344 3.094,17.184l9.469,-1.134c-0.75,-6.209 -1.847,-12.309 -3.281,-18.278Zm-12.813,-34.797l-8.5,4.322c2.625,5.169 4.938,10.509 6.969,16l8.969,-3.3c-2.16,-5.841 -4.656,-11.522 -7.438,-17.022Zm-265.153,-30.166c-3.965,4.744 -7.662,9.722 -11.066,14.913l7.978,5.234c3.201,-4.881 6.679,-9.562 10.41,-14.025l-7.322,-6.122Zm244.653,-0.709l-7.281,6.162c3.75,4.441 7.25,9.1 10.469,13.96l7.969,-5.278c-3.438,-5.169 -7.157,-10.122 -11.157,-14.844Zm-217.756,-24.797c-4.959,3.719 -9.697,7.716 -14.184,11.975l6.565,6.925c4.222,-4.006 8.678,-7.769 13.344,-11.262l-5.725,-7.638Zm190.694,-0.556l-5.657,7.669c4.688,3.471 9.157,7.209 13.407,11.19l6.531,-6.965c-4.531,-4.232 -9.281,-8.204 -14.281,-11.894Z" style="fill:#fdcb42;fill-rule:nonzero;"/><path d="M257.95,513.782c-6.269,-0.246 -12.475,-0.737 -18.609,-1.471l1.131,-9.475c5.881,0.703 11.834,1.175 17.85,1.409l-0.372,9.537Zm18.666,-0.012l-0.385,-9.534c6.016,-0.241 11.966,-0.722 17.847,-1.432l1.144,9.475c-6.134,0.741 -12.337,1.241 -18.606,1.491Zm-55.71,-4.419c-6.137,-1.244 -12.187,-2.728 -18.137,-4.444l2.644,-9.168c5.706,1.643 11.503,3.065 17.387,4.256l-1.894,9.356Zm92.744,-0.056l-1.903,-9.35c5.881,-1.197 11.687,-2.625 17.375,-4.278l2.656,9.165c-5.937,1.725 -11.99,3.216 -18.128,4.463Zm-128.6,-10.284c-5.847,-2.216 -11.581,-4.66 -17.194,-7.322l4.091,-8.622c5.378,2.553 10.878,4.897 16.481,7.019l-3.378,8.925Zm164.447,-0.097l-3.406,-8.922c5.593,-2.125 11.094,-4.469 16.468,-7.022l4.094,8.616c-5.594,2.662 -11.312,5.109 -17.156,7.328Zm-198.184,-15.907c-5.404,-3.121 -10.669,-6.456 -15.785,-9.987l5.422,-7.853c4.906,3.387 9.956,6.581 15.138,9.575l-4.775,8.265Zm231.872,-0.112l-4.782,-8.259c5.157,-2.997 10.219,-6.194 15.094,-9.585l5.437,7.847c-5.093,3.534 -10.375,6.872 -15.749,9.997Zm30.656,-21.225l-6.032,-7.388c4.622,-3.781 9.094,-7.743 13.407,-11.881l6.593,6.881c-4.472,4.313 -9.128,8.444 -13.968,12.388Zm26.906,-25.853l-7.125,-6.331c3.937,-4.466 7.715,-9.091 11.312,-13.869l7.626,5.74c-3.754,4.979 -7.691,9.804 -11.813,14.46Zm22.434,-29.825l-8.059,-5.106c3.187,-5.035 6.184,-10.207 8.969,-15.507l8.465,4.444c-2.903,5.525 -6.028,10.919 -9.375,16.169Zm17.378,-33.047l-8.784,-3.744c2.347,-5.475 4.472,-11.062 6.378,-16.75l6.594,2.206l0,7.741c-1.312,3.556 -2.688,7.075 -4.188,10.547Zm4.188,-37.284l-1.625,-0.407c0.562,-2.4 1.125,-4.812 1.625,-7.243l0,7.65Zm-1.781,-107.347c-1.438,-5.822 -3.094,-11.553 -5,-17.185l6.531,-2.197l0.25,0.241l0,18.7l-1.781,0.441Z" style="fill:#facf6e;fill-rule:nonzero;"/><path d="M258.628,428.964c-6.25,-0.353 -12.406,-1.066 -18.444,-2.116l1.635,-9.4c5.678,0.988 11.465,1.656 17.347,1.988l-0.538,9.528Zm18.56,-0.019l-0.557,-9.528c5.882,-0.344 11.666,-1.022 17.344,-2.022l1.653,9.4c-6.037,1.062 -12.19,1.784 -18.44,2.15Zm-55.085,-6.344c-5.975,-1.778 -11.806,-3.897 -17.465,-6.334l3.771,-8.766c5.322,2.291 10.8,4.281 16.419,5.953l-2.725,9.147Zm91.597,-0.09l-2.74,-9.141c5.609,-1.681 11.068,-3.684 16.381,-5.984l3.812,8.759c-5.656,2.447 -11.484,4.575 -17.453,6.366Zm-125.669,-14.572c-5.381,-3.103 -10.562,-6.513 -15.522,-10.2l5.694,-7.66c4.666,3.472 9.538,6.675 14.597,9.594l-4.769,8.266Zm159.685,-0.147l-4.781,-8.256c5.062,-2.925 9.906,-6.138 14.562,-9.613l5.719,7.647c-4.938,3.694 -10.125,7.109 -15.5,10.222Zm-189.441,-21.975c-4.509,-4.244 -8.769,-8.747 -12.763,-13.485l7.3,-6.146c3.754,4.456 7.763,8.69 12.004,12.681l-6.541,6.95Zm219.159,-0.194l-6.562,-6.937c4.219,-4 8.25,-8.241 11.969,-12.704l7.312,6.135c-3.969,4.747 -8.219,9.256 -12.719,13.506Zm-243.037,-28.156c-2.219,-3.35 -4.312,-6.791 -6.278,-10.316l0,-7.272l5.472,-2.765c2.634,5.212 5.562,10.25 8.765,15.09l-7.959,5.263Zm266.85,-0.241l-7.969,-5.25c3.219,-4.85 6.125,-9.897 8.75,-15.119l8.531,4.288c-2.784,5.556 -5.909,10.922 -9.312,16.081Zm16.684,-33.137l-8.968,-3.263c1.971,-5.44 3.628,-11.022 4.999,-16.734l9.285,2.19c-1.441,6.079 -3.219,12.019 -5.316,17.807Zm8.504,-36.097l-9.469,-1.094c0.656,-5.719 1,-11.537 1,-17.437l0,-0.604l9.531,-0.037l0,0.641c0,6.268 -0.344,12.45 -1.062,18.531Zm-9.532,-36.563c-0.718,-5.84 -1.753,-11.572 -3.094,-17.184l9.282,-2.228c1.434,5.969 2.531,12.069 3.281,18.278l-9.469,1.134Zm-8.156,-33.887c-2.031,-5.491 -4.344,-10.831 -6.969,-16l8.5,-4.322c2.782,5.5 5.278,11.181 7.438,17.022l-8.969,3.3Zm-280.628,-3.588l0,-14.222l5.209,2.604c-1.893,3.784 -3.634,7.659 -5.209,11.618Zm13.918,-26.753l-7.978,-5.234c3.404,-5.191 7.101,-10.169 11.066,-14.913l7.322,6.122c-3.731,4.463 -7.209,9.144 -10.41,14.025Zm250.929,-0.734c-3.219,-4.86 -6.719,-9.519 -10.469,-13.96l7.281,-6.162c4,4.722 7.719,9.675 11.157,14.844l-7.969,5.278Zm-228.563,-26.019l-6.565,-6.925c4.487,-4.259 9.225,-8.256 14.184,-11.975l5.725,7.638c-4.666,3.493 -9.122,7.256 -13.344,11.262Zm206.063,-0.597c-4.25,-3.981 -8.719,-7.719 -13.407,-11.19l5.657,-7.669c5,3.69 9.75,7.662 14.281,11.894l-6.531,6.965Zm-178.169,-20.309l-4.8,-8.247c4.041,-2.353 8.197,-4.531 12.453,-6.531l4.912,0l3.001,6.893c-5.36,2.335 -10.554,4.969 -15.566,7.885Zm150.137,-0.441c-5.031,-2.891 -10.249,-5.497 -15.625,-7.8l2.813,-6.537l5.937,0c3.969,1.865 7.844,3.887 11.625,6.059l-4.75,8.278Zm-118.187,-13.459l-0.266,-0.878l3.291,0c-1.012,0.284 -2.022,0.575 -3.025,0.878Zm86.131,-0.26c-0.712,-0.212 -1.431,-0.418 -2.15,-0.618l2.335,0l-0.185,0.618Z" style="fill:#facf6e;fill-rule:nonzero;"/><path d="M382.716,259.207l-23.032,35.95l0,243.415l46.063,0l0,-34.866l0,-208.549l-23.031,-35.95Z" style="fill:#e7e8e9;fill-rule:nonzero;"/><path d="M368.091,125.989l-265.638,0l0,466.434l356.638,0l0,-382.022l-91,-84.412Z" style="fill:#faf9f9;fill-rule:nonzero;"/><path d="M368.091,125.304l0,-4.818l-265.638,0c-1.45,0 -2.869,0.514 -3.894,1.412c-1.025,0.897 -1.612,2.137 -1.612,3.406l0,408.446c0,1.27 0.587,2.512 1.612,3.41c1.025,0.897 2.444,1.412 3.894,1.412l356.638,0c1.434,0 2.875,-0.515 3.906,-1.412c0.997,-0.898 1.594,-2.14 1.594,-3.41l0,-334.527c0,-1.341 -0.629,-2.622 -1.753,-3.533l-90.997,-73.918c-1,-0.827 -2.344,-1.286 -3.75,-1.286l0,4.818l-3.719,3.536l89.219,72.487l0,327.601l-345.632,0l0,-398.802l260.132,0l0,-4.822l-3.719,3.536l3.719,-3.536Z" style="fill:#414042;fill-rule:nonzero;"/><path d="M368.091,210.398l91,0l-91,-84.409l0,84.409Z" style="fill:#e7e8e9;fill-rule:nonzero;"/><path d="M368.091,210.398l0,5.506l91,0c2.25,0 4.312,-1.39 5.125,-3.493c0.812,-2.107 0.281,-4.51 -1.378,-6.047l-90.997,-84.41c-1.594,-1.49 -3.938,-1.887 -5.938,-1.009c-2,0.875 -3.312,2.853 -3.312,5.044l0,84.409c0,1.45 0.593,2.869 1.625,3.894c1.031,1.025 2.437,1.612 3.875,1.612l0,-5.506l5.531,0l0,-71.791l71.437,66.285l-76.968,0l0,5.506l5.531,0l-5.531,0Z" style="fill:#414042;fill-rule:nonzero;"/><path d="M146.05,482.673l270.458,0" style="fill:#2ac1d9;fill-rule:nonzero;"/><g><path d="M150.319,301.173l270.458,0l0,-7.5l-270.458,0" style="fill:#414042;fill-rule:nonzero;"/><path d="M150.319,322.173l270.458,0l0,-7.5l-270.458,0" style="fill:#414042;fill-rule:nonzero;"/><path d="M150.319,343.173l270.458,0l0,-7.5l-270.458,0" style="fill:#414042;fill-rule:nonzero;"/><path d="M150.319,364.173l270.458,0l0,-7.5l-270.458,0" style="fill:#414042;fill-rule:nonzero;"/><path d="M150.319,385.173l270.458,0l0,-7.5l-270.458,0" style="fill:#414042;fill-rule:nonzero;"/><path d="M150.319,406.173l270.458,0l0,-7.5l-270.458,0" style="fill:#414042;fill-rule:nonzero;"/><path d="M150.319,427.173l270.458,0l0,-7.5l-270.458,0" style="fill:#414042;fill-rule:nonzero;"/><path d="M150.319,448.173l270.458,0l0,-7.5l-270.458,0" style="fill:#414042;fill-rule:nonzero;"/><path d="M150.319,469.173l270.458,0l0,-7.5l-270.458,0" style="fill:#414042;fill-rule:nonzero;"/><path d="M150.319,280.173l270.458,0l0,-7.5l-270.458,0" style="fill:#414042;fill-rule:nonzero;"/></g><g><path d="M384.015,272.673l0,196.5l7.355,0l0,-196.5" style="fill:#414042;fill-rule:nonzero;"/><path d="M354.837,272.673l0,196.5l7.355,0l0,-196.5" style="fill:#414042;fill-rule:nonzero;"/><path d="M325.66,272.673l0,196.5l7.355,0l0,-196.5" style="fill:#414042;fill-rule:nonzero;"/><path d="M296.482,272.673l0,196.5l7.355,0l0,-196.5" style="fill:#414042;fill-rule:nonzero;"/><path d="M267.304,272.673l0,196.5l7.355,0l0,-196.5" style="fill:#414042;fill-rule:nonzero;"/><path d="M238.127,272.673l0,196.5l7.355,0l0,-196.5" style="fill:#414042;fill-rule:nonzero;"/><path d="M208.949,272.673l0,196.5l7.355,0l0,-196.5" style="fill:#414042;fill-rule:nonzero;"/><path d="M179.771,272.673l0,196.5l7.355,0l0,-196.5" style="fill:#414042;fill-rule:nonzero;"/><path d="M150.594,272.673l0,196.5l7.355,0l0,-196.5" style="fill:#414042;fill-rule:nonzero;"/><path d="M413.193,272.673l0,196.5l7.355,0l0,-196.5" style="fill:#414042;fill-rule:nonzero;"/></g><path d="M243.256,165.123l55.119,0" style="fill:#2ac1d9;fill-rule:nonzero;"/><path d="M243.256,170.629l55.119,0l0,-11.009l-55.119,0" style="fill:#414042;fill-rule:nonzero;"/><path d="M243.256,189.895l73.304,0" style="fill:#2ac1d9;fill-rule:nonzero;"/><path d="M243.256,195.401l73.304,0l0,-11.009l-73.304,0" style="fill:#414042;fill-rule:nonzero;"/><path d="M207.669,188.67c0,18.919 -15.338,34.256 -34.26,34.256c-18.918,0 -34.256,-15.337 -34.256,-34.256c0,-18.922 15.338,-34.259 34.256,-34.259c18.922,0 34.26,15.337 34.26,34.259Z" style="fill:#afb7bc;fill-rule:nonzero;"/><path d="M207.669,188.67l-5.506,0c-0.004,7.956 -3.21,15.109 -8.422,20.328c-5.219,5.213 -12.375,8.419 -20.332,8.422c-7.956,-0.003 -15.109,-3.209 -20.331,-8.422c-5.209,-5.219 -8.415,-12.372 -8.418,-20.328c0.003,-7.959 3.209,-15.113 8.418,-20.331c5.222,-5.213 12.375,-8.419 20.331,-8.422c7.957,0.003 15.113,3.209 20.332,8.422c5.212,5.218 8.418,12.372 8.422,20.331l11.012,0c-0.003,-21.966 -17.803,-39.762 -39.766,-39.766c-21.962,0.004 -39.759,17.8 -39.762,39.766c0.003,21.962 17.8,39.756 39.762,39.762c21.963,-0.003 39.76,-17.8 39.766,-39.762l-5.506,0Z" style="fill:#414042;fill-rule:nonzero;"/><path d="M244.985,218.042l22.159,0" style="fill:#afb7bc;fill-rule:nonzero;"/><path d="M244.985,223.545l22.159,0l0,-11.009l-22.159,0" style="fill:#414042;fill-rule:nonzero;"/><path d="M279.241,218.654l22.159,0" style="fill:#afb7bc;fill-rule:nonzero;"/><path d="M279.241,224.161l22.159,0l0,-11.013l-22.159,0" style="fill:#414042;fill-rule:nonzero;"/><rect x="341.341" y="306.726" width="23.031" height="224.719" style="fill:#2ac1d9;fill-rule:nonzero;"/><path d="M364.372,306.726l0,-5.506l-23.031,0c-1.469,0 -2.875,0.587 -3.907,1.612c-1.031,1.025 -1.593,2.444 -1.593,3.894l0,243.722c0,1.45 0.562,2.869 1.593,3.894c1.032,1.025 2.438,1.612 3.907,1.612l23.031,0c1.438,0 2.844,-0.587 3.875,-1.612c1.031,-1.025 1.625,-2.444 1.625,-3.894l0,-243.722c0,-1.45 -0.594,-2.869 -1.625,-3.894c-1.031,-1.025 -2.437,-1.612 -3.875,-1.612l0,5.506l-5.531,0l0,238.219l-12,0l0,-232.713l17.531,0l0,-5.506l-5.531,0l5.531,0Z" style="fill:#414042;fill-rule:nonzero;"/><rect x="364.372" y="306.726" width="23" height="224.719" style="fill:#2ac1d9;fill-rule:nonzero;"/><path d="M364.372,550.448l0,5.506l23,0c1.469,0 2.875,-0.587 3.906,-1.612c1.031,-1.025 1.625,-2.444 1.625,-3.894l0,-243.722c0,-1.45 -0.594,-2.869 -1.625,-3.894c-1.031,-1.025 -2.437,-1.612 -3.906,-1.612l-23,0c-1.469,0 -2.875,0.587 -3.906,1.612c-1.032,1.025 -1.625,2.444 -1.625,3.894l0,243.722c0,1.45 0.593,2.869 1.625,3.894c1.031,1.025 2.437,1.612 3.906,1.612l0,-5.506l5.5,0l0,-238.216l12,0l0,232.713l-17.5,0l0,5.503l5.5,0l-5.5,0Z" style="fill:#414042;fill-rule:nonzero;"/><path d="M341.341,306.726l46.031,0l-23,-42.012l-23.031,42.012Z" style="fill:#e7e8e9;fill-rule:nonzero;"/><path d="M341.341,306.726l0,5.506l46.031,0c1.969,0 3.75,-1.025 4.75,-2.7c1,-1.678 1.031,-3.743 0.094,-5.453l-23.032,-42.012c-0.968,-1.756 -2.812,-2.86 -4.812,-2.86c-2,0 -3.875,1.104 -4.844,2.86l-23.031,42.012c-0.938,1.71 -0.906,3.775 0.094,5.453c1,1.675 2.781,2.7 4.75,2.7l0,-5.506l4.812,2.647l18.219,-33.206l13.719,25.053l-13.719,0l-23.031,0l0,5.506l4.812,2.647l-4.812,-2.647Z" style="fill:#414042;fill-rule:nonzero;"/><path d="M381.934,14.154l-27.062,18.606l18.312,26.622c-3.125,3.679 -5.781,7.641 -7.968,11.825l-30.75,-5.7l-5.969,32.288l29.625,5.494c0.312,6.653 1.656,13.309 4.094,19.709l-28.344,19.516l18.625,27.047l29,-19.957c4.5,3.641 9.406,6.603 14.594,8.853l-5.5,29.654l32.312,5.978l5.688,-30.775c4.687,-0.541 9.343,-1.591 13.875,-3.213l18.312,26.631l27.063,-18.615l-18.313,-26.622c3.782,-4.447 6.907,-9.341 9.281,-14.516l32.844,6.069l5.969,-32.291l-33.25,-6.137c-0.469,-5.163 -1.594,-10.3 -3.344,-15.294l27.531,-18.931l-18.625,-27.05l-27.503,18.922c-4.028,-3.428 -8.434,-6.303 -13.09,-8.578l6.156,-33.25l-32.281,-5.966l-6.097,32.819c-5.685,0.375 -11.344,1.537 -16.872,3.475l-18.313,-26.613Z" style="fill:#2ac1d9;fill-rule:nonzero;"/><path d="M381.934,14.154l-3.125,-4.537l-27.031,18.606c-1.218,0.822 -2.031,2.109 -2.312,3.534c-0.25,1.425 0.062,2.929 0.875,4.122l18.312,26.622l4.531,-3.119l-4.187,-3.565c-3.406,3.987 -6.281,8.297 -8.656,12.847l4.875,2.543l1,-5.415l-30.75,-5.697c-1.438,-0.266 -2.938,0.053 -4.125,0.875c-1.188,0.822 -2.032,2.109 -2.281,3.534l-6.001,32.288c-0.531,2.99 1.438,5.862 4.438,6.415l29.625,5.497l1,-5.415l-5.5,0.247c0.344,7.231 1.812,14.472 4.469,21.428l5.125,-1.966l-3.094,-4.537l-28.375,19.518c-2.5,1.722 -3.125,5.15 -1.406,7.657l18.593,27.046c1.719,2.507 5.157,3.138 7.657,1.416l29.031,-19.956l-3.125,-4.538l-3.469,4.275c4.875,3.96 10.219,7.182 15.875,9.632l2.188,-5.054l-5.407,-1.003l-5.5,29.653c-0.249,1.425 0.063,2.929 0.875,4.122c0.844,1.197 2.125,2.032 3.532,2.294l32.312,5.981c2.969,0.553 5.844,-1.422 6.407,-4.412l5.687,-30.775l-5.406,-1.003l0.621,5.468c5.094,-0.584 10.157,-1.728 15.129,-3.493l-1.875,-5.188l-4.532,3.119l18.313,26.631c0.844,1.21 2.094,2.025 3.531,2.294c1.438,0.269 2.907,-0.044 4.125,-0.878l27.063,-18.613c1.187,-0.822 2.031,-2.109 2.281,-3.537c0.281,-1.425 -0.031,-2.925 -0.875,-4.122l-18.312,-26.619l-4.532,3.119l4.188,3.569c4.125,-4.831 7.5,-10.15 10.094,-15.785l-5.001,-2.3l-1,5.413l32.844,6.069c1.406,0.265 2.907,-0.057 4.125,-0.879c1.188,-0.821 2,-2.109 2.282,-3.534l5.968,-32.291c0.25,-1.446 -0.062,-2.912 -0.875,-4.121c-0.843,-1.213 -2.094,-2.029 -3.531,-2.294l-33.25,-6.138l-1,5.416l5.469,-0.503c-0.5,-5.609 -1.719,-11.194 -3.625,-16.628l-5.188,1.837l3.125,4.535l27.531,-18.929c1.188,-0.821 2,-2.109 2.282,-3.534c0.25,-1.428 -0.063,-2.928 -0.875,-4.122l-18.625,-27.053c-1.719,-2.503 -5.156,-3.137 -7.657,-1.416l-27.503,18.922l3.125,4.538l3.563,-4.197c-4.375,-3.719 -9.153,-6.847 -14.247,-9.328l-2.406,4.947l5.406,1l6.153,-33.247c0.253,-1.428 -0.063,-2.928 -0.872,-4.122c-0.812,-1.194 -2.125,-2.031 -3.531,-2.294l-32.281,-5.969c-3,-0.553 -5.878,1.422 -6.438,4.413l-6.062,32.819l5.403,1.003l-0.375,-5.494c-6.185,0.41 -12.341,1.672 -18.31,3.775l1.813,5.194l4.531,-3.122l-18.312,-26.612c-1.719,-2.507 -5.125,-3.138 -7.657,-1.416l3.125,4.537l-4.531,3.122l18.313,26.613c1.406,2.053 4.031,2.9 6.375,2.072c5.031,-1.776 10.219,-2.835 15.403,-3.176c2.503,-0.165 4.566,-2.021 5.034,-4.49l5.094,-27.41l21.438,3.969l-5.125,27.835c-0.469,2.434 0.75,4.859 2.999,5.947c4.216,2.071 8.25,4.693 11.938,7.828c1.906,1.612 4.625,1.753 6.684,0.337l22.972,-15.8l12.375,17.978l-23,15.81c-2.062,1.412 -2.906,4.018 -2.062,6.372c1.593,4.559 2.625,9.246 3.062,13.962c0.219,2.45 2.063,4.463 4.469,4.909l27.813,5.138l-3.969,21.462l-27.407,-5.065c-2.468,-0.459 -4.937,0.815 -6,3.112c-2.156,4.716 -5,9.185 -8.468,13.25c-1.625,1.897 -1.754,4.632 -0.344,6.688l15.187,22.084l-17.968,12.372l-15.188,-22.091c-1.437,-2.053 -4.062,-2.903 -6.406,-2.065c-4.125,1.472 -8.375,2.431 -12.656,2.928c-2.406,0.275 -4.344,2.097 -4.782,4.466l-4.687,25.362l-21.469,-3.972l4.466,-24.24c0.472,-2.519 -0.872,-5.041 -3.216,-6.057c-4.75,-2.053 -9.219,-4.75 -13.312,-8.078c-1.907,-1.537 -4.563,-1.643 -6.594,-0.259l-24.469,16.84l-12.375,-17.978l23.813,-16.397c2.093,-1.44 2.937,-4.125 2.031,-6.5c-2.219,-5.84 -3.469,-11.915 -3.75,-17.987c-0.094,-2.559 -1.969,-4.703 -4.469,-5.169l-24.25,-4.49l3.969,-21.463l25.344,4.697c2.406,0.441 4.781,-0.719 5.906,-2.869c1.969,-3.819 4.406,-7.437 7.25,-10.806c1.625,-1.9 1.781,-4.628 0.344,-6.684l-15.188,-22.085l22.531,-15.487l-3.125,-4.535l-4.531,3.122l4.531,-3.122Z" style="fill:#414042;fill-rule:nonzero;"/><path d="M402.497,74.279c14.687,-10.106 34.781,-6.393 44.844,8.282c10.093,14.681 6.375,34.75 -8.282,44.837c-14.656,10.094 -34.75,6.384 -44.843,-8.287c-10.094,-14.678 -6.375,-34.747 8.281,-44.832Z" style="fill:#faf9f9;fill-rule:nonzero;"/><path d="M402.497,74.279l3.125,4.535c4.656,-3.2 9.903,-4.719 15.156,-4.722c8.497,0.009 16.844,4.04 22.032,11.587c3.184,4.65 4.718,9.903 4.718,15.135c0,8.525 -4.031,16.859 -11.594,22.047c-4.656,3.196 -9.906,4.712 -15.125,4.715c-8.531,-0.009 -16.843,-4.04 -22.065,-11.584c-3.185,-4.65 -4.685,-9.9 -4.685,-15.131c0,-8.525 4.032,-16.86 11.563,-22.047l-3.125,-4.535l-3.094,-4.537c-10.656,7.309 -16.375,19.131 -16.375,31.119c0,7.368 2.188,14.849 6.656,21.371c7.313,10.629 19.157,16.363 31.125,16.354c7.375,0.006 14.844,-2.163 21.375,-6.65c10.625,-7.31 16.341,-19.135 16.341,-31.122c0,-7.369 -2.153,-14.847 -6.656,-21.369c-7.278,-10.634 -19.125,-16.372 -31.091,-16.363c-7.375,-0.003 -14.875,2.169 -21.406,6.66l3.125,4.537Z" style="fill:#414042;fill-rule:nonzero;"/></g></svg>