<svg width="80" height="80" viewBox="0 0 80 80" fill="none" xmlns="http://www.w3.org/2000/svg">
<path d="M40 80C62.0914 80 80 62.0914 80 40C80 17.9086 62.0914 0 40 0C17.9086 0 0 17.9086 0 40C0 62.0914 17.9086 80 40 80Z" fill="#FBD303"/>
<path d="M60.8787 26.3648H18.8549V67.1105H60.8787V26.3648Z" fill="#4F5565"/>
<path d="M76.8574 24.1278L40 4.26099L3.14246 24.1278H76.8574Z" fill="#FCFCFD"/>
<path d="M61.7841 20.7722L40 9.0545L18.2157 20.7722H61.7841Z" fill="#F1F3F7"/>
<path d="M72.8628 24.1278H7.13721V28.6018H72.8628V24.1278Z" fill="#F1F3F7"/>
<path d="M9.58716 28.6018V31.0518C9.58716 31.6377 10.4393 32.1704 11.4514 32.1704H25.0333C26.0453 32.1704 26.8976 31.691 26.8976 31.0518V28.6018H9.58716Z" fill="#DEDEDF"/>
<path d="M26.8974 67.1105V64.6605C26.8974 64.0745 26.0453 63.5419 25.0332 63.5419H11.4514C10.4395 63.5419 9.58716 64.0213 9.58716 64.6605V67.1105H26.8974Z" fill="#DEDEDF"/>
<path d="M23.7016 32.1171H12.7828V63.5419H23.7016V32.1171Z" fill="#F1F3F7"/>
<path d="M31.3723 28.6018V31.0518C31.3723 31.6377 32.2245 32.1704 33.2366 32.1704H46.8185C47.8304 32.1704 48.6828 31.691 48.6828 31.0518V28.6018H31.3723Z" fill="#DEDEDF"/>
<path d="M48.6284 67.1105V64.6605C48.6284 64.0745 47.7762 63.5419 46.7641 63.5419H33.2356C32.2237 63.5419 31.3713 64.0213 31.3713 64.6605V67.1105H48.6284Z" fill="#DEDEDF"/>
<path d="M45.4859 32.1171H34.5671V63.5419H45.4859V32.1171Z" fill="#F1F3F7"/>
<path d="M53.1025 28.6018V31.0518C53.1025 31.6377 53.9547 32.1704 54.9668 32.1704H68.5487C69.5607 32.1704 70.413 31.691 70.413 31.0518V28.6018H53.1025Z" fill="#DEDEDF"/>
<path d="M70.4126 67.1105V64.6605C70.4126 64.0745 69.5604 63.5419 68.5484 63.5419H54.9664C53.9545 63.5419 53.1022 64.0213 53.1022 64.6605V67.1105H70.4126Z" fill="#DEDEDF"/>
<path d="M67.217 32.1171H56.2982V63.5419H67.217V32.1171Z" fill="#F1F3F7"/>
<path d="M72.8628 67.1105H7.13721V70.8921H72.8628V67.1105Z" fill="#646B79"/>
<path d="M76.8042 70.8921H3.14246V74.6737H76.8042V70.8921Z" fill="#4F5565"/>
</svg>
