<svg width="80" height="80" viewBox="0 0 80 80" fill="none" xmlns="http://www.w3.org/2000/svg">
<path d="M40 80C62.0914 80 80 62.0914 80 40C80 17.9086 62.0914 0 40 0C17.9086 0 0 17.9086 0 40C0 62.0914 17.9086 80 40 80Z" fill="#76D95B"/>
<path d="M79.1477 17.683L77.7628 15.3928H2.23701L0.852173 17.683V65.6724H35.8455C36.5912 67.217 38.189 68.3356 40 68.3356C41.8108 68.3356 43.4621 67.2704 44.1545 65.6724H79.1478V17.683H79.1477Z" fill="#393D47"/>
<path d="M77.7628 15.446H40H2.237V64.2876H37.0706C37.3368 65.6724 38.5619 66.7376 40.0532 66.7376C41.5446 66.7376 42.7697 65.6724 43.0359 64.2876H77.8695V15.446H77.7628Z" fill="#4F5565"/>
<path d="M40 61.6776C28.815 58.4287 16.9908 58.4287 5.8056 61.6776C5.8056 45.7522 5.8056 29.8802 5.8056 13.9547C16.9906 10.7058 28.8148 10.7058 40 13.9547C40 29.8269 40 45.7523 40 61.6776Z" fill="#FCFCFD"/>
<path d="M33.7683 23.0092C26.6843 20.932 19.1212 20.932 12.0372 23.0092C12.0372 22.2635 12.0372 21.4646 12.0372 20.719C19.1212 18.6417 26.6843 18.6417 33.7683 20.719C33.7683 21.4646 33.7683 22.2635 33.7683 23.0092Z" fill="#F1F3F7"/>
<path d="M33.7683 30.9986C26.6843 28.9213 19.1212 28.9213 12.0372 30.9986C12.0372 30.2529 12.0372 29.454 12.0372 28.7083C19.1212 26.6311 26.6843 26.6311 33.7683 28.7083C33.7683 29.454 33.7683 30.1997 33.7683 30.9986Z" fill="#F1F3F7"/>
<path d="M33.7683 38.9879C26.6843 36.9107 19.1212 36.9107 12.0372 38.9879C12.0372 38.2422 12.0372 37.4433 12.0372 36.6976C19.1212 34.6204 26.6843 34.6204 33.7683 36.6976C33.7683 37.4433 33.7683 38.189 33.7683 38.9879Z" fill="#F1F3F7"/>
<path d="M33.7683 46.924C26.6843 44.8467 19.1212 44.8467 12.0372 46.924C12.0372 46.1783 12.0372 45.3794 12.0372 44.6337C19.1212 42.5565 26.6843 42.5565 33.7683 44.6337C33.7683 45.3794 33.7683 46.1783 33.7683 46.924Z" fill="#F1F3F7"/>
<path d="M33.7683 54.9134C26.6843 52.8361 19.1212 52.8361 12.0372 54.9134C12.0372 54.1677 12.0372 53.3688 12.0372 52.6231C19.1212 50.5459 26.6843 50.5459 33.7683 52.6231C33.7683 53.3688 33.7683 54.1145 33.7683 54.9134Z" fill="#F1F3F7"/>
<path d="M74.1943 61.6776C63.0093 58.4287 51.1851 58.4287 39.9999 61.6776C39.9999 45.7522 39.9999 29.8802 39.9999 13.9547C51.1849 10.7058 63.0091 10.7058 74.1943 13.9547C74.1943 29.8269 74.1943 45.7523 74.1943 61.6776Z" fill="#F1F3F7"/>
<path d="M67.9626 23.0092C60.8787 20.932 53.3155 20.932 46.2316 23.0092C46.2316 22.2635 46.2316 21.4646 46.2316 20.719C53.3155 18.6417 60.8787 18.6417 67.9626 20.719C67.9626 21.4646 67.9626 22.2635 67.9626 23.0092Z" fill="#DEDEDF"/>
<path d="M67.9626 30.9985C60.8787 28.9213 53.3155 28.9213 46.2316 30.9985C46.2316 30.2529 46.2316 29.4539 46.2316 28.7083C53.3155 26.631 60.8787 26.631 67.9626 28.7083C67.9626 29.4539 67.9626 30.1996 67.9626 30.9985Z" fill="#DEDEDF"/>
<path d="M67.9626 38.9879C60.8787 36.9107 53.3155 36.9107 46.2316 38.9879C46.2316 38.2422 46.2316 37.4433 46.2316 36.6976C53.3155 34.6204 60.8787 34.6204 67.9626 36.6976C67.9626 37.4433 67.9626 38.189 67.9626 38.9879Z" fill="#DEDEDF"/>
<path d="M67.9626 46.924C60.8787 44.8467 53.3155 44.8467 46.2316 46.924C46.2316 46.1783 46.2316 45.3794 46.2316 44.6337C53.3155 42.5565 60.8787 42.5565 67.9626 44.6337C67.9626 45.3794 67.9626 46.1783 67.9626 46.924Z" fill="#DEDEDF"/>
<path d="M67.9626 54.9133C60.8787 52.8361 53.3155 52.8361 46.2316 54.9133C46.2316 54.1677 46.2316 53.3687 46.2316 52.6231C53.3155 50.5458 60.8787 50.5458 67.9626 52.6231C67.9626 53.3687 67.9626 54.1144 67.9626 54.9133Z" fill="#DEDEDF"/>
</svg>
