<?xml version="1.0" encoding="UTF-8" standalone="no"?><!DOCTYPE svg PUBLIC "-//W3C//DTD SVG 1.1//EN" "http://www.w3.org/Graphics/SVG/1.1/DTD/svg11.dtd"><svg width="100%" height="100%" viewBox="0 0 292 244" version="1.1" xmlns="http://www.w3.org/2000/svg" xmlns:xlink="http://www.w3.org/1999/xlink" xml:space="preserve" xmlns:serif="http://www.serif.com/" style="fill-rule:evenodd;clip-rule:evenodd;stroke-linejoin:round;stroke-miterlimit:1.41421;"><rect id="Artboard1" x="0" y="-54" width="291.076" height="297.69" style="fill:none;"/><clipPath id="_clip1"><rect id="Artboard11" serif:id="Artboard1" x="0" y="-54" width="291.076" height="297.69"/></clipPath><g clip-path="url(#_clip1)"><g><path d="M267.803,112.44l12.983,0l-20.994,-33.405l-23.121,33.405l11.632,0l0,181.5l19.5,0l0,-181.5Z" style="fill:#e6e7e8;fill-rule:nonzero;"/><path d="M63.613,112.44l-20.986,-33.405l-23.124,33.405l11.3,0l0,181.5l20.25,0l0,-181.5l12.56,0Z" style="fill:#e6e7e8;fill-rule:nonzero;"/><path d="M205.1,87.598l13.109,0l-20.987,-33.405l-23.124,33.405l11.336,0l0,206.48l19.666,0l0,-206.48Z" style="fill:#d1d3d4;fill-rule:nonzero;"/><path d="M152.342,44.655l13.108,0l-20.987,-33.405l-23.123,33.405l11.336,0l0,206.479l19.666,0l0,-206.479Z" style="fill:#e6e7e8;fill-rule:nonzero;"/><path d="M103.264,87.598l13.107,0l-20.985,-33.405l-23.124,33.405l11.336,0l0,206.48l19.666,0l0,-206.48Z" style="fill:#d1d3d4;fill-rule:nonzero;"/><path d="M234.143,130.068l0,25.766l-14.725,0l0,-25.766l-9.815,0l0,17.177l-14.723,0l0,-17.177l-112.88,0l0,8.589c0,2.037 -1.644,3.681 -3.681,3.681l-30.673,0c-2.037,0 -3.681,-1.644 -3.681,-3.681l0,-30.674c0,-2.037 1.644,-3.681 3.681,-3.681l30.673,0c2.037,0 3.681,1.644 3.681,3.681l0,8.589l152.143,0l0,13.496Z" style="fill:#ffd248;fill-rule:nonzero;"/><path d="M219.418,116.572l0,-1.841l-9.815,0l-14.723,0l-111.039,0l0,-6.748c0.001,-1.518 -0.619,-2.912 -1.616,-3.906c-0.993,-0.996 -2.387,-1.617 -3.906,-1.615l-30.673,0c-1.519,-0.002 -2.912,0.619 -3.906,1.615c-0.997,0.994 -1.616,2.388 -1.616,3.906l0,30.674c0,1.519 0.619,2.911 1.616,3.905c0.994,0.998 2.387,1.617 3.906,1.616l30.673,0c1.519,0.001 2.913,-0.618 3.906,-1.616c0.997,-0.994 1.617,-2.386 1.616,-3.905l0,-6.749l109.198,0l0,15.337c0,0.485 0.196,0.959 0.539,1.302c0.343,0.343 0.817,0.539 1.302,0.539l14.723,0c0.485,0 0.959,-0.196 1.301,-0.539c0.343,-0.343 0.54,-0.817 0.54,-1.302l0,-15.337l6.134,0l0,23.926c0,0.485 0.196,0.959 0.539,1.301c0.343,0.343 0.817,0.54 1.301,0.54l14.725,0c0.48,0 0.96,-0.197 1.298,-0.54c0.345,-0.342 0.54,-0.816 0.54,-1.301l0,-25.766l0,-13.496c0,-0.485 -0.195,-0.959 -0.54,-1.302c-0.338,-0.342 -0.818,-0.539 -1.298,-0.539l-14.725,0l0,3.681l12.88,0l0,35.582l-11.039,0l0,-23.926c0,-0.485 -0.196,-0.959 -0.539,-1.301c-0.342,-0.343 -0.817,-0.539 -1.302,-0.539l-9.815,0c-0.484,0 -0.958,0.196 -1.301,0.539c-0.343,0.342 -0.539,0.816 -0.539,1.301l0,15.337l-11.043,0l0,-15.337c0,-0.485 -0.196,-0.959 -0.539,-1.301c-0.343,-0.343 -0.817,-0.539 -1.301,-0.539l-112.88,0c-0.484,0 -0.958,0.196 -1.301,0.539c-0.343,0.342 -0.539,0.816 -0.539,1.301l0,8.589c-0.001,0.518 -0.203,0.965 -0.538,1.303c-0.337,0.334 -0.784,0.536 -1.303,0.537l-30.673,0c-0.518,-0.001 -0.965,-0.203 -1.303,-0.537c-0.334,-0.338 -0.536,-0.785 -0.538,-1.303l0,-30.674c0.002,-0.519 0.204,-0.966 0.538,-1.303c0.338,-0.334 0.785,-0.536 1.303,-0.537l30.673,0c0.519,0.001 0.966,0.203 1.303,0.537c0.335,0.337 0.537,0.784 0.538,1.303l0,8.589c0,0.484 0.196,0.958 0.539,1.301c0.343,0.343 0.817,0.539 1.301,0.539l137.418,0l0,-1.84Z" style="fill:#231f20;fill-rule:nonzero;"/><path d="M73.412,116.572l0,12.27c0,2.036 -1.644,3.68 -3.681,3.68l-12.27,0c-2.037,0 -3.68,-1.644 -3.68,-3.68l0,-12.27c0,-2.037 1.643,-3.681 3.68,-3.681l12.27,0c2.037,0 3.681,1.644 3.681,3.681Z" style="fill:#fff;fill-rule:nonzero;"/><path d="M177.703,184.054l0,17.177l-4.908,0l-67.482,0l-8.589,0l0,-17.177l80.979,0Z" style="fill:#31c0d8;fill-rule:nonzero;"/><path d="M175.555,157.061c2.49,0 3.889,-2.086 4.381,-4.515c-0.723,19.496 -16.013,31.508 -16.013,31.508l-62.291,0l0,-42.33c0.06,3.19 3.853,6.748 7.042,6.748l5.816,0c3.214,0 5.546,-3.606 5.546,-6.822c0,3.216 2.871,6.822 6.085,6.822l4.957,0l0,1.902c0,3.215 3.461,6.687 6.674,6.687l37.803,0Z" style="fill:#f1f2f2;fill-rule:nonzero;"/><path d="M179.936,152.546c-0.492,2.429 -1.891,4.515 -4.381,4.515l-37.803,0c-3.213,0 -6.674,-3.472 -6.674,-6.687l0,-1.902l0,-3.913c0,-3.031 3.092,-3.412 6.147,-3.448l38.33,0c3.215,0 4.601,0.245 4.601,3.448l0,5.815c0,0.725 -0.074,1.46 -0.22,2.172Z" style="fill:#f1f2f2;fill-rule:nonzero;"/><path d="M172.795,128.842l0,12.269l-18.404,0l0,-0.614l0,-9.816l0,-26.82c0,-3.215 3.41,-4.467 6.626,-4.467l5.815,0c3.214,0 5.963,1.252 5.963,4.467l0,24.981Z" style="fill:#f1f2f2;fill-rule:nonzero;"/><path d="M137.752,141.111c-0.171,0 -0.354,0 -0.527,0l-0.012,-0.614l0,-9.816l0,-26.82c0,-3.215 3.142,-4.467 6.356,-4.467l5.815,0c3.215,0 5.007,1.252 5.007,4.467l0,37.25l-16.639,0Z" style="fill:#f1f2f2;fill-rule:nonzero;"/><path d="M137.213,140.497l0.012,0.614c-3.055,0.036 -6.147,0.417 -6.147,3.448l0,3.913l-4.957,0c-3.214,0 -6.085,-3.606 -6.085,-6.822l0,-37.789c0,-3.215 2.871,-4.467 6.085,-4.467l5.817,0c3.214,0 5.275,1.252 5.275,4.467l0,36.636Z" style="fill:#f1f2f2;fill-rule:nonzero;"/><path d="M101.632,141.111l0,-12.269l0,-11.043l0,-13.938c0,-3.215 3.828,-4.467 7.042,-4.467l5.816,0c3.214,0 5.546,1.252 5.546,4.467l0,37.789c0,3.216 -2.332,6.822 -5.546,6.822l-5.816,0c-3.189,0 -6.982,-3.558 -7.042,-6.748l0,-0.074l0,-0.539Z" style="fill:#f1f2f2;fill-rule:nonzero;"/><path d="M118.195,141.65c0.009,1.165 -0.457,2.545 -1.195,3.508c-0.365,0.484 -0.786,0.864 -1.21,1.108c-0.427,0.245 -0.843,0.364 -1.3,0.366l-5.816,0c-0.453,0.003 -1.036,-0.135 -1.645,-0.427c-0.915,-0.431 -1.864,-1.205 -2.526,-2.069c-0.333,-0.43 -0.597,-0.88 -0.769,-1.303c-0.174,-0.423 -0.257,-0.815 -0.263,-1.144l-1.839,0.035l1.84,0l0,-0.074l0,-0.539l0,-12.269l0,-11.043l0,-13.938c0.007,-0.438 0.106,-0.696 0.302,-0.981c0.151,-0.209 0.376,-0.425 0.691,-0.63c0.467,-0.309 1.131,-0.577 1.875,-0.752c0.743,-0.177 1.565,-0.264 2.334,-0.263l5.816,0c0.684,-0.001 1.288,0.068 1.776,0.191c0.368,0.092 0.669,0.212 0.905,0.347c0.355,0.206 0.566,0.42 0.733,0.715c0.162,0.297 0.29,0.716 0.291,1.373l3.682,0c0,-1.024 -0.189,-1.989 -0.592,-2.84c-0.3,-0.637 -0.719,-1.203 -1.216,-1.662c-0.748,-0.692 -1.649,-1.143 -2.593,-1.418c-0.946,-0.276 -1.948,-0.386 -2.986,-0.387l-5.816,0c-1.845,0.008 -3.838,0.333 -5.583,1.239c-0.868,0.457 -1.686,1.08 -2.305,1.939c-0.622,0.855 -1.002,1.959 -0.995,3.129l0,37.899c0.025,1.158 0.374,2.243 0.892,3.225c0.784,1.473 1.956,2.742 3.324,3.702c1.371,0.949 2.954,1.616 4.667,1.626l5.816,0c1.151,0.001 2.231,-0.33 3.145,-0.862c1.377,-0.802 2.408,-2.017 3.124,-3.374c0.711,-1.363 1.114,-2.888 1.118,-4.427l-3.682,0Z" style="fill:#231f20;fill-rule:nonzero;"/><path d="M139.054,103.861c0,-0.999 -0.161,-1.935 -0.521,-2.778c-0.268,-0.631 -0.653,-1.203 -1.125,-1.674c-0.709,-0.711 -1.589,-1.181 -2.515,-1.462c-0.93,-0.282 -1.917,-0.392 -2.955,-0.393l-5.817,0c-0.923,0.001 -1.839,0.088 -2.723,0.294c-1.319,0.308 -2.599,0.88 -3.601,1.902c-0.498,0.508 -0.912,1.129 -1.187,1.829c-0.277,0.701 -0.415,1.475 -0.415,2.282l0,37.789c0.014,2.157 0.91,4.203 2.282,5.816c0.691,0.804 1.516,1.501 2.464,2.013c0.947,0.51 2.03,0.834 3.18,0.834l5.571,0l0,-3.681l-0.614,0l-4.957,0c-0.456,0 -0.938,-0.127 -1.434,-0.394c-0.742,-0.395 -1.484,-1.119 -2.002,-1.975c-0.524,-0.853 -0.814,-1.819 -0.808,-2.613l0,-37.789c0.002,-0.532 0.109,-0.875 0.263,-1.154c0.118,-0.209 0.271,-0.39 0.487,-0.565c0.32,-0.259 0.795,-0.495 1.399,-0.657c0.602,-0.164 1.326,-0.251 2.095,-0.25l5.817,0c0.684,-0.001 1.265,0.069 1.717,0.187c0.341,0.088 0.606,0.201 0.81,0.324c0.303,0.191 0.479,0.378 0.635,0.678c0.15,0.3 0.272,0.75 0.273,1.437l3.681,0Z" style="fill:#231f20;fill-rule:nonzero;"/><path d="M139.054,140.497l0,-9.816l-3.681,0l0,9.816" style="fill:#231f20;fill-rule:nonzero;"/><path d="M139.054,130.681l0,-26.82c0.003,-0.506 0.11,-0.823 0.275,-1.101c0.126,-0.207 0.298,-0.399 0.541,-0.582c0.361,-0.276 0.889,-0.523 1.534,-0.689c0.644,-0.168 1.395,-0.255 2.165,-0.254l5.815,0c0.685,-0.001 1.244,0.069 1.658,0.182c0.313,0.084 0.542,0.19 0.712,0.3c0.253,0.17 0.397,0.332 0.543,0.639c0.139,0.306 0.254,0.79 0.253,1.505l3.681,0c-0.001,-0.973 -0.133,-1.88 -0.452,-2.713c-0.238,-0.623 -0.585,-1.199 -1.03,-1.682c-0.667,-0.731 -1.529,-1.225 -2.439,-1.512c-0.915,-0.29 -1.888,-0.399 -2.926,-0.4l-5.815,0c-0.924,0.001 -1.852,0.088 -2.753,0.291c-1.345,0.304 -2.658,0.859 -3.712,1.861c-0.523,0.499 -0.969,1.116 -1.272,1.825c-0.304,0.71 -0.46,1.503 -0.459,2.33l0,26.82l3.681,0Z" style="fill:#231f20;fill-rule:nonzero;"/><path d="M156.231,140.497l0,-9.816l0,-26.82c0.004,-0.48 0.11,-0.772 0.286,-1.052c0.135,-0.207 0.327,-0.408 0.597,-0.601c0.402,-0.288 0.985,-0.546 1.669,-0.715c0.684,-0.172 1.463,-0.259 2.234,-0.258l5.815,0c0.684,0 1.322,0.068 1.865,0.196c0.821,0.193 1.393,0.516 1.72,0.867c0.168,0.18 0.289,0.368 0.382,0.61c0.092,0.242 0.154,0.546 0.155,0.953l0,37.863l3.681,0l0,-0.613l0,-12.269l0,-11.043l0,-13.938c0.002,-1.064 -0.235,-2.071 -0.701,-2.93c-0.347,-0.644 -0.817,-1.196 -1.352,-1.638c-0.804,-0.666 -1.739,-1.093 -2.712,-1.36c-0.976,-0.267 -2,-0.378 -3.038,-0.379l-5.815,0c-1.845,0.008 -3.767,0.334 -5.43,1.269c-0.827,0.471 -1.596,1.117 -2.157,1.981c-0.564,0.859 -0.885,1.929 -0.88,3.057l0,36.636l3.681,0Z" style="fill:#231f20;fill-rule:nonzero;"/><path d="M175.555,141.111l0,1.84c0.78,-0.001 1.41,0.018 1.846,0.074c0.328,0.04 0.538,0.102 0.631,0.143c0.072,0.032 0.079,0.044 0.081,0.045l0.017,0.026c0.021,0.036 0.071,0.141 0.113,0.36c0.042,0.216 0.073,0.537 0.073,0.96l0,5.815c0,0.599 -0.062,1.214 -0.183,1.802l-0.001,0.006c-0.195,0.985 -0.582,1.828 -1.022,2.32c-0.219,0.25 -0.442,0.419 -0.682,0.534c-0.242,0.114 -0.507,0.183 -0.873,0.185l-37.803,0c-0.47,0.001 -1.025,-0.132 -1.596,-0.409c-0.857,-0.41 -1.722,-1.147 -2.319,-1.984c-0.607,-0.837 -0.925,-1.75 -0.918,-2.454l0,-1.902l0,-3.913c0,-0.223 0.027,-0.378 0.06,-0.486c0.063,-0.189 0.117,-0.263 0.255,-0.387c0.2,-0.18 0.691,-0.408 1.419,-0.537c0.722,-0.137 1.638,-0.188 2.594,-0.198l-0.022,-1.84l0,1.84l38.33,0l0,-1.84l0,-1.841l-2.147,0l-0.613,0l-18.404,0l-16.639,0c-0.171,0 -0.354,0 -0.527,0l-0.022,0c-0.798,0.01 -1.626,0.041 -2.451,0.141c-0.619,0.077 -1.237,0.192 -1.846,0.381c-0.456,0.144 -0.909,0.33 -1.344,0.585c-0.651,0.38 -1.271,0.938 -1.694,1.675c-0.427,0.734 -0.633,1.607 -0.63,2.507l0,5.815c0.001,1.136 0.3,2.217 0.773,3.2c0.715,1.473 1.816,2.75 3.139,3.711c1.323,0.951 2.894,1.609 4.602,1.617l37.803,0c0.879,0.001 1.722,-0.191 2.459,-0.544c1.111,-0.53 1.949,-1.392 2.539,-2.344c0.594,-0.958 0.966,-2.019 1.187,-3.103l-0.002,0.006c0.172,-0.837 0.258,-1.692 0.258,-2.543l0,-5.815c-0.003,-0.931 -0.09,-1.754 -0.387,-2.544c-0.219,-0.588 -0.588,-1.153 -1.074,-1.574c-0.363,-0.317 -0.773,-0.548 -1.179,-0.708c-0.615,-0.239 -1.22,-0.339 -1.839,-0.397c-0.621,-0.056 -1.263,-0.066 -1.962,-0.066l0,1.841Z" style="fill:#231f20;fill-rule:nonzero;"/><path d="M105.313,199.39l-6.749,0l0,-13.496l3.068,0l0,-3.681l-4.908,0c-0.485,0 -0.959,0.197 -1.302,0.539c-0.342,0.343 -0.539,0.817 -0.539,1.302l0,17.177c0,0.485 0.197,0.959 0.539,1.302c0.343,0.342 0.817,0.538 1.302,0.538l8.589,0l0,-3.681Z" style="fill:#231f20;fill-rule:nonzero;"/><path d="M163.923,185.894l11.939,0l0,13.496l-3.067,0l0,3.681l4.908,0c0.484,0 0.958,-0.196 1.301,-0.538c0.343,-0.343 0.538,-0.817 0.538,-1.302l0,-17.177c0,-0.485 -0.195,-0.959 -0.538,-1.302c-0.343,-0.342 -0.817,-0.539 -1.301,-0.539l-13.78,0l0,3.681Z" style="fill:#231f20;fill-rule:nonzero;"/><path d="M118.195,211.967l0,7.571l3.682,0l0,-7.571" style="fill:#231f20;fill-rule:nonzero;"/><path d="M118.195,224.947l0,7.572l3.682,0l0,-7.572" style="fill:#231f20;fill-rule:nonzero;"/><path d="M99.791,141.724l0,42.33c0,0.485 0.197,0.959 0.539,1.302c0.343,0.342 0.817,0.538 1.302,0.538l62.291,0c0.409,0 0.815,-0.14 1.137,-0.393c0.091,-0.074 4.034,-3.176 8.092,-8.815c2.028,-2.82 4.085,-6.278 5.687,-10.313c1.602,-4.034 2.747,-8.65 2.936,-13.759l-3.679,-0.136c-0.172,4.64 -1.209,8.836 -2.678,12.537c-2.201,5.55 -5.382,9.979 -8.009,13.003c-1.313,1.513 -2.485,2.674 -3.322,3.45c-0.418,0.387 -0.752,0.679 -0.977,0.87c-0.113,0.096 -0.198,0.166 -0.253,0.211l-0.059,0.048l-0.012,0.01l0.051,0.064l-0.051,-0.064l0.051,0.064l-0.051,-0.064l1.137,1.447l0,-1.841l-60.451,0l0,-40.489l-3.681,0Z" style="fill:#231f20;fill-rule:nonzero;"/><path d="M68.999,221.621c0,2.79 -2.263,5.053 -5.053,5.053c-2.79,0 -5.052,-2.263 -5.052,-5.053c0,-2.791 2.262,-5.053 5.052,-5.053c2.79,0 5.053,2.262 5.053,5.053Z" style="fill:#ffd248;fill-rule:nonzero;"/><path d="M227.273,221.621c0,2.79 -2.26,5.053 -5.05,5.053c-2.791,0 -5.053,-2.263 -5.053,-5.053c0,-2.791 2.262,-5.053 5.053,-5.053c2.79,0 5.05,2.262 5.05,5.053Z" style="fill:#31c0d8;fill-rule:nonzero;"/><path d="M189.24,37.579c0,2.79 -2.262,5.052 -5.053,5.052c-2.791,0 -5.052,-2.262 -5.052,-5.052c0,-2.791 2.261,-5.053 5.052,-5.053c2.791,0 5.053,2.262 5.053,5.053Z" style="fill:#ffd248;fill-rule:nonzero;"/><path d="M109.488,37.579c0,2.79 -2.262,5.052 -5.053,5.052c-2.79,0 -5.052,-2.262 -5.052,-5.052c0,-2.791 2.262,-5.053 5.052,-5.053c2.791,0 5.053,2.262 5.053,5.053Z" style="fill:#31c0d8;fill-rule:nonzero;"/><path d="M291.076,138.188c0,2.791 -2.265,5.053 -5.055,5.053c-2.79,0 -5.048,-2.262 -5.048,-5.053c0,-2.79 2.258,-5.053 5.048,-5.053c2.79,0 5.055,2.263 5.055,5.053Z" style="fill:#f4661e;fill-rule:nonzero;"/><path d="M10.105,146.777c0,2.791 -2.261,5.053 -5.052,5.053c-2.791,0 -5.053,-2.262 -5.053,-5.053c0,-2.791 2.262,-5.053 5.053,-5.053c2.791,0 5.052,2.262 5.052,5.053Z" style="fill:#f4661e;fill-rule:nonzero;"/><path d="M221.303,170.19l0,4.5l3.75,0l0,-4.5" style="fill:#231f20;fill-rule:nonzero;"/><path d="M221.303,179.94l0,4.5l3.75,0l0,-4.5" style="fill:#231f20;fill-rule:nonzero;"/><path d="M215.303,179.94l4.5,0l0,-3.75l-4.5,0" style="fill:#231f20;fill-rule:nonzero;"/><path d="M225.803,179.94l5.25,0l0,-3.75l-5.25,0" style="fill:#231f20;fill-rule:nonzero;"/><path d="M252.053,131.94l0,5.25l3.75,0l0,-5.25" style="fill:#231f20;fill-rule:nonzero;"/><path d="M252.053,141.69l0,5.25l3.75,0l0,-5.25" style="fill:#231f20;fill-rule:nonzero;"/><path d="M246.053,141.69l4.5,0l0,-3.75l-4.5,0" style="fill:#231f20;fill-rule:nonzero;"/><path d="M256.553,141.69l5.25,0l0,-3.75l-5.25,0" style="fill:#231f20;fill-rule:nonzero;"/><path d="M219.803,86.19l0,5.25l3.75,0l0,-5.25" style="fill:#231f20;fill-rule:nonzero;"/><path d="M219.803,96.69l0,4.5l3.75,0l0,-4.5" style="fill:#231f20;fill-rule:nonzero;"/><path d="M213.803,96.69l5.25,0l0,-3.75l-5.25,0" style="fill:#231f20;fill-rule:nonzero;"/><path d="M225.053,96.69l4.5,0l0,-3.75l-4.5,0" style="fill:#231f20;fill-rule:nonzero;"/><path d="M63.803,167.19l0,5.25l3.75,0l0,-5.25" style="fill:#231f20;fill-rule:nonzero;"/><path d="M63.803,176.94l0,5.25l3.75,0l0,-5.25" style="fill:#231f20;fill-rule:nonzero;"/><path d="M57.803,177.69l5.25,0l0,-3.75l-5.25,0" style="fill:#231f20;fill-rule:nonzero;"/><path d="M69.053,177.69l5.25,0l0,-3.75l-5.25,0" style="fill:#231f20;fill-rule:nonzero;"/><path d="M61.553,74.19l0,5.25l3.75,0l0,-5.25" style="fill:#231f20;fill-rule:nonzero;"/><path d="M61.553,83.94l0,5.25l3.75,0l0,-5.25" style="fill:#231f20;fill-rule:nonzero;"/><path d="M55.553,83.94l5.25,0l0,-3.75l-5.25,0" style="fill:#231f20;fill-rule:nonzero;"/><path d="M66.803,83.94l4.5,0l0,-3.75l-4.5,0" style="fill:#231f20;fill-rule:nonzero;"/><path d="M26.303,113.19l0,5.25l3.75,0l0,-5.25" style="fill:#231f20;fill-rule:nonzero;"/><path d="M26.303,123.69l0,4.5l3.75,0l0,-4.5" style="fill:#231f20;fill-rule:nonzero;"/><path d="M20.303,123.69l4.5,0l0,-3.75l-4.5,0" style="fill:#231f20;fill-rule:nonzero;"/><path d="M30.803,123.69l5.25,0l0,-3.75l-5.25,0" style="fill:#231f20;fill-rule:nonzero;"/><path d="M140.303,59.19l0,5.25l3.75,0l0,-5.25" style="fill:#231f20;fill-rule:nonzero;"/><path d="M140.303,69.69l0,4.5l3.75,0l0,-4.5" style="fill:#231f20;fill-rule:nonzero;"/><path d="M134.303,69.69l4.5,0l0,-3.75l-4.5,0" style="fill:#231f20;fill-rule:nonzero;"/><path d="M145.553,69.69l4.5,0l0,-3.75l-4.5,0" style="fill:#231f20;fill-rule:nonzero;"/><path d="M258.053,245.19l5.25,0l0,-3.75l-5.25,0" style="fill:#231f20;fill-rule:nonzero;"/><path d="M267.803,245.19l5.25,0l0,-3.75l-5.25,0" style="fill:#231f20;fill-rule:nonzero;"/><path d="M277.553,245.19l5.25,0l0,-3.75l-5.25,0" style="fill:#231f20;fill-rule:nonzero;"/><path d="M12.803,203.19l4.5,0l0,-3.75l-4.5,0" style="fill:#231f20;fill-rule:nonzero;"/><path d="M22.553,203.19l4.5,0l0,-3.75l-4.5,0" style="fill:#231f20;fill-rule:nonzero;"/><path d="M32.303,203.19l5.25,0l0,-3.75l-5.25,0" style="fill:#231f20;fill-rule:nonzero;"/><path d="M225.053,49.44l4.5,0l0,-3.75l-4.5,0" style="fill:#231f20;fill-rule:nonzero;"/><path d="M234.803,49.44l4.5,0l0,-3.75l-4.5,0" style="fill:#231f20;fill-rule:nonzero;"/><path d="M244.553,49.44l5.25,0l0,-3.75l-5.25,0" style="fill:#231f20;fill-rule:nonzero;"/><path d="M39.803,42.69l4.5,0l0,-3.75l-4.5,0" style="fill:#231f20;fill-rule:nonzero;"/><path d="M49.553,42.69l4.5,0l0,-3.75l-4.5,0" style="fill:#231f20;fill-rule:nonzero;"/><path d="M59.303,42.69l5.25,0l0,-3.75l-5.25,0" style="fill:#231f20;fill-rule:nonzero;"/></g><rect x="105.313" y="201.231" width="67.482" height="94.475" style="fill:#ffd248;fill-rule:nonzero;"/><path d="M105.313,199.731l-1.841,0l0,94.475c0,0.485 0.197,0.959 0.54,1.301c0.342,0.343 0.816,0.54 1.301,0.54l67.482,0c0.484,0 0.958,-0.197 1.301,-0.54c0.343,-0.342 0.539,-0.816 0.539,-1.301l0,-94.475c0,-0.485 -0.196,-0.959 -0.539,-1.301c-0.343,-0.343 -0.817,-0.54 -1.301,-0.54l-67.482,0c-0.485,0 -0.959,0.197 -1.301,0.54c-0.343,0.342 -0.54,0.816 -0.54,1.301l1.841,0l0,1.84l65.641,0l0,90.795l-63.801,0l0,-92.635l-1.84,0l0,1.84l0,-1.84Z" style="fill:#231f20;fill-rule:nonzero;"/><path d="M3.127,243.611l284.822,0l0,-2.842l-284.822,0" style="fill:#231f20;fill-rule:nonzero;"/></g></svg>