<?xml version="1.0" encoding="UTF-8" standalone="no"?><!DOCTYPE svg PUBLIC "-//W3C//DTD SVG 1.1//EN" "http://www.w3.org/Graphics/SVG/1.1/DTD/svg11.dtd"><svg width="100%" height="100%" viewBox="0 0 292 244" version="1.1" xmlns="http://www.w3.org/2000/svg" xmlns:xlink="http://www.w3.org/1999/xlink" xml:space="preserve" xmlns:serif="http://www.serif.com/" style="fill-rule:evenodd;clip-rule:evenodd;stroke-linejoin:round;stroke-miterlimit:1.41421;"><rect id="Artboard3" x="0" y="-54" width="291.076" height="297.69" style="fill:none;"/><clipPath id="_clip1"><rect x="0" y="-54" width="291.076" height="297.69"/></clipPath><g clip-path="url(#_clip1)"><g><path d="M195.846,220.117l0,1.525l6.442,0c0.402,0 0.795,-0.163 1.079,-0.447c0.284,-0.284 0.447,-0.677 0.447,-1.078l0,-14.035c0,-0.403 -0.163,-0.795 -0.447,-1.079c-0.284,-0.285 -0.677,-0.447 -1.079,-0.447l-6.442,0l0,1.526l1.524,-0.055c-0.024,-0.635 -0.149,-1.239 -0.31,-1.816c-0.243,-0.862 -0.573,-1.661 -0.854,-2.278c-0.141,-0.308 -0.269,-0.57 -0.368,-0.766c-0.05,-0.098 -0.092,-0.18 -0.124,-0.241c-0.032,-0.06 -0.057,-0.108 -0.058,-0.111l-1.353,0.705l1.116,1.039l5.601,-6.021c0.556,-0.596 0.544,-1.524 -0.026,-2.106l-9.713,-9.922c-0.579,-0.592 -1.526,-0.614 -2.132,-0.047l-5.876,5.495l1.043,1.114l0.709,-1.35l-0.521,0.992l0.585,-0.956l-0.064,-0.036l-0.521,0.992l0.585,-0.956l-0.152,0.248l0.155,-0.246l-0.003,-0.002l-0.152,0.248l0.155,-0.246c-0.007,-0.004 -0.079,-0.052 -0.168,-0.111c-0.326,-0.215 -0.947,-0.618 -1.727,-0.986c-0.784,-0.365 -1.731,-0.718 -2.821,-0.764l-0.055,1.524l1.525,0l0,-6.53c0,-0.402 -0.163,-0.795 -0.447,-1.079c-0.284,-0.284 -0.677,-0.446 -1.078,-0.446l-14.036,0c-0.401,0 -0.794,0.162 -1.078,0.446c-0.284,0.284 -0.447,0.677 -0.447,1.079l0,6.53l1.522,0l-1.332,-0.737c-0.074,0.14 -0.185,0.363 -0.19,0.737l1.522,0l-1.332,-0.737l1.324,0.733l-1.129,-1.007c-0.051,0.058 -0.115,0.133 -0.195,0.274l1.324,0.733l-1.129,-1.007l1.102,0.983l-0.907,-1.165c-0.041,0.033 -0.095,0.072 -0.195,0.182l1.102,0.983l-0.907,-1.165l0.778,1l-0.658,-1.085c-0.018,0.013 -0.044,0.025 -0.12,0.085l0.778,1l-0.658,-1.085l0.25,0.412l-0.232,-0.422l-0.018,0.01l0.25,0.412l-0.232,-0.422c-0.011,0.007 -0.092,0.048 -0.196,0.098c-0.373,0.181 -1.076,0.502 -1.691,0.781c-0.309,0.141 -0.598,0.271 -0.822,0.373c-0.113,0.051 -0.208,0.095 -0.285,0.131l-0.104,0.049c-0.034,0.016 -0.055,0.026 -0.113,0.056l0.721,1.345l1.1,-1.058l-5.389,-5.602c-0.287,-0.298 -0.675,-0.465 -1.089,-0.468c-0.413,-0.003 -0.804,0.158 -1.095,0.452l-9.607,9.714c-0.563,0.569 -0.59,1.477 -0.062,2.079l5.653,6.441l1.146,-1.006l-1.356,-0.699c-0.023,0.046 -0.139,0.268 -0.288,0.583c-0.225,0.476 -0.54,1.184 -0.815,1.987c-0.272,0.808 -0.516,1.698 -0.554,2.636l1.525,0.055l0,-1.526l-9.06,0c-0.402,0 -0.795,0.162 -1.079,0.447c-0.284,0.284 -0.447,0.676 -0.447,1.079l0,14.035c0,0.401 0.163,0.794 0.447,1.078c0.284,0.284 0.677,0.447 1.079,0.447l9.06,0l0,-1.521l-0.641,1.38c0.131,0.058 0.326,0.138 0.641,0.141l0,-1.521l-0.641,1.38l0.634,-1.367l-1.027,1.102c0.067,0.056 0.139,0.14 0.393,0.265l0.634,-1.367l-1.027,1.102l0.948,-1.016l-1.105,0.844c0.024,0.028 0.044,0.064 0.157,0.172l0.948,-1.016l-1.105,0.844l0.699,-0.534l-0.727,0.495l0.028,0.039l0.699,-0.534l-0.727,0.495l0.099,-0.067l-0.1,0.066l0.001,0.001l0.099,-0.067l-0.1,0.066c0.006,0.008 0.047,0.074 0.096,0.159c0.179,0.304 0.497,0.876 0.772,1.376c0.275,0.501 0.514,0.944 0.55,1.01l1.344,-0.722l-1.028,-1.127l-5.6,5.107c-0.31,0.282 -0.491,0.683 -0.498,1.102c-0.007,0.418 0.161,0.825 0.461,1.118l9.712,9.464c0.296,0.289 0.7,0.446 1.113,0.433c0.413,-0.014 0.806,-0.195 1.084,-0.502l5.177,-5.724l-1.132,-1.024l-0.71,1.351l0.095,0.046c0.084,0.039 0.169,0.075 0.29,0.127c0.411,0.173 1.164,0.483 1.816,0.757c0.324,0.136 0.623,0.263 0.828,0.354c0.1,0.044 0.18,0.082 0.208,0.096l0.007,0.003l0.127,-0.251l-0.134,0.247l0.007,0.004l0.127,-0.251l-0.134,0.247l0.564,-1.039l-0.673,0.971c0.075,0.052 0.095,0.06 0.109,0.068l0.564,-1.039l-0.673,0.971l0.834,-1.205l-1.031,1.041c0.106,0.103 0.157,0.136 0.197,0.164l0.834,-1.205l-1.031,1.041l1.064,-1.073l-1.279,0.805c0.092,0.143 0.161,0.214 0.215,0.268l1.064,-1.073l-1.279,0.805l1.286,-0.81l-1.43,0.514c0.047,0.13 0.098,0.223 0.144,0.296l1.286,-0.81l-1.43,0.514l1.432,-0.515l-1.522,0c0,0.213 0.043,0.385 0.09,0.515l1.432,-0.515l-1.522,0l0,8.972c0,0.401 0.163,0.794 0.447,1.078c0.284,0.284 0.677,0.447 1.078,0.447l14.036,0c0.401,0 0.794,-0.163 1.078,-0.447c0.284,-0.284 0.447,-0.677 0.447,-1.078l0,-8.972l-1.525,0l0.053,1.525c1.276,-0.054 2.376,-0.502 3.23,-0.912c0.424,-0.208 0.783,-0.413 1.049,-0.572c0.133,-0.08 0.242,-0.149 0.32,-0.197l0.085,-0.054l0.009,-0.005l0.002,-0.001l-0.487,-0.819l0.443,0.844l0.044,-0.025l-0.487,-0.819l0.443,0.844l-0.709,-1.351l-1.066,1.092l5.738,5.6c0.596,0.582 1.549,0.578 2.14,-0.009l9.781,-9.714c0.306,-0.303 0.469,-0.721 0.45,-1.151c-0.019,-0.43 -0.22,-0.831 -0.552,-1.106l-5.566,-4.61l-0.973,1.174l1.345,0.721c0.003,-0.006 0.038,-0.07 0.084,-0.154c0.166,-0.3 0.522,-0.938 0.838,-1.492c0.157,-0.275 0.306,-0.532 0.41,-0.707c0.052,-0.086 0.094,-0.154 0.108,-0.175l0.003,-0.004l-0.685,-0.463l0.643,0.519l0.042,-0.056l-0.685,-0.463l0.643,0.519l-1.094,-0.883l0.958,1.028c0.086,-0.081 0.113,-0.118 0.136,-0.145l-1.094,-0.883l0.958,1.028l-1.021,-1.097l0.792,1.272c0.126,-0.079 0.184,-0.133 0.229,-0.175l-1.021,-1.097l0.792,1.272l-0.801,-1.287l0.532,1.42c0.124,-0.047 0.205,-0.093 0.269,-0.133l-0.801,-1.287l0.532,1.42l-0.534,-1.425l0,1.522c0.24,-0.002 0.41,-0.052 0.534,-0.097l-0.534,-1.425l0,1.522l0,-1.525l0,-1.526c-0.316,0.004 -0.509,0.083 -0.641,0.141c-0.254,0.123 -0.329,0.208 -0.398,0.266c-0.121,0.112 -0.151,0.159 -0.187,0.203c-0.06,0.078 -0.088,0.121 -0.12,0.17c-0.112,0.172 -0.237,0.384 -0.392,0.652c-0.23,0.395 -0.505,0.883 -0.733,1.29c-0.114,0.204 -0.216,0.387 -0.294,0.528c-0.08,0.144 -0.13,0.234 -0.158,0.286c-0.343,0.641 -0.189,1.431 0.372,1.896l4.272,3.537l-7.523,7.471l-4.663,-4.552c-0.472,-0.46 -1.192,-0.565 -1.775,-0.258c-0.084,0.045 -0.109,0.061 -0.146,0.083c-0.12,0.075 -0.276,0.175 -0.505,0.309c-0.336,0.196 -0.802,0.445 -1.294,0.638c-0.49,0.196 -1.005,0.327 -1.394,0.337c-0.819,0.03 -1.472,0.706 -1.472,1.525l0,7.446l-10.984,0l0,-7.446c-0.006,-0.388 -0.126,-0.622 -0.206,-0.767c-0.086,-0.146 -0.156,-0.223 -0.211,-0.283c-0.11,-0.113 -0.17,-0.155 -0.219,-0.192c-0.091,-0.065 -0.134,-0.089 -0.175,-0.112c-0.074,-0.041 -0.123,-0.065 -0.178,-0.092c-0.197,-0.094 -0.458,-0.207 -0.78,-0.344c-0.477,-0.203 -1.062,-0.446 -1.543,-0.645c-0.241,-0.1 -0.455,-0.189 -0.612,-0.256c-0.079,-0.033 -0.144,-0.06 -0.186,-0.079l-0.043,-0.019l-0.002,-0.001l-0.401,0.864l0.444,-0.842l-0.043,-0.022l-0.401,0.864l0.444,-0.842c-0.616,-0.324 -1.376,-0.19 -1.842,0.326l-4.115,4.55l-7.42,-7.23l4.405,-4.016c0.517,-0.472 0.647,-1.232 0.316,-1.849c-0.055,-0.103 -0.424,-0.784 -0.794,-1.453c-0.185,-0.335 -0.369,-0.663 -0.518,-0.921c-0.075,-0.13 -0.14,-0.239 -0.202,-0.339c-0.033,-0.052 -0.063,-0.097 -0.114,-0.168c-0.028,-0.038 -0.057,-0.079 -0.133,-0.163c-0.043,-0.043 -0.092,-0.097 -0.209,-0.186c-0.061,-0.045 -0.139,-0.1 -0.272,-0.163c-0.133,-0.059 -0.328,-0.139 -0.644,-0.142l-7.534,0l0,-10.984l7.534,0c0.819,0 1.496,-0.653 1.524,-1.472c0.009,-0.287 0.079,-0.69 0.194,-1.113c0.172,-0.636 0.438,-1.318 0.669,-1.843c0.116,-0.263 0.222,-0.488 0.303,-0.654c0.082,-0.167 0.134,-0.267 0.155,-0.307c0.287,-0.557 0.203,-1.234 -0.21,-1.705l-4.715,-5.372l7.507,-7.591l4.305,4.475c0.473,0.491 1.22,0.609 1.82,0.287l-0.355,-0.663l0.33,0.676l0.025,-0.013l-0.355,-0.663l0.33,0.676c0.015,-0.007 0.1,-0.047 0.208,-0.097c0.389,-0.178 1.15,-0.52 1.814,-0.825c0.333,-0.153 0.642,-0.296 0.881,-0.412c0.122,-0.058 0.223,-0.108 0.319,-0.159c0.05,-0.027 0.095,-0.051 0.171,-0.099c0.041,-0.027 0.086,-0.053 0.181,-0.131c0.049,-0.043 0.111,-0.094 0.214,-0.218c0.051,-0.065 0.114,-0.149 0.185,-0.291c0.066,-0.141 0.151,-0.352 0.154,-0.67l0,-5.005l10.984,0l0,5.005c0,0.82 0.651,1.495 1.47,1.525c0.262,0.008 0.594,0.076 0.939,0.193c0.518,0.173 1.057,0.451 1.47,0.696c0.208,0.123 0.384,0.236 0.521,0.327c0.069,0.045 0.128,0.084 0.182,0.12l0.084,0.055c0.034,0.021 0.063,0.039 0.145,0.083c0.575,0.303 1.277,0.208 1.751,-0.236l4.787,-4.476l7.651,7.815l-4.61,4.955c-0.439,0.473 -0.534,1.171 -0.236,1.744c0.022,0.042 0.047,0.088 0.092,0.174c0.151,0.291 0.476,0.943 0.759,1.678c0.141,0.367 0.271,0.754 0.365,1.116c0.094,0.361 0.148,0.699 0.156,0.943c0.029,0.819 0.705,1.472 1.525,1.472l4.917,0l0,10.984l-4.917,0l0,1.526Z" style="fill:#231f20;fill-rule:nonzero;"/><path d="M180.046,212.079c0,4.157 -3.368,7.525 -7.525,7.525c-4.156,0 -7.524,-3.368 -7.524,-7.525c0,-4.156 3.368,-7.524 7.524,-7.524c4.157,0 7.525,3.368 7.525,7.524Z" style="fill:#f4661e;fill-rule:nonzero;"/><path d="M128.626,83.427l0,1.526l6.538,0c0.402,0 0.795,-0.163 1.079,-0.448c0.284,-0.283 0.447,-0.676 0.447,-1.078l0,-14.035c0,-0.402 -0.163,-0.795 -0.447,-1.079c-0.284,-0.284 -0.677,-0.447 -1.079,-0.447l-6.538,0l0,1.526l1.525,-0.054c-0.024,-0.636 -0.151,-1.237 -0.313,-1.806c-0.245,-0.851 -0.578,-1.627 -0.861,-2.226c-0.141,-0.298 -0.271,-0.551 -0.37,-0.74c-0.05,-0.094 -0.092,-0.172 -0.123,-0.23l-0.038,-0.07l-0.01,-0.019l-0.059,0.032l0.059,-0.031l0,-0.001l-0.059,0.032l0.059,-0.031l-1.353,0.704l1.111,1.045l5.601,-5.96c0.562,-0.597 0.551,-1.529 -0.022,-2.114l-9.713,-9.891c-0.583,-0.595 -1.531,-0.613 -2.136,-0.04l-5.829,5.51l1.048,1.109l0.71,-1.35l-0.528,1.004l0.595,-0.966l-0.067,-0.038l-0.528,1.004l0.595,-0.966c-0.023,-0.016 -0.097,-0.065 -0.19,-0.127c-0.334,-0.222 -0.945,-0.618 -1.71,-0.977c-0.769,-0.356 -1.699,-0.698 -2.768,-0.742l-0.056,1.525l1.526,0l0,-6.774c0,-0.403 -0.163,-0.796 -0.447,-1.079c-0.284,-0.285 -0.677,-0.447 -1.079,-0.447l-14.035,0c-0.402,0 -0.794,0.162 -1.079,0.447c-0.284,0.283 -0.447,0.676 -0.447,1.079l0,6.774l1.522,0l-1.326,-0.747c-0.075,0.141 -0.19,0.365 -0.196,0.747l1.522,0l-1.326,-0.747l1.318,0.742l-1.121,-1.016c-0.051,0.058 -0.116,0.133 -0.197,0.274l1.318,0.742l-1.121,-1.016l1.095,0.991l-0.899,-1.172c-0.041,0.033 -0.095,0.072 -0.196,0.181l1.095,0.991l-0.899,-1.172l0.769,1.003l-0.649,-1.085c-0.018,0.012 -0.043,0.025 -0.12,0.082l0.769,1.003l-0.649,-1.085l0.237,0.396l-0.22,-0.405l-0.017,0.009l0.237,0.396l-0.22,-0.405c-0.012,0.006 -0.095,0.048 -0.2,0.098c-0.379,0.182 -1.093,0.503 -1.718,0.782c-0.314,0.14 -0.607,0.271 -0.835,0.373c-0.114,0.051 -0.211,0.095 -0.289,0.131l-0.105,0.049c-0.035,0.017 -0.057,0.026 -0.119,0.059l0.721,1.344l1.098,-1.059l-5.413,-5.603c-0.283,-0.293 -0.68,-0.462 -1.088,-0.466c-0.408,-0.002 -0.807,0.163 -1.094,0.453l-9.618,9.713c-0.567,0.573 -0.59,1.49 -0.054,2.09l5.647,6.319l1.138,-1.016l-1.356,-0.699l-0.001,0.001c-0.01,0.02 -0.051,0.096 -0.103,0.195c-0.184,0.356 -0.542,1.069 -0.872,1.933c-0.327,0.87 -0.643,1.876 -0.688,2.956l1.525,0.054l0,-1.526l-8.964,0c-0.402,0 -0.795,0.163 -1.079,0.447c-0.284,0.284 -0.447,0.677 -0.447,1.079l0,14.035c0,0.402 0.163,0.795 0.447,1.078c0.284,0.285 0.677,0.448 1.079,0.448l8.964,0l0,-1.522l-0.665,1.368c0.134,0.062 0.335,0.149 0.665,0.154l0,-1.522l-0.665,1.368l0.659,-1.354l-1.053,1.077c0.066,0.058 0.135,0.144 0.394,0.277l0.659,-1.354l-1.053,1.077l0.968,-0.991l-1.12,0.817c0.023,0.028 0.042,0.063 0.152,0.174l0.968,-0.991l-1.12,0.817l0.685,-0.5l-0.711,0.462l0.026,0.038l0.685,-0.5l-0.711,0.462l0.036,-0.023l-0.037,0.023l0.001,0l0.036,-0.023l-0.037,0.023c0.008,0.011 0.049,0.081 0.099,0.17c0.181,0.321 0.499,0.921 0.774,1.445c0.138,0.263 0.267,0.509 0.366,0.699c0.049,0.095 0.092,0.176 0.124,0.239c0.034,0.064 0.055,0.104 0.073,0.138l1.344,-0.721l-1.034,-1.122l-5.601,5.168c-0.308,0.284 -0.485,0.68 -0.491,1.099c-0.006,0.419 0.16,0.82 0.459,1.113l9.713,9.495c0.295,0.289 0.696,0.446 1.109,0.434c0.413,-0.011 0.803,-0.19 1.083,-0.495l5.225,-5.708l-1.126,-1.03l-0.71,1.349l0.097,0.048c0.085,0.039 0.17,0.075 0.292,0.127c0.417,0.176 1.181,0.489 1.843,0.766c0.329,0.138 0.633,0.266 0.841,0.358c0.102,0.045 0.183,0.083 0.213,0.098l0.007,0.003l0.001,0l0.457,-0.881l-0.537,0.834c0.064,0.04 0.075,0.044 0.08,0.047l0.457,-0.881l-0.537,0.834l0.778,-1.209l-0.959,1.07c0.101,0.09 0.146,0.115 0.181,0.139l0.778,-1.209l-0.959,1.07l1.006,-1.121l-1.227,0.875c0.101,0.138 0.169,0.199 0.221,0.246l1.006,-1.121l-1.227,0.875l1.237,-0.883l-1.404,0.582c0.058,0.139 0.118,0.23 0.167,0.301l1.237,-0.883l-1.404,0.582l1.407,-0.583l-1.523,0c0.001,0.253 0.06,0.446 0.116,0.583l1.407,-0.583l-1.523,0l0,8.728c0,0.402 0.163,0.795 0.447,1.078c0.285,0.285 0.677,0.448 1.079,0.448l14.035,0c0.402,0 0.795,-0.163 1.079,-0.448c0.284,-0.283 0.447,-0.676 0.447,-1.078l0,-8.728l-1.526,0l0.054,1.525c1.277,-0.054 2.371,-0.505 3.214,-0.917c0.42,-0.208 0.774,-0.415 1.035,-0.574c0.131,-0.08 0.238,-0.149 0.314,-0.197l0.082,-0.052l0.008,-0.005l0.001,0l-0.516,-0.856l0.465,0.884l0.051,-0.028l-0.516,-0.856l0.465,0.884l-0.71,-1.35l-1.067,1.089l5.714,5.601c0.595,0.583 1.552,0.58 2.143,-0.008l9.77,-9.713c0.3,-0.3 0.465,-0.718 0.448,-1.142c-0.016,-0.424 -0.213,-0.828 -0.537,-1.103l-5.572,-4.732l-0.988,1.163l1.345,0.721c0.031,-0.058 0.134,-0.253 0.281,-0.53c0.219,-0.411 0.528,-0.991 0.785,-1.459c0.127,-0.233 0.243,-0.44 0.32,-0.573c0.038,-0.065 0.068,-0.114 0.071,-0.12l-0.702,-0.453l0.66,0.512l0.042,-0.059l-0.702,-0.453l0.66,0.512l-1.113,-0.862l0.979,1.011c0.085,-0.084 0.112,-0.121 0.134,-0.149l-1.113,-0.862l0.979,1.011l-1.043,-1.077l0.812,1.26c0.127,-0.083 0.185,-0.14 0.231,-0.183l-1.043,-1.077l0.812,1.26l-0.822,-1.275l0.547,1.415c0.128,-0.049 0.211,-0.099 0.275,-0.14l-0.822,-1.275l0.547,1.415l-0.548,-1.42l0,1.523c0.246,-0.002 0.422,-0.055 0.548,-0.103l-0.548,-1.42l0,1.523l0,-1.526l0,-1.525c-0.331,0.003 -0.531,0.09 -0.666,0.151c-0.259,0.133 -0.331,0.221 -0.4,0.281c-0.118,0.116 -0.147,0.163 -0.182,0.207c-0.058,0.079 -0.085,0.123 -0.117,0.174c-0.109,0.177 -0.233,0.398 -0.387,0.678c-0.229,0.414 -0.503,0.923 -0.729,1.348c-0.225,0.422 -0.408,0.767 -0.436,0.818c-0.339,0.634 -0.19,1.418 0.358,1.883l4.307,3.659l-7.524,7.481l-4.639,-4.547c-0.474,-0.464 -1.191,-0.569 -1.778,-0.26c-0.089,0.048 -0.114,0.066 -0.153,0.089c-0.122,0.076 -0.274,0.176 -0.497,0.309c-0.328,0.196 -0.784,0.443 -1.266,0.635c-0.481,0.194 -0.986,0.324 -1.375,0.335c-0.818,0.028 -1.471,0.705 -1.471,1.524l0,7.202l-10.984,0l0,-7.202c0,-0.195 -0.037,-0.356 -0.079,-0.481c-0.086,-0.25 -0.181,-0.375 -0.25,-0.467c-0.141,-0.172 -0.216,-0.221 -0.274,-0.269c-0.108,-0.082 -0.154,-0.105 -0.198,-0.131c-0.078,-0.044 -0.127,-0.068 -0.183,-0.095c-0.198,-0.095 -0.462,-0.208 -0.788,-0.347c-0.485,-0.205 -1.081,-0.452 -1.572,-0.655c-0.245,-0.101 -0.464,-0.192 -0.625,-0.259c-0.08,-0.035 -0.146,-0.063 -0.189,-0.082l-0.044,-0.019l-0.002,-0.001l-0.403,0.871l0.446,-0.849l-0.043,-0.022l-0.403,0.871l0.446,-0.849c-0.611,-0.321 -1.369,-0.19 -1.835,0.321l-4.16,4.545l-7.437,-7.27l4.42,-4.078c0.511,-0.472 0.639,-1.23 0.31,-1.842c-0.003,-0.006 -0.039,-0.074 -0.085,-0.162c-0.165,-0.317 -0.515,-0.989 -0.834,-1.587c-0.16,-0.301 -0.31,-0.581 -0.433,-0.8c-0.062,-0.11 -0.115,-0.203 -0.17,-0.293c-0.03,-0.048 -0.056,-0.091 -0.108,-0.163c-0.029,-0.039 -0.059,-0.082 -0.141,-0.17c-0.045,-0.046 -0.098,-0.104 -0.222,-0.194c-0.064,-0.046 -0.146,-0.101 -0.279,-0.16c-0.133,-0.056 -0.325,-0.126 -0.615,-0.128l-7.439,0l0,-10.985l7.439,0.001c0.819,0 1.496,-0.653 1.525,-1.472c0.009,-0.287 0.077,-0.677 0.192,-1.085c0.17,-0.613 0.434,-1.265 0.665,-1.766c0.115,-0.252 0.221,-0.466 0.302,-0.625c0.041,-0.079 0.075,-0.145 0.102,-0.196l0.065,-0.123c0.289,-0.561 0.202,-1.245 -0.219,-1.716l-4.69,-5.249l7.511,-7.585l4.329,4.48c0.474,0.491 1.217,0.607 1.818,0.285l-0.381,-0.71l0.352,0.725l0.029,-0.015l-0.381,-0.71l0.352,0.725c0.013,-0.006 0.099,-0.046 0.208,-0.096c0.393,-0.177 1.165,-0.519 1.84,-0.824c0.338,-0.153 0.651,-0.297 0.894,-0.412c0.122,-0.058 0.224,-0.108 0.321,-0.159c0.051,-0.027 0.096,-0.05 0.172,-0.097c0.041,-0.027 0.086,-0.053 0.182,-0.13c0.048,-0.042 0.111,-0.092 0.215,-0.216c0.052,-0.064 0.116,-0.148 0.188,-0.291c0.068,-0.142 0.156,-0.356 0.159,-0.678l0,-5.25l10.984,0l0,5.25c0,0.819 0.651,1.494 1.47,1.524c0.263,0.008 0.592,0.076 0.931,0.19c0.509,0.171 1.037,0.445 1.441,0.686c0.202,0.121 0.374,0.233 0.509,0.322c0.068,0.045 0.125,0.084 0.179,0.12l0.085,0.056c0.034,0.02 0.064,0.04 0.147,0.086c0.58,0.304 1.283,0.207 1.758,-0.243l4.741,-4.482l7.637,7.778l-4.598,4.892c-0.445,0.473 -0.542,1.172 -0.242,1.749l0.047,0.086c0.057,0.106 0.165,0.304 0.301,0.577c0.203,0.407 0.463,0.973 0.667,1.554c0.207,0.578 0.347,1.178 0.357,1.573c0.029,0.819 0.706,1.472 1.525,1.472l5.013,0l0,10.984l-5.013,0l0,1.525Z" style="fill:#231f20;fill-rule:nonzero;"/><path d="M112.826,75.633c0,4.157 -3.368,7.525 -7.524,7.525c-4.157,0 -7.525,-3.368 -7.525,-7.525c0,-4.155 3.368,-7.524 7.525,-7.524c4.156,0 7.524,3.369 7.524,7.524Z" style="fill:#f4661e;fill-rule:nonzero;"/><path d="M30.559,74.994c0,2.201 -1.783,3.985 -3.983,3.985c-2.201,0 -3.984,-1.784 -3.984,-3.985c0,-2.2 1.783,-3.984 3.984,-3.984c2.2,0 3.983,1.784 3.983,3.984Z" style="fill:#31c0d8;fill-rule:nonzero;"/><path d="M266.331,201.408c0,2.2 -1.782,3.983 -3.984,3.983c-2.203,0 -3.985,-1.783 -3.985,-3.983c0,-2.201 1.782,-3.985 3.985,-3.985c2.202,0 3.984,1.784 3.984,3.985Z" style="fill:#31c0d8;fill-rule:nonzero;"/><path d="M157.976,33.86c0,2.201 -1.784,3.984 -3.984,3.984c-2.201,0 -3.984,-1.783 -3.984,-3.984c0,-2.2 1.783,-3.984 3.984,-3.984c2.2,0 3.984,1.784 3.984,3.984Z" style="fill:#dbdcdc;fill-rule:nonzero;"/><path d="M130.887,242.542c0,2.201 -1.783,3.984 -3.983,3.984c-2.201,0 -3.984,-1.783 -3.984,-3.984c0,-2.2 1.783,-3.984 3.984,-3.984c2.2,0 3.983,1.784 3.983,3.984Z" style="fill:#dbdcdc;fill-rule:nonzero;"/><path d="M43.602,226.49c0,2.2 -1.783,3.983 -3.984,3.983c-2.2,0 -3.983,-1.783 -3.983,-3.983c0,-2.201 1.783,-3.985 3.983,-3.985c2.201,0 3.984,1.784 3.984,3.985Z" style="fill:#ffd248;fill-rule:nonzero;"/><path d="M237.236,44.896c0,2.201 -1.782,3.984 -3.985,3.984c-2.203,0 -3.985,-1.783 -3.985,-3.984c0,-2.2 1.782,-3.984 3.985,-3.984c2.203,0 3.985,1.784 3.985,3.984Z" style="fill:#ffd248;fill-rule:nonzero;"/><path d="M268.925,72.551l0,86.282c0,4.986 -4.046,9.03 -9.032,9.03l-20.565,0l-24.582,24.58l0,-24.58l-93.305,0c-4.986,0 -9.03,-4.044 -9.03,-9.03l0,-86.282c0,-4.986 4.044,-9.029 9.03,-9.029l138.452,0c4.986,0 9.032,4.043 9.032,9.029Z" style="fill:#f1f2f2;fill-rule:nonzero;"/><path d="M259.893,63.522l0,-1.505l-138.452,0c-5.818,0.001 -10.533,4.716 -10.534,10.534l0,86.282c0.001,5.818 4.716,10.533 10.534,10.535l91.8,0l0,23.075c0,0.609 0.367,1.158 0.929,1.39c0.563,0.233 1.21,0.105 1.64,-0.326l24.141,-24.139l19.942,0c5.816,-0.002 10.533,-4.717 10.533,-10.535l0,-86.282c0,-5.818 -4.717,-10.533 -10.533,-10.534l0,3.009c2.081,0.001 3.955,0.841 5.322,2.205c1.36,1.366 2.202,3.238 2.202,5.32l0,86.282c0,2.082 -0.842,3.954 -2.202,5.32c-1.367,1.365 -3.241,2.204 -5.322,2.205l-20.565,0c-0.396,0 -0.786,0.161 -1.068,0.441l-22.009,22.011l0,-20.947c0,-0.397 -0.161,-0.784 -0.441,-1.064c-0.28,-0.28 -0.668,-0.441 -1.064,-0.441l-93.305,0c-2.082,-0.001 -3.954,-0.84 -5.32,-2.205c-1.365,-1.366 -2.204,-3.238 -2.204,-5.32l0,-86.282c0,-2.082 0.839,-3.954 2.204,-5.32c1.366,-1.364 3.238,-2.204 5.32,-2.205l138.452,0l0,-1.504Z" style="fill:#231f20;fill-rule:nonzero;"/><path d="M194.051,83.122l-56.751,0l0,3.051l56.751,0" style="fill:#231f20;fill-rule:nonzero;"/><path d="M194.051,95.326l-56.751,0l0,3.052l56.751,0" style="fill:#231f20;fill-rule:nonzero;"/><path d="M194.051,106.921l-56.751,0l0,3.051l56.751,0" style="fill:#231f20;fill-rule:nonzero;"/><path d="M194.051,119.125l-56.751,0l0,3.051l56.751,0" style="fill:#231f20;fill-rule:nonzero;"/><path d="M194.051,131.329l-38.444,0l0,3.052l38.444,0" style="fill:#231f20;fill-rule:nonzero;"/><path d="M24.284,114.942l0,86.282c0,4.986 4.043,9.029 9.029,9.029l20.568,0l24.58,24.58l0,-24.58l93.305,0c4.986,0 9.029,-4.043 9.029,-9.029l0,-86.282c0,-4.986 -4.043,-9.029 -9.029,-9.029l-138.453,0c-4.986,0 -9.029,4.043 -9.029,9.029Z" style="fill:#ffd248;fill-rule:nonzero;"/><path d="M33.313,105.913l0,1.504l138.453,0c2.082,0.001 3.953,0.84 5.32,2.204c1.364,1.367 2.204,3.239 2.204,5.321l0,86.282c0,2.082 -0.84,3.953 -2.204,5.32c-1.367,1.365 -3.238,2.204 -5.32,2.204l-93.305,0c-0.397,0 -0.784,0.161 -1.064,0.441c-0.28,0.281 -0.441,0.668 -0.441,1.064l0,20.947l-22.011,-22.011c-0.281,-0.28 -0.668,-0.441 -1.064,-0.441l-20.568,0c-2.082,0 -3.953,-0.839 -5.32,-2.204c-1.364,-1.367 -2.204,-3.238 -2.204,-5.32l0,-86.282c0,-2.082 0.84,-3.954 2.204,-5.321c1.367,-1.364 3.238,-2.203 5.32,-2.204l0,-1.504l0,-1.506c-5.818,0.001 -10.533,4.716 -10.534,10.535l0,86.282c0.001,5.818 4.716,10.533 10.534,10.534l19.944,0l24.14,24.14c0.43,0.43 1.077,0.559 1.64,0.326c0.562,-0.233 0.929,-0.782 0.929,-1.391l0,-23.075l91.8,0c5.818,-0.001 10.533,-4.716 10.534,-10.534l0,-86.282c-0.001,-5.819 -4.716,-10.534 -10.534,-10.535l-138.453,0l0,1.506Z" style="fill:#231f20;fill-rule:nonzero;"/><path d="M222.121,195.403l0,9.074l20.454,-14.156l-20.454,-14.158l0,7.035l-126.926,0l0,12.205l126.926,0Z" style="fill:#ffd248;fill-rule:nonzero;"/><path d="M59.192,81.291l0,-9.469l-20.453,14.156l20.453,14.158l0,-7.25l69.565,0l0,-11.595l-69.565,0Z" style="fill:#f1f2f2;fill-rule:nonzero;"/><path d="M86.799,155.016c0,10.637 -8.622,19.258 -19.258,19.258c-10.637,0 -19.259,-8.621 -19.259,-19.258c0,-10.636 8.622,-19.258 19.259,-19.258c10.636,0 19.258,8.622 19.258,19.258Z" style="fill:#fab246;fill-rule:nonzero;"/><path d="M91.758,154.653l-1.504,0c-0.002,6.239 -2.525,11.873 -6.612,15.963c-4.09,4.087 -9.724,6.611 -15.962,6.611c-6.239,0 -11.873,-2.524 -15.962,-6.611c-4.088,-4.09 -6.612,-9.724 -6.612,-15.963c0,-6.238 2.524,-11.871 6.612,-15.962c4.089,-4.087 9.723,-6.61 15.962,-6.611c6.238,0.001 11.872,2.524 15.962,6.611c4.087,4.091 6.61,9.724 6.612,15.962l3.009,0c-0.001,-14.129 -11.454,-25.582 -25.583,-25.583c-14.131,0.001 -25.583,11.454 -25.584,25.583c0.001,14.131 11.453,25.583 25.584,25.584c14.129,-0.001 25.582,-11.453 25.583,-25.584l-1.505,0Z" style="fill:#231f20;fill-rule:nonzero;"/><path d="M75.686,164.789l16.847,16.847l2.128,-2.129l-16.847,-16.847" style="fill:#231f20;fill-rule:nonzero;"/><path d="M254.597,111.498c0,14.308 -11.595,25.906 -25.904,25.906c-14.308,0 -25.906,-11.598 -25.906,-25.906c0,-14.307 11.598,-25.904 25.906,-25.904c14.309,0 25.904,11.597 25.904,25.904Z" style="fill:#dbdcdc;fill-rule:nonzero;"/><path d="M206.326,131.084l22.684,-45.095l19.216,45.009l2.764,-1.181l-20.479,-47.991c-0.232,-0.538 -0.756,-0.894 -1.342,-0.913c-0.58,-0.018 -1.129,0.305 -1.392,0.828l-24.139,47.99l2.688,1.353Z" style="fill:#231f20;fill-rule:nonzero;"/><path d="M214.798,113.023l26.85,0l0,-3.051l-26.85,0" style="fill:#231f20;fill-rule:nonzero;"/><path d="M57.832,39.453l3.382,2.924l-3.432,3.246l2.069,2.187l4.64,-4.389c0.308,-0.292 0.48,-0.702 0.47,-1.127c-0.009,-0.425 -0.199,-0.827 -0.52,-1.105l-4.64,-4.013l-1.969,2.277Z" style="fill:#231f20;fill-rule:nonzero;"/><path d="M63.463,41.017l-21.968,0l0,3.051l21.968,0" style="fill:#231f20;fill-rule:nonzero;"/><path d="M47.887,60.628l-3.382,-2.925l3.432,-3.246l-2.068,-2.187l-4.641,4.39c-0.308,0.291 -0.48,0.702 -0.47,1.126c0.009,0.425 0.199,0.827 0.52,1.105l4.64,4.013l1.969,-2.276Z" style="fill:#231f20;fill-rule:nonzero;"/><path d="M42.105,59.323l23.189,0l0,-3.051l-23.189,0" style="fill:#231f20;fill-rule:nonzero;"/><path d="M238.419,214.023l3.387,2.925l-3.435,3.246l2.069,2.187l4.643,-4.39c0.305,-0.291 0.476,-0.702 0.47,-1.127c-0.012,-0.424 -0.202,-0.827 -0.525,-1.104l-4.638,-4.014l-1.971,2.277Z" style="fill:#231f20;fill-rule:nonzero;"/><path d="M244.089,215.54l-21.968,0l0,3.051l21.968,0" style="fill:#231f20;fill-rule:nonzero;"/><path d="M228.479,235.198l-3.387,-2.924l3.436,-3.247l-2.069,-2.186l-4.64,4.389c-0.309,0.292 -0.481,0.702 -0.471,1.127c0.01,0.424 0.199,0.827 0.52,1.105l4.64,4.012l1.971,-2.276Z" style="fill:#231f20;fill-rule:nonzero;"/><path d="M222.731,233.847l23.188,0l0,-3.051l-23.188,0" style="fill:#231f20;fill-rule:nonzero;"/><path d="M140.351,53.221l4.272,0l0,-3.051l-4.272,0" style="fill:#231f20;fill-rule:nonzero;"/><path d="M148.894,53.221l3.661,0l0,-3.051l-3.661,0" style="fill:#231f20;fill-rule:nonzero;"/><path d="M156.827,53.221l3.661,0l0,-3.051l-3.661,0" style="fill:#231f20;fill-rule:nonzero;"/><path d="M263.006,184.419l4.271,0l0,-3.051l-4.271,0" style="fill:#231f20;fill-rule:nonzero;"/><path d="M270.938,184.419l4.272,0l0,-3.051l-4.272,0" style="fill:#231f20;fill-rule:nonzero;"/><path d="M278.871,184.419l4.272,0l0,-3.051l-4.272,0" style="fill:#231f20;fill-rule:nonzero;"/><path d="M1.831,94.106l4.271,0l0,-3.051l-4.271,0" style="fill:#231f20;fill-rule:nonzero;"/><path d="M10.374,94.106l3.661,0l0,-3.051l-3.661,0" style="fill:#231f20;fill-rule:nonzero;"/><path d="M18.307,94.106l3.661,0l0,-3.051l-3.661,0" style="fill:#231f20;fill-rule:nonzero;"/><path d="M108.619,224.693l3.662,0l0,-3.051l-3.662,0" style="fill:#231f20;fill-rule:nonzero;"/><path d="M116.552,224.693l3.662,0l0,-3.051l-3.662,0" style="fill:#231f20;fill-rule:nonzero;"/><path d="M124.485,224.693l4.272,0l0,-3.051l-4.272,0" style="fill:#231f20;fill-rule:nonzero;"/><path d="M4.882,145.365l0,3.661l3.051,0l0,-3.661" style="fill:#231f20;fill-rule:nonzero;"/><path d="M4.882,153.297l0,4.272l3.051,0l0,-4.272" style="fill:#231f20;fill-rule:nonzero;"/><path d="M0,153.297l4.272,0l0,-3.051l-4.272,0" style="fill:#231f20;fill-rule:nonzero;"/><path d="M9.153,153.297l4.272,0l0,-3.051l-4.272,0" style="fill:#231f20;fill-rule:nonzero;"/><path d="M283.143,112.413l0,3.661l3.051,0l0,-3.661" style="fill:#231f20;fill-rule:nonzero;"/><path d="M283.143,120.345l0,3.662l3.051,0l0,-3.662" style="fill:#231f20;fill-rule:nonzero;"/><path d="M278.261,120.345l3.661,0l0,-3.051l-3.661,0" style="fill:#231f20;fill-rule:nonzero;"/><path d="M286.804,120.345l4.272,0l0,-3.051l-4.272,0" style="fill:#231f20;fill-rule:nonzero;"/><path d="M76.278,243.61l0,4.271l3.051,0l0,-4.271" style="fill:#231f20;fill-rule:nonzero;"/><path d="M194.661,31.863l0,4.272l3.051,0l0,-4.272" style="fill:#231f20;fill-rule:nonzero;"/><path d="M194.661,39.796l0,4.272l3.051,0l0,-4.272" style="fill:#231f20;fill-rule:nonzero;"/><path d="M189.779,39.796l4.272,0l0,-3.051l-4.272,0" style="fill:#231f20;fill-rule:nonzero;"/><path d="M198.932,39.796l3.662,0l0,-3.051l-3.662,0" style="fill:#231f20;fill-rule:nonzero;"/><path d="M106.179,134.381l56.75,0l0,-3.052l-56.75,0" style="fill:#231f20;fill-rule:nonzero;"/><path d="M106.179,146.585l56.75,0l0,-3.051l-56.75,0" style="fill:#231f20;fill-rule:nonzero;"/><path d="M106.179,158.179l56.75,0l0,-3.051l-56.75,0" style="fill:#231f20;fill-rule:nonzero;"/><path d="M106.179,170.384l56.75,0l0,-3.051l-56.75,0" style="fill:#231f20;fill-rule:nonzero;"/><path d="M106.179,182.588l38.444,0l0,-3.051l-38.444,0" style="fill:#231f20;fill-rule:nonzero;"/></g><path d="M0.288,243.463l284.822,0l0,-2.843l-284.822,0" style="fill:#231f20;fill-rule:nonzero;"/></g></svg>