<?xml version="1.0" encoding="UTF-8" standalone="no"?><!DOCTYPE svg PUBLIC "-//W3C//DTD SVG 1.1//EN" "http://www.w3.org/Graphics/SVG/1.1/DTD/svg11.dtd"><svg width="100%" height="100%" viewBox="0 0 535 540" version="1.1" xmlns="http://www.w3.org/2000/svg" xmlns:xlink="http://www.w3.org/1999/xlink" xml:space="preserve" xmlns:serif="http://www.serif.com/" style="fill-rule:evenodd;clip-rule:evenodd;stroke-linejoin:round;stroke-miterlimit:1.41421;"><rect id="science" x="0" y="0" width="534.303" height="538.572" style="fill:none;"/><clipPath id="_clip1"><rect id="science1" serif:id="science" x="0" y="0" width="534.303" height="538.572"/></clipPath><g clip-path="url(#_clip1)"><path d="M534.303,267.166c0,147.534 -119.609,267.125 -267.153,267.125c-147.544,0 -267.15,-119.591 -267.15,-267.125c0,-147.553 119.606,-267.166 267.15,-267.166c147.544,0 267.153,119.613 267.153,267.166Z" style="fill:#ffda81;fill-rule:nonzero;"/><rect x="171.516" y="49.734" width="11.009" height="19.178" style="fill:#f7e6b0;fill-rule:nonzero;"/><rect x="171.516" y="84.819" width="11.009" height="15.903" style="fill:#f7e6b0;fill-rule:nonzero;"/><rect x="188.891" y="69.956" width="16.375" height="11.013" style="fill:#f7e6b0;fill-rule:nonzero;"/><rect x="149.597" y="69.956" width="15.906" height="11.013" style="fill:#f7e6b0;fill-rule:nonzero;"/><rect x="395.566" y="129.287" width="11.009" height="19.175" style="fill:#f7e6b0;fill-rule:nonzero;"/><rect x="395.566" y="164.369" width="11.009" height="15.903" style="fill:#f7e6b0;fill-rule:nonzero;"/><rect x="412.944" y="149.509" width="16.375" height="11.012" style="fill:#f7e6b0;fill-rule:nonzero;"/><rect x="373.647" y="149.509" width="15.909" height="11.012" style="fill:#f7e6b0;fill-rule:nonzero;"/><rect x="97.519" y="202.1" width="11.009" height="19.175" style="fill:#f7e6b0;fill-rule:nonzero;"/><rect x="97.519" y="237.184" width="11.009" height="15.903" style="fill:#f7e6b0;fill-rule:nonzero;"/><rect x="114.894" y="222.322" width="16.375" height="11.013" style="fill:#f7e6b0;fill-rule:nonzero;"/><rect x="75.6" y="222.322" width="15.906" height="11.013" style="fill:#f7e6b0;fill-rule:nonzero;"/><rect x="454.512" y="249.703" width="11.009" height="19.181" style="fill:#f7e6b0;fill-rule:nonzero;"/><rect x="454.512" y="284.791" width="11.009" height="15.906" style="fill:#f7e6b0;fill-rule:nonzero;"/><rect x="471.891" y="269.916" width="16.372" height="11.031" style="fill:#f7e6b0;fill-rule:nonzero;"/><rect x="432.594" y="269.916" width="15.906" height="11.031" style="fill:#f7e6b0;fill-rule:nonzero;"/><rect x="383.641" y="416.509" width="11.009" height="15.906" style="fill:#f7e6b0;fill-rule:nonzero;"/><path d="M417.391,412.669l-16.372,0l0,-8.097c3.131,-0.75 6.069,-1.719 8.797,-2.938l7.575,0l0,11.035Z" style="fill:#f7e6b0;fill-rule:nonzero;"/><rect x="361.722" y="406.353" width="15.906" height="6.316" style="fill:#f7e6b0;fill-rule:nonzero;"/><rect x="61.728" y="330.259" width="11.009" height="19.191" style="fill:#f7e6b0;fill-rule:nonzero;"/><rect x="61.728" y="365.353" width="11.009" height="15.906" style="fill:#f7e6b0;fill-rule:nonzero;"/><rect x="79.106" y="350.478" width="16.375" height="11.034" style="fill:#f7e6b0;fill-rule:nonzero;"/><rect x="39.809" y="350.478" width="15.906" height="11.034" style="fill:#f7e6b0;fill-rule:nonzero;"/><rect x="238.853" y="449.666" width="11.009" height="19.187" style="fill:#f7e6b0;fill-rule:nonzero;"/><rect x="238.853" y="484.759" width="11.009" height="15.906" style="fill:#f7e6b0;fill-rule:nonzero;"/><rect x="256.228" y="469.884" width="16.375" height="11.031" style="fill:#f7e6b0;fill-rule:nonzero;"/><rect x="216.934" y="469.884" width="15.906" height="11.031" style="fill:#f7e6b0;fill-rule:nonzero;"/><path d="M183.753,490.697l-42.912,0c-3.041,0 -5.507,-2.469 -5.507,-5.5l0,-269.413c-10.137,-8.278 -16.165,-20.675 -16.165,-33.812c0,-24.122 19.622,-43.747 43.743,-43.747c17.472,0 32.541,10.325 39.544,25.166l87.772,0l0,-28.785c-7.169,-0.653 -12.825,-6.628 -12.825,-13.965l0,-11.185c0,-7.772 6.322,-14.097 14.097,-14.097l74.422,0c7.772,0 14.094,6.325 14.094,14.097l0,11.185c0,7.234 -5.497,13.143 -12.528,13.934l0,115.35l22.509,37.116l43.247,71.25c0.522,0.878 0.794,1.843 0.794,2.878c0,19.5 -8.726,33.593 -24.222,40.465l-8.797,0l0,2.938c-4.885,1.187 -10.241,1.781 -16.041,1.781l-7.35,0l0,-4.719l-15.906,0l0,4.719l-89.275,0c-30.725,0 -49.069,-16.906 -49.069,-45.184c0,-1.035 0.278,-2 0.803,-2.878l43.441,-71.282l22.606,-37.087l0,-49.525l-87.728,0c-2.975,6.381 -7.472,11.99 -13.241,16.359l0,268.441c0,3.031 -2.462,5.5 -5.506,5.5Zm199.888,-109.278l0,19.187l11.009,0l0,-19.187l-11.009,0Z" style="fill:#fdc942;fill-rule:nonzero;"/><rect x="383.641" y="381.419" width="11.009" height="19.187" style="fill:#fbcb5c;fill-rule:nonzero;"/><path d="M401.019,404.572l0,-2.938l8.797,0c-2.728,1.219 -5.666,2.188 -8.797,2.938Z" style="fill:#fbcb5c;fill-rule:nonzero;"/><rect x="361.722" y="401.634" width="15.906" height="4.719" style="fill:#fbcb5c;fill-rule:nonzero;"/><path d="M261.753,105.956c0,4.738 3.844,8.588 8.591,8.588l74.419,0c4.743,0 8.59,-3.85 8.59,-8.588l0,-11.184c0,-4.744 -3.847,-8.591 -8.59,-8.591l-74.419,0c-4.747,0 -8.591,3.847 -8.591,8.591l0,11.184Z" style="fill:#bcbec0;fill-rule:nonzero;"/><path d="M261.753,105.956l-5.506,0c0.006,7.781 6.303,14.088 14.097,14.094l74.419,0c7.79,-0.006 14.09,-6.313 14.093,-14.094l0,-11.184c-0.003,-7.785 -6.303,-14.094 -14.093,-14.097l-74.419,0c-7.791,0.003 -14.094,6.312 -14.097,14.097l0,11.184l11.012,0l0,-11.184c0.003,-1.706 1.382,-3.081 3.085,-3.085l74.419,0c1.7,0.004 3.081,1.379 3.084,3.085l0,11.184c-0.003,1.694 -1.384,3.078 -3.084,3.081l-74.419,0c-1.703,-0.003 -3.082,-1.387 -3.085,-3.081l-5.506,0Z" style="fill:#414042;fill-rule:nonzero;"/><rect x="79.719" y="470.509" width="371.106" height="62.563" style="fill:#bcbec0;fill-rule:nonzero;"/><path d="M450.825,470.509l0,-5.5l-371.106,0c-1.45,0 -2.869,0.594 -3.894,1.594c-1.025,1.031 -1.613,2.469 -1.613,3.906l0,62.563c0,1.437 0.588,2.875 1.613,3.906c1.025,1 2.444,1.594 3.894,1.594l371.106,0c1.45,0 2.866,-0.594 3.891,-1.594c1.025,-1.031 1.612,-2.469 1.612,-3.906l0,-62.563c0,-1.437 -0.584,-2.875 -1.612,-3.906c-1.025,-1 -2.441,-1.594 -3.891,-1.594l0,5.5l-5.506,0l0,57.063l-360.097,0l0,-51.563l365.603,0l0,-5.5l-5.506,0l5.506,0Z" style="fill:#414042;fill-rule:nonzero;"/><path d="M340.825,236.781l0,-122.237l-66.247,0l0,122.237l-23.412,38.416l112.968,0l-23.309,-38.416Z" style="fill:#e7e8e9;fill-rule:nonzero;"/><path d="M340.825,236.781l5.506,0l0,-122.237c0,-1.45 -0.587,-2.869 -1.612,-3.894c-1.025,-1.025 -2.444,-1.613 -3.894,-1.613l-66.247,0c-1.45,0 -2.869,0.588 -3.894,1.613c-1.025,1.025 -1.612,2.444 -1.612,3.894l0,120.694l-22.606,37.084c-1.035,1.719 -1.072,3.844 -0.1,5.562c0.972,1.75 2.815,2.813 4.8,2.813l112.968,0c1.985,0 3.825,-1.063 4.8,-2.781c0.972,-1.75 0.938,-3.875 -0.09,-5.563l-23.31,-38.428l-4.709,2.856l5.506,0l-5.506,0l-4.706,2.856l18.237,30.06l-93.387,0l18.309,-30.05c0.531,-0.869 0.806,-1.847 0.806,-2.866l0,-116.731l55.235,0l0.003,116.731c0,1.019 0.269,1.985 0.797,2.856l4.706,-2.856Z" style="fill:#414042;fill-rule:nonzero;"/><path d="M251.166,275.197l-43.438,71.281c0,28.469 19.503,39.691 43.563,39.691l112.528,0c24.056,0 43.559,-11.222 43.559,-39.691l-43.244,-71.281l-112.968,0Z" style="fill:#2ac1d9;fill-rule:nonzero;"/><path d="M251.166,275.197l-4.7,-2.875l-43.441,71.284c-0.531,0.872 -0.803,1.841 -0.803,2.872c-0.003,7.719 1.328,14.563 3.881,20.406c3.809,8.782 10.428,15.219 18.369,19.157c7.95,3.972 17.159,5.625 26.819,5.625l112.528,0c12.85,0 25.012,-2.969 34.259,-10.407c4.6,-3.684 8.381,-8.531 10.922,-14.375c2.556,-5.843 3.888,-12.687 3.884,-20.406c0,-1.031 -0.268,-2 -0.8,-2.872l-43.24,-71.253c-1.003,-1.656 -2.778,-2.656 -4.71,-2.656l-112.968,0c-1.913,0 -3.707,1 -4.7,2.625l4.7,2.875l0,5.5l109.868,0l41.635,68.625l4.709,-2.844l-5.506,0c0,6.503 -1.106,11.75 -2.963,16c-2.806,6.375 -7.234,10.688 -13.2,13.719c-5.953,2.969 -13.506,4.472 -21.89,4.472l-112.528,0c-11.21,0 -20.825,-2.66 -27.347,-7.972c-3.282,-2.656 -5.882,-5.969 -7.747,-10.219c-1.856,-4.25 -2.963,-9.497 -2.966,-16l-5.503,0l4.7,2.844l43.441,-71.25l-4.703,-2.875l0,5.5l0,-5.5Z" style="fill:#414042;fill-rule:nonzero;"/><path d="M251.166,341.509l34.975,0l0,-11l-34.975,0" style="fill:#414042;fill-rule:nonzero;"/><path d="M304.184,313.884l33.838,0l0,-11l-33.838,0" style="fill:#414042;fill-rule:nonzero;"/><path d="M313.772,361.259l60.35,0l0,-11l-60.35,0" style="fill:#414042;fill-rule:nonzero;"/><path d="M119.684,198.472l0,272.037l42.913,0l0,-271.19c-5.997,3.912 -13.144,6.2 -20.841,6.2c-8.231,0 -15.834,-2.619 -22.072,-7.047Z" style="fill:#afb7bc;fill-rule:nonzero;"/><path d="M119.684,198.472l-5.506,0l0,272.037c0,1.438 0.588,2.875 1.613,3.907c1.025,1 2.443,1.593 3.893,1.593l42.913,0c1.45,0 2.869,-0.593 3.894,-1.593c1.025,-1.032 1.612,-2.469 1.612,-3.907l0,-271.19c0,-2.022 -1.106,-3.882 -2.884,-4.841c-1.775,-0.962 -3.938,-0.875 -5.632,0.228c-5.146,3.356 -11.231,5.306 -17.831,5.306c-7.056,-0.003 -13.528,-2.231 -18.887,-6.031c-1.675,-1.187 -3.888,-1.344 -5.713,-0.4c-1.825,0.944 -2.978,2.838 -2.978,4.891l5.506,0l-3.187,4.49c7.119,5.057 15.853,8.066 25.259,8.063c8.794,0.003 17.003,-2.625 23.85,-7.097l-3.009,-4.609l-5.506,0l0,265.69l-31.9,0l0,-266.537l-5.507,0l-3.187,4.49l3.187,-4.49Z" style="fill:#414042;fill-rule:nonzero;"/><path d="M141.756,129.047c-21.118,0 -38.237,17.122 -38.237,38.237c0,12.891 6.397,24.263 16.165,31.188c6.238,4.428 13.841,7.047 22.072,7.047c7.697,0 14.844,-2.288 20.841,-6.2c10.466,-6.825 17.397,-18.61 17.397,-32.035c0,-21.115 -17.119,-38.237 -38.238,-38.237Z" style="fill:#2ac1d9;fill-rule:nonzero;"/><path d="M141.756,129.047l0,-5.506c-24.162,0.003 -43.74,19.584 -43.743,43.743c0,14.741 7.331,27.782 18.487,35.678c7.116,5.057 15.85,8.066 25.256,8.063c8.794,0.003 17.003,-2.625 23.85,-7.097c11.953,-7.781 19.891,-21.29 19.891,-36.644c-0.003,-24.156 -19.578,-43.74 -43.741,-43.743l0,11.012c9.057,0 17.203,3.653 23.144,9.588c5.931,5.94 9.584,14.09 9.587,23.143c0,11.497 -5.921,21.557 -14.896,27.422c-5.15,3.356 -11.235,5.306 -17.835,5.306c-7.056,-0.003 -13.528,-2.231 -18.887,-6.031c-8.385,-5.953 -13.844,-15.659 -13.844,-26.697c0,-9.053 3.653,-17.203 9.584,-23.143c5.941,-5.935 14.091,-9.588 23.147,-9.588l0,-5.506Z" style="fill:#414042;fill-rule:nonzero;"/><path d="M130.031,172.791l23.45,0l0,-11.013l-23.45,0" style="fill:#414042;fill-rule:nonzero;"/><path d="M177.678,159.719l163.147,0l0,-11.013l-134.728,0l-28.419,0l0,11.013Z" style="fill:#414042;fill-rule:nonzero;"/><path d="M177.678,185.712l163.147,0l0,-11.012l-134.728,0l-28.419,0l0,11.012Z" style="fill:#414042;fill-rule:nonzero;"/><path d="M105.906,507.384l134.916,0l0,-11.031l-134.916,0" style="fill:#f1f2f2;fill-rule:nonzero;"/><path d="M251.166,507.384l25.44,0l0,-11.031l-25.44,0" style="fill:#f1f2f2;fill-rule:nonzero;"/></g></svg>