<?xml version="1.0" encoding="UTF-8" standalone="no"?><!DOCTYPE svg PUBLIC "-//W3C//DTD SVG 1.1//EN" "http://www.w3.org/Graphics/SVG/1.1/DTD/svg11.dtd"><svg width="100%" height="100%" viewBox="0 0 535 540" version="1.1" xmlns="http://www.w3.org/2000/svg" xmlns:xlink="http://www.w3.org/1999/xlink" xml:space="preserve" xmlns:serif="http://www.serif.com/" style="fill-rule:evenodd;clip-rule:evenodd;stroke-linejoin:round;stroke-miterlimit:1.41421;"><rect id="success" x="0" y="0" width="534.303" height="538.572" style="fill:none;"/><path d="M534.303,269.288c0,147.543 -119.609,267.149 -267.153,267.149c-147.544,0 -267.15,-119.606 -267.15,-267.149c0,-147.541 119.606,-267.154 267.15,-267.154c147.544,0 267.153,119.613 267.153,267.154Z" style="fill:#ffda81;fill-rule:nonzero;"/><clipPath id="_clip1"><path d="M534.303,269.288c0,147.543 -119.609,267.149 -267.153,267.149c-147.544,0 -267.15,-119.606 -267.15,-267.149c0,-147.541 119.606,-267.154 267.15,-267.154c147.544,0 267.153,119.613 267.153,267.154Z" clip-rule="nonzero"/></clipPath><g clip-path="url(#_clip1)"><rect x="280.997" y="411.966" width="59.769" height="11.013" style="fill:#f9e193;"/><rect x="241.35" y="411.966" width="23.381" height="11.013" style="fill:#f9e193;fill-rule:nonzero;"/><rect x="389.663" y="223.75" width="134.184" height="11.013" style="fill:#f9e193;fill-rule:nonzero;"/><path d="M420.425,50.453l-127.925,0l0,-11.012l110.894,0c5.828,3.462 11.503,7.131 17.031,11.012Z" style="fill:#f9e193;fill-rule:nonzero;"/><path d="M524.562,197.55l-29.181,0l0,-11.013l25.86,0c1.181,3.632 2.293,7.313 3.321,11.013Z" style="fill:#f9e193;fill-rule:nonzero;"/><rect x="436.931" y="333.181" width="39.647" height="11.013" style="fill:#f9e193;fill-rule:nonzero;"/><rect x="53.247" y="223.753" width="90.406" height="11.013" style="fill:#f9e193;fill-rule:nonzero;"/><rect x="207.413" y="71.422" width="20.331" height="11.009" style="fill:#f9e193;fill-rule:nonzero;"/><rect x="231.331" y="244.2" width="58.453" height="11.013" style="fill:#f9e193;fill-rule:nonzero;"/><rect x="178.187" y="125.875" width="58.45" height="11.012" style="fill:#f9e193;fill-rule:nonzero;"/><rect x="285.297" y="158.559" width="58.453" height="11.009" style="fill:#f9e193;fill-rule:nonzero;"/><path d="M82.475,138.762l-48.472,0c2.094,-3.731 4.263,-7.393 6.528,-11.012l41.944,0l0,11.012Z" style="fill:#f9e193;fill-rule:nonzero;"/><rect x="296.138" y="296.869" width="42.697" height="11.009" style="fill:#f6e9c0;fill-rule:nonzero;"/><path d="M428.759,452.147l0.003,-0.088c0,-26.581 -21.543,-48.125 -48.121,-48.125c-13.65,0 -25.944,5.707 -34.703,14.838c-3.526,-23.106 -23.419,-40.822 -47.507,-40.822c-15.275,0 -28.859,7.138 -37.675,18.231c-4.697,-6.981 -21.272,-23.434 -28.328,-28.025l26.947,-51.762l-42.091,-42.094l-58.872,19.541c-5.031,-9.385 -19.196,-24.216 -28.131,-29.953c0.128,-1.426 0.219,-2.86 0.219,-4.319c0,-26.581 -21.541,-48.122 -48.119,-48.122c-14.331,0 -27.159,6.297 -35.975,16.231c-11.422,-12.731 -27.953,-20.787 -46.406,-20.787c-34.463,0 -62.397,27.937 -62.397,62.397c0,28.462 19.081,52.428 45.135,59.921c-9.9,10.379 -16.013,24.4 -16.013,39.878c0,31.938 25.891,57.822 57.828,57.822c10.635,0 53.803,52.132 53.803,61.563c0,28.8 23.347,52.144 52.147,52.144c14.003,0 26.691,-5.55 36.056,-14.532c5.397,23.047 26.035,40.229 50.729,40.229c23.256,0 77.621,-15.444 96.087,-15.444c19.259,0 36.472,-8.738 47.919,-22.453c6.453,27.584 31.147,48.147 60.697,48.147c34.459,0 62.397,-27.938 62.397,-62.397c0,-32.175 -24.357,-58.641 -55.629,-62.019Z" style="fill:#fcfcfc;fill-rule:nonzero;"/><path d="M428.759,452.147l5.5,0.222l0.003,-0.088l0.007,-0.222c-0.003,-29.625 -24.007,-53.628 -53.628,-53.631c-15.2,-0.003 -28.941,6.375 -38.675,16.531l3.972,3.813l5.443,-0.831c-1.965,-12.882 -8.494,-24.257 -17.875,-32.4c-9.378,-8.15 -21.672,-13.097 -35.075,-13.094c-17.015,-0.003 -32.187,7.965 -41.984,20.309l4.309,3.425l4.569,-3.072c-1.444,-2.137 -3.459,-4.568 -5.884,-7.281c-3.622,-4.044 -8.11,-8.6 -12.422,-12.644c-2.157,-2.022 -4.266,-3.912 -6.219,-5.553c-1.959,-1.64 -3.731,-3.022 -5.372,-4.09l-3,4.615l4.881,2.541l26.95,-51.763c1.113,-2.137 0.716,-4.731 -0.99,-6.434l-42.091,-42.091c-1.478,-1.478 -3.644,-1.99 -5.628,-1.334l-58.872,19.541l1.734,5.225l4.85,-2.604c-2.953,-5.462 -7.937,-11.662 -13.449,-17.521c-5.529,-5.838 -11.438,-11.154 -16.557,-14.46l-2.975,4.632l5.485,0.49c0.137,-1.519 0.24,-3.119 0.24,-4.809c-0.003,-29.622 -24.003,-53.625 -53.625,-53.628c-15.965,-0.004 -30.3,7.034 -40.093,18.084l4.118,3.653l4.097,-3.675c-12.4,-13.834 -30.428,-22.622 -50.503,-22.619c-37.503,0.004 -67.9,30.4 -67.903,67.904c-0.003,15.468 5.197,29.768 13.931,41.171c8.731,11.407 21.003,19.96 35.188,24.044l1.522,-5.294l-3.982,-3.8c-10.828,11.338 -17.54,26.735 -17.537,43.678c0.003,34.979 28.356,63.325 63.334,63.329l0,-1.688l-0.231,1.675l0.231,0.013l0,-1.688l-0.231,1.675l0.084,-0.612l-0.118,0.606l0.034,0.006l0.084,-0.612l-0.118,0.606l0.284,0.094c0.759,0.268 2.544,1.309 4.612,2.925c3.672,2.831 8.435,7.353 13.36,12.581c7.403,7.844 15.253,17.322 21.144,25.422c2.946,4.043 5.406,7.759 7.043,10.647c0.819,1.437 1.428,2.675 1.775,3.543c0.175,0.429 0.285,0.766 0.328,0.947l0.029,0.131l1.443,-0.215l-1.453,0l0.01,0.215l1.443,-0.215l-1.453,0c0.003,31.844 25.809,57.644 57.65,57.647c15.475,0.003 29.538,-6.147 39.869,-16.063l-3.813,-3.972l-5.359,1.253c2.984,12.75 10.181,23.863 20.038,31.794c9.85,7.928 22.415,12.688 36.05,12.685c6.399,-0.007 14.331,-1.022 23.134,-2.488c13.178,-2.206 28.219,-5.472 41.653,-8.175c6.712,-1.353 13.019,-2.559 18.434,-3.422c5.397,-0.865 9.957,-1.365 12.866,-1.356c20.947,0.003 39.709,-9.522 52.144,-24.431l-4.225,-3.528l-5.363,1.256c3.516,15.015 11.988,28.109 23.597,37.45c11.606,9.344 26.403,14.95 42.463,14.947c37.503,-0.007 67.9,-30.4 67.903,-67.903c-0.01,-35.016 -26.494,-63.813 -60.544,-67.491l-0.591,5.472l5.5,0.222l-5.5,-0.222l-0.59,5.475c28.494,3.075 50.725,27.212 50.712,56.544c0,15.728 -6.359,29.915 -16.662,40.228c-10.313,10.303 -24.5,16.659 -40.228,16.662c-13.488,-0.003 -25.816,-4.678 -35.56,-12.512c-9.737,-7.838 -16.837,-18.816 -19.778,-31.382c-0.475,-2.034 -2.056,-3.621 -4.091,-4.103c-2.031,-0.481 -4.156,0.225 -5.496,1.828c-10.457,12.519 -26.119,20.475 -43.691,20.475c-5.338,0.016 -12.309,1.038 -20.506,2.5c-12.25,2.204 -27.032,5.463 -40.882,8.16c-6.918,1.347 -13.603,2.553 -19.568,3.415c-5.957,0.863 -11.219,1.372 -15.131,1.369c-11.063,-0.003 -21.16,-3.834 -29.15,-10.256c-7.985,-6.422 -13.807,-15.425 -16.216,-25.722c-0.453,-1.931 -1.894,-3.459 -3.797,-4.025c-1.903,-0.562 -3.944,-0.069 -5.375,1.306c-8.403,8.05 -19.712,12.997 -32.247,13c-12.897,-0.003 -24.522,-5.212 -32.978,-13.659c-8.45,-8.456 -13.659,-20.081 -13.663,-32.978c-0.018,-1.628 -0.374,-2.835 -0.803,-4.084c-0.825,-2.301 -2.09,-4.691 -3.728,-7.426c-2.862,-4.75 -6.881,-10.403 -11.49,-16.321c-6.916,-8.872 -15.122,-18.278 -22.582,-25.616c-3.737,-3.675 -7.271,-6.828 -10.515,-9.203c-1.628,-1.188 -3.178,-2.188 -4.769,-2.972c-1.603,-0.759 -3.219,-1.413 -5.422,-1.444c-14.466,-0.003 -27.512,-5.85 -36.997,-15.325c-9.478,-9.484 -15.322,-22.528 -15.325,-36.994c0.003,-14.012 5.516,-26.659 14.491,-36.075c1.334,-1.399 1.834,-3.375 1.331,-5.24c-0.506,-1.866 -1.937,-3.319 -3.794,-3.853c-11.868,-3.413 -22.165,-10.588 -29.487,-20.153c-7.322,-9.572 -11.663,-21.485 -11.666,-34.478c0.003,-15.729 6.36,-29.916 16.666,-40.229c10.312,-10.306 24.5,-16.662 40.228,-16.662c16.828,0 31.863,7.328 42.309,18.959c1.05,1.172 2.538,1.835 4.113,1.828c1.572,-0.003 3.059,-0.675 4.103,-1.85c7.837,-8.822 19.159,-14.381 31.856,-14.384c11.788,0.003 22.407,4.763 30.135,12.481c7.718,7.732 12.478,18.35 12.481,30.138c0,1.228 -0.078,2.497 -0.197,3.831c-0.184,2.044 0.778,4.012 2.509,5.122c3.813,2.428 9.457,7.394 14.5,12.753c5.06,5.337 9.672,11.247 11.75,15.166c1.263,2.359 4.047,3.468 6.588,2.625l55.647,-18.469l36.834,36.834l-25.084,48.181c-1.313,2.519 -0.5,5.61 1.881,7.157c1.353,0.875 3.616,2.662 6.116,4.859c3.771,3.306 8.206,7.591 12.068,11.631c1.932,2.022 3.725,3.985 5.216,5.722c1.488,1.732 2.688,3.263 3.363,4.272c0.974,1.453 2.603,2.359 4.35,2.428c1.746,0.072 3.44,-0.706 4.528,-2.075c7.834,-9.843 19.831,-16.147 33.365,-16.15c10.681,0.003 20.381,3.913 27.853,10.397c7.469,6.488 12.65,15.522 14.21,25.747c0.315,2.066 1.79,3.787 3.781,4.419c1.994,0.631 4.187,0.072 5.634,-1.438c7.785,-8.103 18.635,-13.137 30.732,-13.14c11.787,0.003 22.403,4.759 30.134,12.481c7.722,7.728 12.475,18.347 12.481,30.137l5.506,0l-5.503,-0.222l-0.003,0.091c-0.115,2.888 2.038,5.385 4.913,5.694l0.59,-5.475Z" style="fill:#414042;fill-rule:nonzero;"/><path d="M509.872,41.837c-1.253,-1.35 -3.066,-1.912 -4.81,-1.468l-51.362,13.006l-0.203,0.081c-0.303,0.094 -0.6,0.213 -0.888,0.366l-0.34,0.194l-0.778,0.609l-0.197,0.172l-0.047,0.044l-60.419,64.796l-127.2,49.207l-52.431,20.284c-1.653,0.641 -2.884,2.141 -3.269,3.981c-0.381,1.838 0.134,3.76 1.378,5.091l54.138,58.063l-27.16,29.128c-2.006,2.153 -2.006,5.634 0,7.787l39.244,42.091c1.003,1.075 2.316,1.612 3.628,1.612c1.316,0 2.628,-0.537 3.632,-1.612l27.159,-29.132l54.134,58.06c0.972,1.044 2.281,1.616 3.628,1.616c0.372,0 0.75,-0.044 1.122,-0.135c1.713,-0.409 3.113,-1.731 3.71,-3.506l18.906,-56.235l0.006,-0.006l45.622,-136.14l60.672,-65.075l0.025,-0.038c0.419,-0.456 0.737,-1.003 0.991,-1.597l0.162,-0.465l0.188,-0.525l12.125,-55.097c0.409,-1.856 -0.107,-3.81 -1.366,-5.157Z" style="fill:#fdc642;fill-rule:nonzero;"/></g><path d="M40.922,279.775c1.662,-0.284 3.341,-0.428 5.019,-0.428c8.725,0.009 17.325,3.806 23.193,11.147c4.382,5.481 6.491,11.987 6.494,18.497c0,4.712 -1.119,9.409 -3.303,13.643l9.788,5.044c2.999,-5.816 4.528,-12.234 4.528,-18.687c0.003,-8.894 -2.922,-17.894 -8.903,-25.375c-8.025,-10.038 -19.882,-15.288 -31.797,-15.279c-2.297,0 -4.6,0.194 -6.882,0.585l1.863,10.853Z" style="fill:#414042;fill-rule:nonzero;"/><path d="M73.884,391.6c0.694,-0.119 1.4,-0.178 2.104,-0.178c3.671,0.006 7.265,1.59 9.731,4.675c1.843,2.306 2.718,5.019 2.725,7.756c0,1.978 -0.472,3.953 -1.388,5.728l9.791,5.044c1.728,-3.356 2.606,-7.053 2.606,-10.772c0.006,-5.125 -1.687,-10.328 -5.134,-14.634c-4.622,-5.785 -11.469,-8.816 -18.331,-8.81c-1.326,0 -2.651,0.113 -3.966,0.338l1.862,10.853Z" style="fill:#414042;fill-rule:nonzero;"/><path d="M152.572,344.616c1.647,-0.282 3.306,-0.422 4.969,-0.422c8.634,0.006 17.146,3.768 22.95,11.028c4.337,5.428 6.422,11.865 6.428,18.306c0,4.666 -1.11,9.313 -3.269,13.503l9.791,5.044c2.971,-5.772 4.487,-12.144 4.487,-18.547c0.006,-8.828 -2.897,-17.759 -8.837,-25.181c-7.96,-9.963 -19.725,-15.172 -31.55,-15.166c-2.282,0 -4.566,0.194 -6.829,0.581l1.86,10.854Z" style="fill:#414042;fill-rule:nonzero;"/><path d="M216.128,498.15c2.219,-1.841 5.053,-2.875 7.953,-2.872c1.51,0 3.038,0.275 4.544,0.866l0.009,0.003c2.369,0.931 4.26,2.478 5.619,4.409c1.356,1.928 2.153,4.235 2.266,6.606l10.997,-0.512c-0.21,-4.484 -1.7,-8.791 -4.254,-12.425c-2.546,-3.631 -6.184,-6.597 -10.615,-8.331l0.009,0.003c-2.803,-1.103 -5.719,-1.631 -8.575,-1.631c-5.5,0.003 -10.793,1.937 -14.981,5.409l7.028,8.478l0,-0.003Z" style="fill:#414042;fill-rule:nonzero;"/><path d="M154.303,437.872c1.844,-1.019 3.934,-1.556 6.041,-1.556c2.269,0.003 4.537,0.612 6.612,1.915c3.766,2.366 5.81,6.4 5.819,10.557c0,0.581 -0.041,1.165 -0.125,1.746l10.903,1.544c0.156,-1.094 0.231,-2.194 0.231,-3.29c0.01,-7.776 -3.881,-15.419 -10.962,-19.876c-3.863,-2.434 -8.213,-3.609 -12.478,-3.606c-3.966,0 -7.875,1 -11.363,2.922l5.322,9.644Z" style="fill:#414042;fill-rule:nonzero;"/><path d="M283.906,469.916c5.538,-6.538 13.803,-10.516 22.622,-10.513c1.938,0 3.903,0.191 5.881,0.591c11.844,2.375 20.6,11.506 23.104,22.575l10.74,-2.422c-3.415,-15.172 -15.441,-27.681 -31.672,-30.95c-2.697,-0.541 -5.393,-0.803 -8.053,-0.803c-12.14,0.003 -23.425,5.444 -31.022,14.403l8.4,7.119Z" style="fill:#414042;fill-rule:nonzero;"/><path d="M468.878,64.794l-21.041,-21.044l-197.531,197.528l21.047,21.044l197.525,-197.528Z" style="fill:#2ac1d9;fill-rule:nonzero;"/><path d="M468.878,64.794l3.894,-3.894l-21.041,-21.044c-1.025,-1.025 -2.444,-1.612 -3.894,-1.612c-1.45,0 -2.865,0.587 -3.893,1.612l-197.532,197.528c-1.025,1.025 -1.612,2.444 -1.612,3.894c0,1.45 0.587,2.869 1.612,3.894l21.047,21.044c2.15,2.15 5.635,2.15 7.785,0l197.528,-197.528c2.15,-2.151 2.15,-5.638 0,-7.788l-3.894,3.894l-3.894,-3.894l-193.634,193.637l-13.259,-13.259l189.746,-189.741l17.147,17.151l3.894,-3.894l-3.894,-3.894l3.894,3.894Z" style="fill:#414042;fill-rule:nonzero;"/><path d="M271.353,262.322l21.047,21.047l197.525,-197.528l-21.047,-21.047l-197.525,197.528Z" style="fill:#2ac1d9;fill-rule:nonzero;"/><path d="M271.353,262.322l-3.894,3.894l21.047,21.046c1.025,1.025 2.444,1.613 3.894,1.613c1.45,0 2.866,-0.588 3.894,-1.613l197.525,-197.528c1.025,-1.025 1.612,-2.443 1.612,-3.893c0,-1.45 -0.587,-2.869 -1.612,-3.894l-21.047,-21.047c-2.15,-2.15 -5.638,-2.15 -7.788,0l-197.525,197.528c-2.15,2.15 -2.15,5.638 0,7.788l3.894,-3.894l3.891,3.894l193.634,-193.635l13.263,13.26l-189.741,189.743l-17.156,-17.156l-3.891,3.894l3.891,3.894l-3.891,-3.894Z" style="fill:#414042;fill-rule:nonzero;"/><path d="M447.837,43.75l21.041,21.044l21.047,21.047l13.006,-55.094l-55.094,13.003Z" style="fill:#f1f2f2;fill-rule:nonzero;"/><path d="M447.837,43.75l-3.893,3.894l21.04,21.044l21.05,21.046c1.416,1.416 3.469,1.95 5.397,1.403c1.925,-0.546 3.394,-2.081 3.853,-4.031l13.003,-55.097c0.441,-1.862 -0.112,-3.803 -1.465,-5.156c-1.353,-1.353 -3.294,-1.906 -5.156,-1.466l-55.091,13.004c-1.95,0.459 -3.484,1.928 -4.031,3.853c-0.55,1.928 -0.016,3.984 1.4,5.4l3.893,-3.894l1.266,5.359l46.422,-10.959l-8.687,36.816l-14.066,-14.066l-21.041,-21.044l-3.894,3.894l1.266,5.359l-1.266,-5.359Z" style="fill:#414042;fill-rule:nonzero;"/><path d="M250.306,241.278l-33.022,33.022l42.091,42.094l33.025,-33.025l-21.047,-21.047l-21.047,-21.044Z" style="fill:#d1d3d4;fill-rule:nonzero;"/><path d="M250.306,241.278l-3.894,-3.894l-33.021,33.025c-2.15,2.15 -2.15,5.635 0,7.785l42.093,42.09c1.025,1.025 2.441,1.613 3.891,1.613c1.45,0 2.869,-0.588 3.894,-1.613l33.025,-33.022c1.025,-1.025 1.612,-2.443 1.612,-3.893c0,-1.45 -0.587,-2.866 -1.612,-3.891l-21.05,-21.05l-21.044,-21.044c-2.15,-2.15 -5.637,-2.15 -7.788,0l3.894,3.894l-3.894,3.894l21.047,21.044l17.153,17.153l-25.237,25.237l-34.303,-34.306l29.128,-29.128l-3.894,-3.894l-3.894,3.894l3.894,-3.894Z" style="fill:#414042;fill-rule:nonzero;"/><path d="M330.656,245.109l-38.256,38.26l61.953,61.953l20.281,-56.235l-43.978,-43.978Z" style="fill:#d1d3d4;fill-rule:nonzero;"/><path d="M330.656,245.109l-3.894,-3.893l-38.256,38.262c-2.15,2.15 -2.15,5.634 0,7.784l61.953,61.954c1.328,1.328 3.26,1.89 5.091,1.481c1.834,-0.41 3.344,-1.741 3.981,-3.506l20.282,-56.235c0.728,-2.015 0.228,-4.247 -1.285,-5.762l-43.978,-43.978c-1.025,-1.025 -2.444,-1.613 -3.894,-1.613c-1.45,0 -2.865,0.588 -3.894,1.613l3.894,3.893l-3.89,3.894l41.503,41.503l-16.153,44.794l-51.932,-51.931l34.366,-34.366l-3.894,-3.894l-3.89,3.894l3.89,-3.894Z" style="fill:#414042;fill-rule:nonzero;"/><path d="M423.984,151.787l-93.328,93.322l43.978,43.978l49.35,-137.3Z" style="fill:#e5e5e5;fill-rule:nonzero;"/><path d="M423.984,151.787l-3.893,-3.893l-93.325,93.322c-1.029,1.025 -1.616,2.443 -1.616,3.893c0,1.45 0.587,2.869 1.616,3.894l43.975,43.978c1.328,1.325 3.262,1.888 5.097,1.478c1.831,-0.409 3.343,-1.743 3.978,-3.509l49.35,-137.3c0.871,-2.425 -0.057,-5.131 -2.232,-6.513c-2.178,-1.381 -5.021,-1.065 -6.843,0.757l3.893,3.893l-5.181,-1.862l-46.412,129.131l-33.947,-33.947l89.434,-89.428l-3.894,-3.894l-5.181,-1.862l5.181,1.862Z" style="fill:#414042;fill-rule:nonzero;"/><path d="M244.588,159.041l43.974,43.975l93.604,-93.597l-137.578,49.622Z" style="fill:#e5e5e5;fill-rule:nonzero;"/><path d="M244.588,159.041l-3.894,3.893l43.975,43.975c2.15,2.15 5.637,2.15 7.787,0l93.603,-93.597c1.822,-1.821 2.138,-4.668 0.757,-6.843c-1.382,-2.175 -4.094,-3.103 -6.516,-2.228l-137.581,49.621c-1.766,0.638 -3.097,2.147 -3.506,3.982c-0.41,1.831 0.153,3.762 1.481,5.09l3.894,-3.893l1.868,5.181l114.375,-41.253l-72.269,72.259l-40.081,-40.078l-3.893,3.891l1.868,5.181l-1.868,-5.181Z" style="fill:#414042;fill-rule:nonzero;"/><path d="M188.353,179.325l61.95,61.95l38.259,-38.259l-43.974,-43.975l-56.235,20.284Z" style="fill:#d1d3d4;fill-rule:nonzero;"/><path d="M188.353,179.325l-3.894,3.894l61.953,61.95c1.025,1.025 2.441,1.612 3.891,1.612c1.45,0 2.869,-0.587 3.894,-1.612l38.259,-38.26c1.025,-1.025 1.613,-2.443 1.613,-3.893c0,-1.45 -0.588,-2.869 -1.613,-3.894l-43.975,-43.972c-1.515,-1.516 -3.747,-2.012 -5.762,-1.288l-56.235,20.285c-1.765,0.637 -3.097,2.147 -3.503,3.981c-0.409,1.831 0.15,3.763 1.478,5.091l3.894,-3.894l1.869,5.181l52.944,-19.1l37.609,37.61l-30.472,30.471l-58.056,-58.053l-3.894,3.891l1.869,5.181l-1.869,-5.181Z" style="fill:#414042;fill-rule:nonzero;"/></svg>