<?xml version="1.0" encoding="UTF-8" standalone="no"?><!DOCTYPE svg PUBLIC "-//W3C//DTD SVG 1.1//EN" "http://www.w3.org/Graphics/SVG/1.1/DTD/svg11.dtd"><svg width="100%" height="100%" viewBox="0 0 375 375" version="1.1" xmlns="http://www.w3.org/2000/svg" xmlns:xlink="http://www.w3.org/1999/xlink" xml:space="preserve" xmlns:serif="http://www.serif.com/" style="fill-rule:evenodd;clip-rule:evenodd;stroke-linejoin:round;stroke-miterlimit:1.41421;"><rect id="web" x="0" y="0" width="375" height="375" style="fill:none;"/><g><path d="M214.983,128.118c0,59.365 -48.123,107.495 -107.492,107.495c-59.364,0 -107.491,-48.13 -107.491,-107.495c0,-59.365 48.127,-107.491 107.491,-107.491c59.369,0 107.492,48.126 107.492,107.491Z" style="fill:#31bdba;fill-rule:nonzero;"/><path d="M169.391,182.604c-0.677,0 -1.495,-1.291 -2.379,-2.106c-0.883,-0.815 -5.615,0.228 -6.747,0.228c-1.134,0 -1.722,-0.5 -2.765,-1.135c-1.04,-0.635 -2.174,0.136 -2.99,0.316c-0.815,0.183 -1.179,-0.54 -0.679,-1.447c0.499,-0.907 -1.675,-0.68 -3.306,-0.364c-1.63,0.32 -0.999,1.132 -2.31,0.683c-1.311,-0.455 1.539,-1.95 2.49,-3.081c0.951,-1.135 -0.18,-3.034 -0.723,-3.218c-0.544,-0.18 -1.587,-1.814 -3.218,-3.081c-1.63,-1.267 -2.853,-0.316 -4.8,-0.316c-1.947,0 -2.402,-0.859 -3.309,-1.542c-0.904,-0.68 -0.632,-2.035 -4.257,-3.941c-2.453,-1.288 -2.538,-1.227 -2.269,-1.165c0.129,0.03 0.339,0.061 0.411,-0.055c0.227,-0.367 0.591,-0.319 -0.68,-0.907c-1.267,-0.588 -2.31,0.68 -3.577,1.176c-1.267,0.499 -2.806,0.363 -3.35,0.227c-0.543,-0.136 -1.179,-1.447 -1.814,-1.722c-0.632,-0.269 -1.179,-0.86 -1.583,-1.492c-0.408,-0.635 -1.723,-0.367 -1.678,0.812c0.044,1.179 -0.636,1.859 -1.903,2.358c-1.267,0.499 -0.724,-1.403 -0.724,-1.994c0,-0.588 1.132,-1.176 1.223,-2.083c0.092,-0.907 -1.131,0.86 -2.31,2.13c-0.747,0.806 -1.348,0.622 -2.269,0.442c-0.527,-0.105 -1.162,-0.211 -1.988,-0.126c-2.266,0.228 -1.178,2.582 -1.178,3.894c0,1.314 -1.903,1.766 -2.219,1.45c-0.319,-0.316 -0.319,-1.039 -0.999,-1.039c-0.679,0 -0.859,-1.091 -1.039,-1.495c-0.184,-0.411 -2.494,-0.819 -3.353,0.815c-0.863,1.631 -1.767,0.313 -2.81,0c-1.04,-0.319 -3.078,-4.396 -2.63,-5.119c0.459,-0.724 0.459,-1.043 -0.044,-1.539c-0.496,-0.5 -0.268,-0.863 0.14,-1.631c0.407,-0.771 1.494,-1.495 -0.683,-2.902c-1.417,-0.913 -3.35,-0.713 -5.032,-0.513c-0.897,0.109 -1.719,0.215 -2.351,0.153c-1.81,-0.183 -0.363,-1.498 0,-1.858c0.364,-0.363 1.088,-1.631 1.451,-2.718c0.363,-1.087 -0.319,-1.179 0.316,-2.626c0.635,-1.451 0.455,-2.446 -0.995,-2.538c-1.451,-0.091 -2.81,0.996 -2.898,3.078c-0.092,2.083 -2.178,1.994 -6.978,1.634c-4.801,-0.363 -4.349,-4.168 -4.893,-7.25c-0.543,-3.081 0.996,-5.707 1.088,-7.246c0.091,-1.539 1.99,-3.261 3.805,-4.62c1.81,-1.359 4.392,-1.013 4.392,-1.013c0,0 3.489,0.741 4.576,0.649c1.088,-0.092 0.184,-0.904 0.272,-1.994c0.089,-1.084 5.344,-0.364 6.251,-0.364c0.907,0 0.727,0.727 1.723,1.709c0.574,0.568 0.757,0.15 1.002,-0.268c0.177,-0.306 0.387,-0.608 0.809,-0.534c0.998,0.184 0.183,0.819 1.63,3.174c1.451,2.354 1.179,3.169 1.631,5.163c0.455,1.995 1.451,0.996 2.083,-0.635c0.635,-1.631 -0.724,-6.883 -1.088,-9.601c-0.36,-2.718 2.083,-1.722 4.441,-4.26c2.354,-2.534 4.8,-2.718 5.891,-4.529c1.087,-1.81 -0.092,-4.8 0.543,-3.173c0.632,1.631 0.724,-0.632 0.812,-2.354c0.092,-1.719 0.999,-2.446 1.451,-1.447c0.452,0.995 0.995,0.272 1.359,-1.451c0.363,-1.719 1.902,-3.489 2.629,-4.349c0.724,-0.862 2.175,-0.047 4.165,0c1.995,0.045 0.092,-0.363 -0.496,-2.357c-0.591,-1.991 1.268,-2.671 2.035,-2.671c0.772,0 4.081,-1.766 4.804,-2.221c0.727,-0.452 1.675,-0.408 2.942,0.543c1.271,0.951 -1.175,0.228 -1.991,1.634c-0.815,1.403 1.179,1.583 2.039,0.316c0.859,-1.267 2.762,-0.679 4.393,-2.31c1.63,-1.631 -1.855,-1.043 -2.627,-1.271c-0.771,-0.224 -1.246,-2.13 -1.178,-2.738c0.067,-0.615 -0.476,-2.174 -1.288,-2.854c-0.819,-0.682 -2.925,0.065 -4.76,0.816c-1.834,0.744 -2.378,1.423 -2.242,0.543c0.136,-0.886 3.194,-2.921 4.009,-3.057c0.815,-0.136 3.126,-1.087 4.213,-2.31c1.087,-1.223 4.212,0.203 5.639,0.336c1.427,0.136 3.466,0.955 4.213,-0.065c0.747,-1.019 1.359,-1.019 2.854,-1.223c1.495,-0.203 1.766,-2.378 0.747,-3.329c-1.019,-0.951 -2.514,-4.417 -4.62,-5.507c-2.107,-1.084 -1.291,-1.767 -0.608,-2.647c0.676,-0.883 -2.134,-3.057 -3.038,-5.323c-0.907,-2.266 0.089,-2.81 -0.995,-2.898c-1.087,-0.092 -0.364,1.627 -0.907,3.17c-0.544,1.539 -2.81,0.727 -3.17,0.631c-0.363,-0.088 -1.634,-1.63 -1.542,-3.077c0.092,-1.448 0.452,-2.718 0,-3.174c-0.452,-0.448 -1.448,-0.088 -1.994,-0.631c-0.544,-0.544 -1.268,-2.175 -2.083,-2.898c-0.503,-0.452 -1.39,-0.449 -2.293,-0.445c-0.557,0 -1.118,0.003 -1.6,-0.099c-1.271,-0.272 -2.446,0.18 -2.175,0.995c0.272,0.816 0.089,1.903 -0.363,4.804c-0.303,1.916 -0.799,1.889 -1.311,1.862c-0.262,-0.014 -0.527,-0.027 -0.772,0.217c-0.727,0.727 0.452,0.908 1.087,2.993c0.632,2.083 -0.815,3.625 -1.45,4.257c-0.632,0.636 -2.718,1.087 -4.077,1.539c-1.359,0.452 0.092,2.178 0.272,3.625c0.18,1.451 -1.179,3.533 -1.903,3.805c-0.723,0.272 -3.081,-2.718 -3.261,-4.437c-0.184,-1.722 1.447,-3.625 0.723,-4.172c-0.723,-0.543 -3.533,-0.543 -6.159,-2.717c-2.626,-2.175 -5.799,-3.35 -6.886,-5.976c-1.087,-2.63 1.087,-4.984 1.994,-6.887c0.904,-1.902 2.718,-1.63 5.616,-2.718c2.901,-1.087 1.087,-2.085 1.81,-2.085c0.728,0 3.082,-0.361 3.625,-1.084c0.544,-0.727 1.815,-1.451 2.99,-2.083c1.179,-0.635 1.451,-1.902 1.903,-2.629c0.254,-0.408 0.767,-0.041 1.426,0.322c0.51,0.286 1.111,0.571 1.743,0.493c0.462,-0.058 0.768,-0.051 1.037,-0.044c0.567,0.013 0.958,0.027 2.316,-0.588c1.995,-0.91 0.272,-1.454 0.092,-2.449c-0.18,-0.996 1.267,-0.724 0.815,-1.811c-0.455,-1.087 -2.445,-2.174 -3.76,-1.991c-1.312,0.18 0.407,1.447 -0.951,2.714c-1.359,1.271 -1.088,2.083 -1.54,2.267c-0.455,0.18 -2.442,-0.456 -2.442,-1.088c0,-0.635 0.904,-1.179 1.264,-1.447c0.363,-0.272 -0.272,-1.634 -0.452,-2.086c-0.18,-0.455 -0.999,0.544 -1.179,1.447c-0.18,0.907 -1.176,0.999 -0.904,0.184c0.269,-0.816 -0.727,-1.814 -1.45,-2.81c-0.727,-0.995 0.723,-0.907 1.539,-2.174c0.815,-1.267 0.543,-1.811 -0.544,-2.446c-1.087,-0.632 -2.354,0.363 -3.625,1.722c-1.267,1.359 -0.812,1.271 -0.363,2.99c0.23,0.873 0.227,0.86 0.203,0.849c-0.02,-0.013 -0.064,-0.023 0.072,0.782c0.271,1.63 -2.083,1.447 -2.083,1.447c0,0 -1.179,-0.088 -1.634,-0.268c-0.448,-0.184 0,-0.816 -0.995,-1.179c-0.996,-0.36 -1.451,1.27 -1.451,1.27c0,0 -2.715,-0.091 -3.802,-0.091c-1.09,0 -2.629,-0.544 -2.901,-0.999c-0.272,-0.452 -1.631,-1.356 -2.806,-1.356c-1.179,0 -1.634,0.996 -1.634,2.171c0,1.179 -1.991,1.271 -1.903,0.724c0.092,-0.54 -0.272,-2.446 -0.272,-2.446l-1.083,0.635c0,0 -2.99,-0.18 -3.989,-0.268c-0.995,-0.096 -0.635,-1.363 -0.635,-1.363l1.994,-0.18l0.272,-0.452c0,0 -0.544,-0.547 -1.087,-0.723c-0.544,-0.184 -2.898,-0.636 -2.898,-0.636l-0.724,-0.998c0,0 -1.09,0 -1.542,0c-0.452,0 -1.176,0.907 -1.539,0.907c-0.364,0 -0.364,-0.996 -0.364,-0.996l0.18,-0.815l-0.907,0.452c-0.903,0.452 -1.267,0.088 -1.267,0.088l0.364,-0.904l0.091,-0.995c0,0 -0.543,-0.635 -0.543,-0.18c0,0.452 -0.907,1.447 -1.723,1.359c-0.37,-0.044 -0.682,0.102 -1.026,0.248c-0.414,0.177 -0.866,0.35 -1.508,0.2c-1.179,-0.268 -3.445,0.547 -4.712,1.634c-1.267,1.084 -2.086,1.448 -1.811,0.181c0.272,-1.268 -3.537,-1.088 -4.168,-1.359c-0.636,-0.272 -2.266,-0.456 -3.805,-0.632c-1.543,-0.184 -1.903,-1.451 -1.903,-1.451l-0.628,-2.239c-7.92,4.318 -15.231,9.604 -21.784,15.692c0.88,1.607 1.746,3.106 2.028,3.306c0.635,0.455 1.267,0 1.267,0c0,0 -2.534,1.722 -6.614,5.32c-4.074,3.598 -2.715,4.012 -2.715,5.371c0,1.356 0.812,0.812 0.812,0.812c0,0 -3.169,3.262 -4.073,4.169c-0.907,0.907 -2.538,2.174 -2.538,2.174l-1.631,1.994l0.724,0.272l9.852,-8.266c0,0 0.612,-0.135 0.68,-0.475c0.068,-0.34 0.611,-1.498 0.815,-1.566c0.204,-0.065 1.087,-1.492 1.087,-1.492c0,0 0.612,-0.272 1.359,-0.951c0.747,-0.679 1.495,-1.699 2.106,-1.767c0.612,-0.071 0,0.88 -1.087,1.767c-1.087,0.88 -2.378,2.782 -2.378,2.782c0,0 3.601,-1.902 4.824,-2.717c1.223,-0.812 0.816,-2.035 1.291,-2.103c0.476,-0.072 1.563,0.947 1.906,1.97c0.204,0.622 0.439,0.408 1.006,0.194c0.363,-0.136 0.859,-0.275 1.573,-0.194c1.834,0.204 0.611,1.627 1.291,2.579c0.679,0.951 0.679,1.223 2.446,0.818c1.767,-0.407 -0.68,3.802 -0.68,3.802l-0.135,1.362c0,0 0.679,0.952 0.679,1.087c0,0.136 -0.815,2.582 -0.815,2.582l1.359,0c0,0 -0.544,0.68 -1.223,1.088c-0.68,0.404 0.135,1.494 0.815,2.038c0.679,0.54 0,0 -0.951,2.174c-0.952,2.175 0,1.495 1.087,2.986c1.09,1.495 1.766,2.175 2.582,3.126c0.815,0.951 0,3.129 -0.816,3.265c-0.815,0.132 -2.582,-1.223 -2.582,-1.223c0.092,14.038 -0.523,11.962 -1.134,9.886c-0.279,-0.938 -0.557,-1.875 -0.768,-1.325c-0.68,1.767 -1.631,2.718 -1.631,3.802c0,1.09 0,2.721 -1.087,4.216c-1.087,1.495 -0.136,4.892 0,5.3c0.136,0.404 0.999,2.174 0.999,2.174c0,0 0,3.757 0,5.571c0,1.811 3.261,2.718 4.348,4.257c1.084,1.539 0.816,4.532 0.904,5.028c0.092,0.5 0.768,1.723 1.407,2.311c0.632,0.587 0.676,1.586 1.175,2.493c0.5,0.904 -0.768,0.588 -0.907,1.763c-0.136,1.179 1.135,1.223 1.814,1.495c0.676,0.272 1.359,0.68 0.996,1.947c-0.364,1.271 -0.18,0.815 0.499,1.542c0.68,0.724 0.36,0.272 0.724,1.631c0.363,1.359 1.267,0.768 1.267,0.768c0,0 0,0.591 0,0.819c0,0.227 0.815,0.451 0.815,0.451l0.547,-0.815c0,0 -0.411,-0.18 -0.411,-0.316c0,-0.139 -0.088,-0.815 -0.088,-0.815l-1.223,-0.5c0,0 -0.18,-0.679 -0.18,-0.951c0,-0.272 0,-0.999 0,-1.175c0,-0.184 -0.456,-0.32 -0.456,-0.32c0,0 -0.044,-1.223 -0.044,-1.95c0,-0.72 -1.179,-1.4 -1.223,-1.719c-0.044,-0.316 -0.136,-1.359 -0.591,-2.038c-0.448,-0.68 -1.539,-2.13 -1.495,-3.669c0.048,-1.543 -0.363,-2.538 0.228,-2.538c0.588,0 1.586,1.498 1.858,1.77c0.272,0.272 0.044,2.079 1.179,3.757c1.131,1.675 4.063,5.117 3.792,5.388c-0.272,0.276 -1.02,0.174 -0.612,1.193c0.408,1.019 1.393,1.254 2.14,1.457c0.748,0.208 1.971,4.352 2.786,5.711c0.819,1.356 -0.204,1.356 -0.407,2.242c-0.204,0.884 0.067,1.359 1.426,1.968c1.359,0.614 1.087,2.109 2.65,2.585c1.563,0.476 4.621,2.466 5.436,2.65c0.815,0.18 0.727,0.904 1.811,1.005c1.087,0.099 1.27,0.445 1.814,0.806c0.544,0.363 2.446,-0.361 2.81,-0.632c0.36,-0.275 0.723,-0.184 1.719,0c0.995,0.18 3.896,3.258 4.8,4.165c0.516,0.516 0.975,0.326 1.41,0.132c0.326,-0.142 0.638,-0.288 0.948,-0.132c0.727,0.36 2.082,1.179 2.626,1.087c0.543,-0.092 0.543,-0.544 0.907,-0.544c0.363,0 0.088,0.724 1.447,2.446c1.362,1.719 1.091,2.086 1.091,2.358c0,0.269 0.632,1.631 1.539,1.447c0.907,-0.18 1.814,0.765 1.814,0.765l0,1.498c0,0 3.078,0.184 3.706,0.367c0.632,0.18 0.731,1.539 1.003,1.719c0.271,0.18 1.359,-1.087 1.178,-1.811c-0.183,-0.727 1.176,-1.087 1.719,-1.63c0.544,-0.547 1.271,0.631 1.723,1.175c0.452,0.547 1.45,1.903 1.45,2.993c0,1.084 -0.091,2.718 -0.091,4.437c0,1.722 -1.359,2.538 -2.354,3.713c-0.999,1.182 -1.903,1.723 -2.358,2.266c-0.452,0.544 -0.816,2.266 -0.636,3.262c0.184,0.995 1.451,0.091 1.451,1.267c0,1.179 -1.175,0.547 -2.538,1.631c-1.355,1.09 0.184,1.178 0.636,2.082c0.451,0.907 -0.636,0.184 -0.636,1.271c0,1.087 1.634,0.907 3.173,1.359c1.539,0.452 3.17,4.44 4.077,6.523c0.907,2.085 1.811,3.896 2.718,4.256c0.907,0.367 0.995,1.179 2.898,1.634c1.902,0.452 3.397,1.947 4.467,1.947c1.067,0 1.037,1.835 0.697,2.582c-0.34,0.748 -0.068,0.951 0.204,3.669c0.272,2.718 -0.612,8.833 -0.901,9.513c-0.292,0.679 -0.207,0.543 0.289,1.039c0.5,0.5 -0.815,2.674 -0.859,3.353c-0.045,0.68 -1.315,1.088 -1.577,1.723c-0.261,0.632 0.625,0.632 0.806,1.223c0.183,0.588 -0.361,2.038 0.183,2.582c0.543,0.54 1.04,0.36 1.179,1.223c0.142,0.859 -0.503,1.675 -1.407,1.675c-0.907,0 -0.907,0.951 -0.499,0.635c0.408,-0.316 0.951,0 0.951,0l0.727,1.281c2.219,-0.228 4.417,-0.53 6.594,-0.887c0.466,-0.54 0.87,-0.975 1.196,-1.026c1.087,-0.183 0.544,-1.27 -0.088,-3.536c-0.401,-1.427 0.312,-1.2 1.237,-0.972c0.54,0.132 1.155,0.265 1.657,0.065c1.363,-0.544 0.907,-2.351 2.81,-2.627c1.903,-0.268 3.985,-1.994 4.804,-3.261c0.815,-1.267 -0.364,-1.903 2.626,-1.539c2.99,0.364 5.707,-3.442 8.062,-6.251c2.354,-2.806 0.272,-3.713 4.44,-6.343c4.169,-2.626 10.916,-9.76 11.323,-12.003c0.411,-2.242 -0.747,-2.31 1.631,-3.873c2.378,-1.562 5.371,-5.911 5.64,-7.134c0.272,-1.223 -0.408,-3.058 -1.087,-3.058Z" style="fill:#e2e2e2;fill-rule:nonzero;"/><path d="M146.448,33.55c-3.444,0 -4.165,3.442 -1.087,3.985c3.082,0.547 9.421,0.547 10.508,5.076c1.087,4.529 -3.261,5.799 0,7.97c3.262,2.178 -0.723,4.532 -0.723,7.61c0,3.081 1.447,5.619 3.621,7.25c2.178,1.631 4.349,3.805 4.532,5.072c0.18,1.267 2.355,0.907 2.355,0.907c0,0 -0.181,-0.723 0,-1.811c0.18,-1.087 1.994,-2.357 1.994,-5.439c0,-3.078 1.617,-2.898 2.891,-2.714c0.639,0.088 1.593,0.044 2.477,0c0.883,-0.048 1.698,-0.092 2.058,0c0.727,0.18 5.076,0.18 5.436,-1.994c0.363,-2.175 -2.898,-5.436 -2.898,-5.436c0,0 1.831,-3.034 1.811,-4.417c0,-0.278 -0.19,-0.934 -0.506,-1.814c-8.738,-7.773 -18.75,-14.15 -29.69,-18.763c-0.003,1.709 -0.38,4.518 -2.779,4.518Z" style="fill:#e2e2e2;fill-rule:nonzero;"/><path d="M210.773,122.061c-6.254,-5.164 -10.331,-5.164 -10.875,-3.802c-0.543,1.359 4.349,6.251 0,12.227c-4.348,5.983 -7.606,8.425 -5.979,13.318c1.631,4.892 -6.832,9.24 -0.424,13.589c6.403,4.348 5.045,4.348 9.665,4.08c4.542,-0.268 3.948,6.914 3.615,7.902c5.286,-12.702 8.208,-26.635 8.208,-41.257c0,-0.445 -0.011,-0.89 -0.017,-1.335c-0.765,-1.274 -1.933,-2.854 -4.193,-4.722Z" style="fill:#e2e2e2;fill-rule:nonzero;"/><path d="M117.439,235.147c0.322,-0.112 0.649,-0.227 0.968,-0.343l0.136,0.238c-0.367,0.038 -0.737,0.071 -1.104,0.105Zm7.701,-0.988c0.469,-0.537 0.87,-0.972 1.196,-1.023c0.034,-0.007 0.065,-0.013 0.095,-0.02l0,0.822c-0.428,0.078 -0.859,0.15 -1.291,0.221Z" style="fill:#1fb0ac;fill-rule:nonzero;"/><path d="M118.543,235.042l-0.136,-0.238c2.776,-0.995 5.449,-2.082 8.024,-3.248l0,1.56c-0.03,0.007 -0.061,0.013 -0.095,0.02c-0.326,0.051 -0.727,0.486 -1.196,1.023c-2.177,0.36 -4.379,0.656 -6.597,0.883Z" style="fill:#cfcfcf;fill-rule:nonzero;"/><path d="M214.215,141.052c0,-0.004 0,-0.004 0,-0.007l0,0.007Zm0.017,-0.163c0,-0.004 0,0.003 0,0Zm0.02,-0.16c0,-0.003 0,0.003 0,0Zm0.204,-1.902c0,-0.004 0,-0.011 0.003,-0.014c-0.003,0.003 -0.003,0.01 -0.003,0.014Zm0.014,-0.15c0.003,-0.01 0.003,-0.02 0.003,-0.031c0,0.011 0,0.021 -0.003,0.031Zm0.017,-0.153c0,-0.017 0.003,-0.027 0.003,-0.047c0,0.017 -0.003,0.03 -0.003,0.047Zm0.013,-0.159c0.004,-0.021 0.004,-0.034 0.007,-0.051c-0.003,0.017 -0.003,0.034 -0.007,0.051Zm0.017,-0.16c0,-0.021 0.004,-0.038 0.004,-0.058c0,0.02 -0.004,0.037 -0.004,0.058Zm0.014,-0.167c0.003,-0.017 0.003,-0.034 0.007,-0.051c-0.004,0.017 -0.004,0.034 -0.007,0.051Zm0.017,-0.166c0,-0.014 0,-0.031 0.003,-0.044c-0.003,0.017 -0.003,0.027 -0.003,0.044Zm0.013,-0.167c0,-0.013 0.004,-0.023 0.004,-0.037c0,0.014 -0.004,0.024 -0.004,0.037Zm0.014,-0.159c0.003,-0.017 0.003,-0.027 0.003,-0.041c0,0.014 0,0.027 -0.003,0.041Zm0.014,-0.163c0.003,-0.017 0.003,-0.028 0.003,-0.041c0,0.013 0,0.027 -0.003,0.041Zm0.013,-0.163c0.004,-0.014 0.004,-0.028 0.004,-0.041c0,0.017 0,0.024 -0.004,0.041Zm0.078,-0.948c0,-0.01 0,-0.017 0,-0.027c0,0.01 0,0.017 0,0.027Zm0.01,-0.15c0,-0.013 0,-0.03 0.004,-0.044c-0.004,0.017 -0.004,0.027 -0.004,0.044Zm0.011,-0.153c0.003,-0.02 0.003,-0.04 0.003,-0.061c0,0.021 0,0.041 -0.003,0.061Zm0.013,-0.163c0,-0.017 0,-0.044 0.004,-0.061c-0.004,0.021 -0.004,0.041 -0.004,0.061Zm0.01,-0.166c0,-0.021 0.004,-0.038 0.004,-0.061c0,0.02 -0.004,0.04 -0.004,0.061Zm0.011,-0.163c0.003,-0.021 0.003,-0.044 0.003,-0.065c0,0.021 0,0.044 -0.003,0.065Zm0.01,-0.163c0.003,-0.021 0.003,-0.048 0.007,-0.072c-0.004,0.024 -0.004,0.048 -0.007,0.072Zm0.013,-0.163c0,-0.024 0.004,-0.048 0.004,-0.072c-0.004,0.024 -0.004,0.048 -0.004,0.072Zm0.011,-0.17c0,-0.021 0.003,-0.044 0.003,-0.065c0,0.021 -0.003,0.044 -0.003,0.065Zm0.01,-0.163c0,-0.027 0.003,-0.048 0.003,-0.072c0,0.024 -0.003,0.048 -0.003,0.072Zm0.01,-0.163c0,-0.028 0.003,-0.051 0.003,-0.082c0,0.027 -0.003,0.054 -0.003,0.082Zm0.01,-0.17c0,-0.021 0,-0.048 0.004,-0.068c-0.004,0.024 -0.004,0.044 -0.004,0.068Zm0.007,-0.167c0.003,-0.02 0.003,-0.047 0.007,-0.071c-0.004,0.024 -0.004,0.051 -0.007,0.071Zm0.01,-0.163c0.004,-0.027 0.004,-0.047 0.004,-0.071c0,0.024 0,0.047 -0.004,0.071Zm0.01,-0.166l0,-0.004l0,0.004Zm0.017,-0.316c0,-0.004 0,-0.007 0,-0.01c0,0.003 0,0.006 0,0.01Zm0.004,-0.116c0.003,-0.02 0.003,-0.044 0.003,-0.064c0,0.024 0,0.041 -0.003,0.064Zm0.01,-0.146c0,-0.03 0,-0.058 0.003,-0.088c-0.003,0.03 -0.003,0.058 -0.003,0.088Zm0.007,-0.173c0,-0.031 0.003,-0.051 0.003,-0.078c0,0.027 -0.003,0.051 -0.003,0.078Zm0.007,-0.167c0.003,-0.023 0.003,-0.054 0.003,-0.081c0,0.027 0,0.054 -0.003,0.081Zm0.006,-0.173c0.004,-0.024 0.004,-0.044 0.004,-0.071c0,0.024 0,0.047 -0.004,0.071Zm0.011,-0.163c0,-0.024 0,-0.054 0,-0.078c0,0.027 0,0.051 0,0.078Zm0.006,-0.163c0,-0.031 0,-0.054 0.004,-0.085c-0.004,0.027 -0.004,0.058 -0.004,0.085Zm0.007,-0.166c0,-0.028 0,-0.058 0,-0.085c0,0.03 0,0.057 0,0.085Zm0.003,-0.17c0.004,-0.027 0.004,-0.061 0.004,-0.085c0,0.027 0,0.058 -0.004,0.085Zm0.007,-0.163c0,-0.031 0.004,-0.058 0.004,-0.089c0,0.028 -0.004,0.061 -0.004,0.089Zm0.007,-0.174c0,-0.027 0.004,-0.057 0.004,-0.081c0,0.027 -0.004,0.054 -0.004,0.081Zm0.007,-0.163c0,-0.03 0,-0.061 0,-0.091c0,0.03 0,0.061 0,0.091Zm0.003,-0.17c0.004,-0.034 0.004,-0.071 0.004,-0.101c0,0.034 0,0.067 -0.004,0.101Zm0.007,-0.163c0,-0.037 0,-0.071 0.003,-0.105c-0.003,0.034 -0.003,0.071 -0.003,0.105Zm0.003,-0.173c0.004,-0.054 0.004,-0.109 0.007,-0.163c-0.003,0.054 -0.003,0.109 -0.007,0.163Zm0.007,-0.163c0,-0.048 0,-0.092 0.004,-0.139c-0.004,0.044 -0.004,0.095 -0.004,0.139Zm0.004,-0.248c0.003,-0.027 0.003,-0.061 0.003,-0.092c0,0.031 0,0.061 -0.003,0.092Zm0.007,-0.163c0,-0.034 0,-0.061 0,-0.092c0,0.031 0,0.061 0,0.092Zm0.003,-0.173c0,-0.031 0,-0.061 0,-0.092c0,0.031 0,0.061 0,0.092Zm0.003,-0.17c0,-0.031 0,-0.058 0,-0.088c0,0.027 0,0.061 0,0.088Zm0.021,-2.195c0,-0.054 0,-0.112 0,-0.166c0,0.054 0,0.112 0,0.166Zm0,-0.214c0,-0.037 0,-0.078 0,-0.115c0,0.037 0,0.074 0,0.115Zm0,-0.18c0,-0.037 0,-0.068 0,-0.102c0,0.031 0,0.068 0,0.102Zm0,-0.166c0,-0.034 0,-0.068 0,-0.102c0,0.034 0,0.068 0,0.102Zm-0.004,-0.17c0,-0.034 0,-0.068 0,-0.099c0,0.034 0,0.061 0,0.099Zm0,-0.163c0,-0.038 0,-0.068 0,-0.106c0,0.034 0,0.068 0,0.106Zm0,-0.167c0,-0.037 -0.003,-0.078 -0.003,-0.115c0,0.037 0.003,0.078 0.003,0.115Zm-0.003,-0.166c0,-0.041 0,-0.085 0,-0.129c0,0.047 0,0.085 0,0.129Zm0,-0.167c-0.004,-0.057 -0.004,-0.105 -0.004,-0.163c0,0.055 0,0.109 0.004,0.163Zm-0.004,-0.207c0,-0.044 -0.003,-0.078 -0.003,-0.122c0,0.044 0.003,0.081 0.003,0.122Zm-0.003,-0.18c0,-0.037 0,-0.071 -0.003,-0.109c0.003,0.034 0.003,0.075 0.003,0.109Zm-0.003,-0.17c0,-0.034 0,-0.068 0,-0.098c0,0.034 0,0.061 0,0.098Zm-0.004,-0.173c0,-0.027 0,-0.065 0,-0.092c0,0.031 0,0.061 0,0.092Zm-0.003,-0.163c0,-0.034 0,-0.065 0,-0.095c0,0.03 0,0.061 0,0.095Zm-0.003,-0.163c0,-0.034 0,-0.068 -0.004,-0.099c0.004,0.031 0.004,0.065 0.004,0.099Zm-0.004,-0.17c0,-0.027 0,-0.058 -0.003,-0.088c0.003,0.03 0.003,0.061 0.003,0.088Zm-0.003,-0.163c-0.004,-0.055 -0.004,-0.106 -0.004,-0.16c0,0.051 0,0.105 0.004,0.16Zm-0.007,-0.211c0,-0.041 0,-0.071 -0.004,-0.112c0.004,0.037 0.004,0.075 0.004,0.112Zm-0.004,-0.183c-0.003,-0.031 -0.003,-0.061 -0.003,-0.095c0,0.034 0,0.064 0.003,0.095Zm-0.006,-0.167c0,-0.027 0,-0.061 -0.004,-0.088c0.004,0.027 0.004,0.061 0.004,0.088Zm-0.004,-0.166c-0.003,-0.034 -0.003,-0.058 -0.003,-0.092c0,0.031 0,0.058 0.003,0.092Zm-0.006,-0.16c0,-0.034 -0.004,-0.064 -0.004,-0.095c0,0.031 0.004,0.065 0.004,0.095Zm-0.007,-0.17c0,-0.027 0,-0.064 -0.004,-0.092c0.004,0.031 0.004,0.062 0.004,0.092Zm-0.004,-0.159c-0.003,-0.031 -0.003,-0.068 -0.003,-0.096c0,0.031 0,0.062 0.003,0.096Zm-0.007,-0.17c-0.003,-0.106 -0.01,-0.214 -0.013,-0.32c0.003,0.109 0.01,0.211 0.013,0.32Zm-0.016,-0.377c0,-0.038 0,-0.075 -0.004,-0.109c0.004,0.034 0.004,0.075 0.004,0.109Zm-0.007,-0.174c0,-0.037 -0.004,-0.064 -0.004,-0.098c0,0.03 0.004,0.068 0.004,0.098Zm-0.007,-0.163c0,-0.034 -0.003,-0.071 -0.003,-0.102c0,0.031 0.003,0.068 0.003,0.102Zm-0.007,-0.17c-0.003,-0.03 -0.003,-0.057 -0.003,-0.091c0,0.034 0,0.061 0.003,0.091Zm-0.007,-0.166c-0.003,-0.027 -0.003,-0.061 -0.006,-0.088c0.003,0.027 0.003,0.061 0.006,0.088Zm-0.01,-0.167c0,-0.027 -0.003,-0.051 -0.003,-0.078c0,0.024 0.003,0.055 0.003,0.078Zm-0.007,-0.163c-0.003,-0.027 -0.003,-0.051 -0.003,-0.078c0,0.024 0,0.055 0.003,0.078Zm-0.013,-0.234c0,-0.027 -0.004,-0.054 -0.004,-0.082c0,0.024 0.004,0.058 0.004,0.082Zm-0.007,-0.16c-0.003,-0.027 -0.003,-0.057 -0.007,-0.085c0.004,0.028 0.004,0.058 0.007,0.085Zm-0.01,-0.159c0,-0.031 -0.004,-0.058 -0.004,-0.092c0,0.034 0.004,0.061 0.004,0.092Zm-0.01,-0.167c0,-0.027 -0.004,-0.058 -0.004,-0.085c0,0.027 0.004,0.055 0.004,0.085Zm-0.007,-0.16c-0.004,-0.03 -0.007,-0.064 -0.007,-0.091c0,0.03 0.003,0.057 0.007,0.091Zm-0.01,-0.166c-0.004,-0.027 -0.004,-0.061 -0.007,-0.088c0.003,0.03 0.003,0.057 0.007,0.088Zm-0.011,-0.16c-0.003,-0.034 -0.003,-0.057 -0.006,-0.091c0.003,0.034 0.003,0.057 0.006,0.091Zm-0.01,-0.17c-0.003,-0.027 -0.007,-0.061 -0.007,-0.091c0,0.03 0.004,0.064 0.007,0.091Zm-0.01,-0.156c-0.003,-0.054 -0.007,-0.105 -0.01,-0.16c0.003,0.055 0.007,0.106 0.01,0.16Zm-0.014,-0.207c-0.003,-0.041 -0.006,-0.078 -0.01,-0.116c0.004,0.038 0.007,0.079 0.01,0.116Zm-0.013,-0.18c-0.004,-0.034 -0.004,-0.065 -0.007,-0.095c0.003,0.03 0.003,0.061 0.007,0.095Zm-0.014,-0.177c0,-0.027 -0.003,-0.051 -0.003,-0.078c0,0.027 0.003,0.051 0.003,0.078Zm-0.01,-0.163c-0.003,-0.027 -0.003,-0.051 -0.007,-0.078c0.004,0.027 0.004,0.051 0.007,0.078Zm-0.01,-0.16c-0.004,-0.023 -0.007,-0.054 -0.007,-0.081c0.003,0.03 0.003,0.051 0.007,0.081Zm-0.014,-0.166c-0.003,-0.024 -0.003,-0.044 -0.003,-0.065c0,0.024 0,0.041 0.003,0.065Zm-0.013,-0.163c0,-0.02 -0.004,-0.037 -0.004,-0.061c0,0.02 0.004,0.041 0.004,0.061Zm-0.011,-0.16c-0.003,-0.03 -0.006,-0.058 -0.006,-0.091c0,0.03 0.003,0.064 0.006,0.091Zm-0.016,-0.21c-0.004,-0.038 -0.007,-0.065 -0.011,-0.102c0.004,0.037 0.007,0.068 0.011,0.102Zm-0.018,-0.187c0,-0.024 -0.003,-0.051 -0.003,-0.075c0,0.024 0.003,0.051 0.003,0.075Zm-0.01,-0.16c-0.003,-0.024 -0.006,-0.054 -0.006,-0.078c0,0.027 0.003,0.051 0.006,0.078Zm-0.013,-0.153c-0.004,-0.034 -0.007,-0.058 -0.007,-0.092c0,0.028 0.003,0.062 0.007,0.092Zm-0.014,-0.163c-0.003,-0.03 -0.007,-0.061 -0.01,-0.088c0.003,0.027 0.007,0.058 0.01,0.088Zm-0.017,-0.163c0,-0.027 -0.003,-0.058 -0.007,-0.085c0.004,0.027 0.007,0.058 0.007,0.085Zm-0.013,-0.166c-0.004,-0.031 -0.004,-0.055 -0.007,-0.089c0.003,0.034 0.003,0.058 0.007,0.089Zm-0.014,-0.157c-0.003,-0.037 -0.007,-0.078 -0.01,-0.119c0.003,0.038 0.007,0.082 0.01,0.119Zm-0.014,-0.163c-0.006,-0.054 -0.01,-0.102 -0.017,-0.159c0.007,0.054 0.011,0.108 0.017,0.159Zm-0.02,-0.21c-0.003,-0.038 -0.007,-0.068 -0.01,-0.102c0.003,0.034 0.007,0.068 0.01,0.102Zm-0.017,-0.184c-0.003,-0.024 -0.007,-0.058 -0.01,-0.081c0.003,0.023 0.007,0.054 0.01,0.081Zm-0.017,-0.166c-0.003,-0.024 -0.003,-0.048 -0.007,-0.072c0.004,0.024 0.004,0.048 0.007,0.072Zm-0.017,-0.16c0,-0.024 -0.003,-0.054 -0.007,-0.075c0.004,0.027 0.007,0.048 0.007,0.075Zm-0.014,-0.163c-0.003,-0.02 -0.006,-0.044 -0.006,-0.065c0,0.021 0.003,0.045 0.006,0.065Zm-0.016,-0.16c-0.004,-0.02 -0.004,-0.044 -0.007,-0.064c0.003,0.02 0.003,0.04 0.007,0.064Zm-0.018,-0.159c0,-0.017 -0.003,-0.038 -0.006,-0.055c0.003,0.017 0.006,0.034 0.006,0.055Zm-0.044,-0.415c0,-0.02 -0.003,-0.034 -0.003,-0.051c0,0.017 0.003,0.031 0.003,0.051Zm-0.017,-0.153c0,-0.017 -0.003,-0.041 -0.003,-0.058c0,0.017 0.003,0.041 0.003,0.058Zm-0.013,-0.149c-0.004,-0.024 -0.007,-0.048 -0.01,-0.072c0.003,0.028 0.006,0.045 0.01,0.072Zm-0.021,-0.16c0,-0.024 -0.003,-0.047 -0.006,-0.071c0.003,0.024 0.006,0.047 0.006,0.071Zm-0.017,-0.156c-0.003,-0.024 -0.003,-0.048 -0.006,-0.072c0.003,0.021 0.003,0.048 0.006,0.072Zm-0.017,-0.167c-0.003,-0.02 -0.006,-0.037 -0.006,-0.061c0,0.024 0.003,0.041 0.006,0.061Zm-0.02,-0.156c0,-0.02 -0.003,-0.034 -0.007,-0.054c0.004,0.02 0.007,0.037 0.007,0.054Zm-0.068,-0.567c0,-0.021 -0.003,-0.034 -0.007,-0.058c0.004,0.02 0.007,0.041 0.007,0.058Zm-0.017,-0.153c-0.003,-0.021 -0.007,-0.041 -0.007,-0.061c0,0.02 0.004,0.04 0.007,0.061Zm-0.02,-0.156c-0.004,-0.024 -0.004,-0.041 -0.007,-0.065c0.003,0.024 0.007,0.044 0.007,0.065Zm-0.021,-0.164c0,-0.017 -0.003,-0.03 -0.007,-0.05c0.004,0.02 0.007,0.033 0.007,0.05Zm-0.02,-0.159c0,-0.017 -0.003,-0.027 -0.003,-0.048c0,0.017 0.003,0.034 0.003,0.048Zm-0.017,-0.153c-0.003,-0.017 -0.007,-0.031 -0.007,-0.051c0,0.017 0.004,0.034 0.007,0.051Zm-0.02,-0.16c-0.004,-0.01 -0.004,-0.017 -0.007,-0.027c0.003,0.007 0.003,0.02 0.007,0.027Zm-0.055,-0.404c-0.003,-0.02 -0.007,-0.034 -0.01,-0.058c0.003,0.021 0.007,0.041 0.01,0.058Zm-0.02,-0.146c-0.004,-0.021 -0.007,-0.048 -0.01,-0.068c0.003,0.024 0.006,0.047 0.01,0.068Zm-0.024,-0.163c-0.003,-0.021 -0.003,-0.038 -0.007,-0.061c0.004,0.02 0.007,0.044 0.007,0.061Zm-0.02,-0.16c-0.004,-0.017 -0.007,-0.034 -0.007,-0.051c0.003,0.021 0.003,0.031 0.007,0.051Zm-0.024,-0.16c0,-0.013 -0.003,-0.03 -0.007,-0.044c0.004,0.014 0.007,0.027 0.007,0.044Zm-0.021,-0.156c-0.003,-0.013 -0.003,-0.027 -0.006,-0.041c0.003,0.014 0.003,0.031 0.006,0.041Zm-0.023,-0.156c0,-0.004 0,-0.007 0,-0.01c0,0.003 0,0.006 0,0.01Zm-0.085,-0.595l-0.004,-0.006l0.004,0.006Zm-0.024,-0.146c0,-0.007 0,-0.007 0,-0.013c0,0.006 0,0.01 0,0.013Zm-0.02,-0.146c-0.004,-0.003 -0.004,-0.017 -0.004,-0.02c0,0.007 0,0.013 0.004,0.02Zm-0.024,-0.153c-0.004,-0.006 -0.004,-0.01 -0.004,-0.017c0,0.007 0.004,0.011 0.004,0.017Zm-0.024,-0.153c0,-0.003 0,-0.003 -0.003,-0.006c0.003,0.003 0.003,0.003 0.003,0.006Zm-0.166,-1.039l0,-0.007c0,0.003 0,0.007 0,0.007Zm-0.024,-0.15l-0.004,-0.003l0.004,0.003Z" style="fill:#3ec2d6;fill-rule:nonzero;"/><path d="M176.267,177.733c13.327,-36.026 7.739,-80.007 -8.687,-112.574c0.044,-0.306 0.068,-0.635 0.068,-0.989c0,-2.351 0.944,-2.799 1.96,-2.799c0.313,0 0.632,0.041 0.931,0.085c0.268,0.037 0.594,0.051 0.948,0.051c0.482,0 1.015,-0.027 1.529,-0.051c0.509,-0.027 0.995,-0.054 1.386,-0.054c0.285,0 0.519,0.013 0.672,0.054c0.163,0.041 0.51,0.071 0.951,0.071c1.526,0 4.206,-0.377 4.485,-2.065c0.363,-2.175 -2.898,-5.436 -2.898,-5.436c0,0 1.831,-3.034 1.811,-4.417c0,-0.278 -0.19,-0.934 -0.506,-1.814c-6.065,-5.391 -12.737,-10.114 -19.909,-14.037c28.392,15.532 49.007,43.502 54.51,76.582l0.004,0.003c0.007,0.048 0.013,0.092 0.024,0.143l0,0.007c0.054,0.343 0.112,0.69 0.163,1.033c0.003,0.003 0.003,0.003 0.003,0.006c0.007,0.045 0.014,0.089 0.02,0.136c0,0.007 0,0.011 0.004,0.017c0.007,0.044 0.013,0.092 0.02,0.133c0,0.003 0,0.017 0.004,0.02c0.006,0.041 0.013,0.089 0.02,0.133c0,0.006 0,0.006 0,0.013c0.007,0.048 0.014,0.095 0.02,0.14l0.004,0.006c0.027,0.194 0.054,0.388 0.085,0.585c0,0.003 0,0.006 0,0.01c0.007,0.037 0.01,0.075 0.017,0.115c0.003,0.014 0.003,0.028 0.006,0.041c0.004,0.038 0.011,0.075 0.014,0.112c0.004,0.014 0.007,0.031 0.007,0.044c0.007,0.034 0.01,0.075 0.017,0.109c0,0.017 0.003,0.034 0.007,0.051c0.003,0.034 0.006,0.065 0.013,0.099c0.004,0.023 0.004,0.04 0.007,0.061c0.007,0.03 0.01,0.064 0.014,0.095c0.003,0.02 0.006,0.047 0.01,0.068c0.003,0.03 0.007,0.058 0.01,0.088c0.003,0.024 0.007,0.038 0.01,0.058c0.017,0.126 0.031,0.251 0.048,0.377c0.003,0.01 0.003,0.017 0.007,0.027c0.003,0.041 0.006,0.072 0.013,0.109c0,0.02 0.004,0.034 0.007,0.051c0.003,0.037 0.007,0.068 0.014,0.105c0,0.021 0.003,0.031 0.003,0.048c0.007,0.034 0.01,0.075 0.013,0.109c0.004,0.02 0.007,0.033 0.007,0.05c0.004,0.034 0.011,0.068 0.014,0.099c0.003,0.024 0.003,0.041 0.007,0.065c0.003,0.034 0.01,0.064 0.013,0.095c0,0.02 0.004,0.04 0.007,0.061c0.004,0.034 0.007,0.061 0.01,0.095c0.004,0.024 0.007,0.037 0.007,0.058c0.024,0.17 0.044,0.343 0.061,0.513c0.004,0.02 0.007,0.034 0.007,0.054c0.003,0.031 0.01,0.065 0.014,0.095c0,0.024 0.003,0.041 0.006,0.061c0.004,0.034 0.007,0.065 0.011,0.095c0.003,0.024 0.003,0.048 0.006,0.072c0.004,0.027 0.007,0.058 0.011,0.085c0.003,0.024 0.006,0.047 0.006,0.071c0.004,0.027 0.007,0.061 0.011,0.088c0.003,0.024 0.006,0.048 0.01,0.072c0.003,0.03 0.003,0.058 0.01,0.091c0,0.017 0.003,0.041 0.003,0.058c0.004,0.034 0.011,0.068 0.014,0.102c0,0.017 0.003,0.031 0.003,0.051c0.014,0.119 0.028,0.241 0.038,0.36c0.003,0.017 0.006,0.038 0.006,0.055c0.004,0.03 0.007,0.064 0.011,0.095c0.003,0.02 0.003,0.044 0.007,0.064c0.003,0.031 0.006,0.061 0.01,0.095c0,0.021 0.003,0.045 0.006,0.065c0.004,0.031 0.004,0.061 0.007,0.088c0.004,0.021 0.007,0.051 0.007,0.075c0.003,0.027 0.007,0.061 0.01,0.088c0.004,0.024 0.004,0.048 0.007,0.072c0.003,0.03 0.007,0.054 0.007,0.085c0.003,0.023 0.007,0.057 0.01,0.081c0.003,0.027 0.003,0.051 0.007,0.082c0.003,0.034 0.007,0.064 0.01,0.102c0,0.017 0.003,0.037 0.003,0.051c0.007,0.057 0.011,0.105 0.017,0.159c0,0.017 0,0.031 0.004,0.044c0.003,0.041 0.007,0.082 0.01,0.119c0.003,0.024 0.003,0.048 0.007,0.068c0.003,0.034 0.003,0.058 0.007,0.089c0.003,0.027 0.006,0.054 0.006,0.081c0.004,0.027 0.007,0.058 0.007,0.085c0.004,0.024 0.007,0.048 0.007,0.075c0.003,0.027 0.007,0.058 0.01,0.088c0,0.024 0.004,0.048 0.007,0.071c0,0.034 0.003,0.058 0.007,0.092c0,0.024 0.003,0.048 0.007,0.075c0,0.024 0.003,0.054 0.006,0.078c0,0.027 0.004,0.058 0.007,0.085c0,0.024 0.003,0.051 0.003,0.075c0.004,0.027 0.007,0.061 0.007,0.085c0.004,0.037 0.007,0.064 0.011,0.102c0.003,0.04 0.006,0.078 0.01,0.119c0,0.033 0.003,0.061 0.006,0.091c0.004,0.038 0.004,0.065 0.007,0.099c0,0.024 0.004,0.041 0.004,0.061c0.003,0.03 0.007,0.068 0.01,0.098c0,0.021 0,0.041 0.003,0.065c0.004,0.027 0.004,0.058 0.007,0.085c0,0.027 0.003,0.058 0.007,0.081c0,0.024 0.003,0.058 0.003,0.082c0.004,0.027 0.004,0.051 0.007,0.078c0.003,0.027 0.003,0.054 0.007,0.085c0,0.027 0.003,0.051 0.003,0.078c0.004,0.027 0.007,0.055 0.007,0.082c0.003,0.03 0.003,0.061 0.007,0.095c0,0.02 0.003,0.041 0.003,0.064c0.004,0.038 0.007,0.075 0.01,0.116c0,0.017 0,0.03 0.004,0.047c0.003,0.055 0.007,0.106 0.01,0.16c0,0.021 0,0.044 0.003,0.065c0,0.03 0.004,0.064 0.007,0.091c0,0.028 0.004,0.055 0.004,0.079c0.003,0.034 0.003,0.057 0.006,0.091c0,0.021 0.004,0.048 0.004,0.072c0.003,0.027 0.003,0.061 0.007,0.088c0,0.024 0.003,0.051 0.003,0.075c0,0.027 0.003,0.061 0.007,0.091c0,0.024 0,0.048 0.003,0.075c0,0.027 0.004,0.058 0.004,0.085c0.003,0.021 0.003,0.054 0.006,0.075c0,0.034 0.004,0.061 0.004,0.092c0,0.027 0.003,0.047 0.003,0.074c0.004,0.028 0.004,0.058 0.007,0.085c0,0.027 0,0.051 0.003,0.078c0,0.028 0.004,0.055 0.004,0.082c0.003,0.054 0.007,0.102 0.01,0.156c0,0.027 0,0.051 0.003,0.078c0,0.031 0.004,0.055 0.004,0.085c0,0.027 0.003,0.051 0.003,0.078c0.004,0.028 0.004,0.051 0.004,0.079c0.003,0.027 0.003,0.061 0.006,0.088c0,0.027 0,0.051 0.004,0.075c0,0.034 0,0.061 0.003,0.091c0,0.024 0,0.045 0.004,0.068c0,0.031 0.003,0.068 0.003,0.102c0,0.021 0.003,0.041 0.003,0.065c0,0.034 0.004,0.061 0.004,0.098c0.003,0.024 0.003,0.041 0.003,0.065c0.004,0.034 0.004,0.071 0.004,0.109c0.003,0.02 0.003,0.037 0.003,0.057c0.003,0.106 0.01,0.214 0.013,0.32c0,0.023 0,0.051 0.004,0.074c0,0.028 0,0.065 0.003,0.096c0,0.02 0,0.044 0,0.067c0.004,0.028 0.004,0.065 0.004,0.092c0.003,0.024 0.003,0.051 0.003,0.075c0,0.031 0.004,0.061 0.004,0.095c0,0.024 0.003,0.044 0.003,0.068c0,0.034 0,0.058 0.003,0.092c0,0.024 0,0.051 0,0.078c0.004,0.027 0.004,0.061 0.004,0.088c0,0.027 0.003,0.048 0.003,0.072c0,0.034 0,0.064 0.003,0.095c0,0.023 0,0.047 0,0.071c0.004,0.041 0.004,0.071 0.004,0.112c0,0.017 0,0.034 0.003,0.051c0,0.054 0,0.105 0.004,0.16c0,0.024 0,0.051 0,0.075c0.003,0.03 0.003,0.061 0.003,0.088c0,0.027 0,0.044 0,0.071c0.004,0.031 0.004,0.065 0.004,0.099c0,0.02 0,0.044 0.003,0.068c0,0.03 0,0.061 0,0.095c0,0.02 0,0.047 0.003,0.071c0,0.027 0,0.065 0,0.092c0,0.024 0,0.051 0.004,0.075l0,0.159c0.003,0.038 0.003,0.072 0.003,0.109c0,0.02 0,0.041 0,0.058c0,0.044 0.003,0.078 0.003,0.122c0,0.014 0,0.031 0,0.044c0,0.058 0,0.106 0.004,0.163l0,0.218c0,0.037 0.003,0.078 0.003,0.115l0,0.33c0.004,0.02 0.004,0.047 0.004,0.068l0,0.662c0,-0.445 -0.011,-0.89 -0.017,-1.335c-0.765,-1.274 -1.933,-2.854 -4.193,-4.722c-4.134,-3.411 -7.314,-4.57 -9.155,-4.57c-0.945,0 -1.533,0.306 -1.72,0.768c-0.543,1.359 4.349,6.251 0,12.227c-4.348,5.983 -7.606,8.425 -5.979,13.318c1.631,4.892 -6.832,9.24 -0.424,13.589c5.126,3.482 5.279,4.175 7.508,4.175c0.553,0 1.236,-0.041 2.157,-0.095c0.085,-0.007 0.166,-0.007 0.245,-0.007c4.277,0 3.699,6.938 3.37,7.909c5.038,-12.108 7.929,-25.334 8.191,-39.205c-0.004,0.021 -0.004,0.038 -0.004,0.055c0,0.03 0,0.057 0,0.088c0,0.027 -0.003,0.051 -0.003,0.078c0,0.031 0,0.061 0,0.092c0,0.027 -0.003,0.054 -0.003,0.081c0,0.031 0,0.058 0,0.092c-0.004,0.024 -0.004,0.048 -0.004,0.071c0,0.031 0,0.065 -0.003,0.092c0,0.037 0,0.071 0,0.109c-0.004,0.047 -0.004,0.091 -0.004,0.139c-0.003,0.054 -0.003,0.109 -0.007,0.163c0,0.024 0,0.044 0,0.068c-0.003,0.034 -0.003,0.068 -0.003,0.105c0,0.021 -0.003,0.041 -0.003,0.062c0,0.03 0,0.067 -0.004,0.101c0,0.028 0,0.051 -0.003,0.079c0,0.03 0,0.061 0,0.091c-0.003,0.028 -0.003,0.055 -0.003,0.082c0,0.024 -0.004,0.054 -0.004,0.081c0,0.031 -0.003,0.055 -0.003,0.085c0,0.031 -0.004,0.058 -0.004,0.089c0,0.027 0,0.051 -0.003,0.078c0,0.024 0,0.058 -0.004,0.085c0,0.03 0,0.057 -0.003,0.085c0,0.027 0,0.057 0,0.085c-0.003,0.027 -0.003,0.054 -0.003,0.081c-0.004,0.031 -0.004,0.054 -0.004,0.085c-0.003,0.031 -0.003,0.054 -0.006,0.085c0,0.024 0,0.054 0,0.078c-0.004,0.031 -0.004,0.061 -0.007,0.092c0,0.027 0,0.047 -0.004,0.071c0,0.031 0,0.061 -0.003,0.092c0,0.027 0,0.058 -0.003,0.081c0,0.028 -0.004,0.062 -0.004,0.089c0,0.027 -0.003,0.047 -0.003,0.078c0,0.027 -0.004,0.058 -0.004,0.085c-0.003,0.03 -0.003,0.058 -0.003,0.088c-0.003,0.027 -0.003,0.055 -0.007,0.082c0,0.02 0,0.044 -0.003,0.064c0,0.034 -0.004,0.072 -0.004,0.106c0,0.003 0,0.006 0,0.01c-0.006,0.105 -0.01,0.207 -0.017,0.312l0,0.004c-0.003,0.03 -0.003,0.064 -0.006,0.095c0,0.024 0,0.044 -0.004,0.071c0,0.034 -0.003,0.058 -0.003,0.092c-0.004,0.024 -0.004,0.051 -0.007,0.071c0,0.031 -0.003,0.068 -0.003,0.099c-0.004,0.02 -0.004,0.047 -0.004,0.068c-0.003,0.03 -0.003,0.058 -0.007,0.088c0,0.031 -0.003,0.054 -0.003,0.082c-0.003,0.03 -0.003,0.061 -0.007,0.091c0,0.024 -0.003,0.045 -0.003,0.072c-0.004,0.034 -0.004,0.064 -0.007,0.098c0,0.021 -0.003,0.044 -0.003,0.065c-0.004,0.034 -0.004,0.064 -0.007,0.098c0,0.024 -0.004,0.048 -0.004,0.072c-0.003,0.03 -0.006,0.061 -0.006,0.091c-0.004,0.024 -0.004,0.051 -0.007,0.072c0,0.034 -0.004,0.064 -0.007,0.098c0,0.021 0,0.044 -0.003,0.065c-0.004,0.037 -0.004,0.064 -0.007,0.102c0,0.023 -0.004,0.04 -0.004,0.061c-0.003,0.034 -0.006,0.071 -0.006,0.105c-0.004,0.017 -0.004,0.044 -0.004,0.061c-0.003,0.034 -0.007,0.068 -0.01,0.102c0,0.021 0,0.041 -0.003,0.061c-0.004,0.038 -0.004,0.072 -0.007,0.109c-0.004,0.014 -0.004,0.031 -0.004,0.044c-0.003,0.038 -0.006,0.085 -0.01,0.123c0,0.01 0,0.017 0,0.027c-0.024,0.302 -0.047,0.604 -0.074,0.907c0,0.013 0,0.027 -0.004,0.041c-0.003,0.04 -0.007,0.081 -0.01,0.122c0,0.013 0,0.024 -0.003,0.041c-0.004,0.037 -0.007,0.081 -0.011,0.122c0,0.014 0,0.024 -0.003,0.041c-0.003,0.037 -0.007,0.081 -0.01,0.122c0,0.014 -0.004,0.024 -0.004,0.037c-0.003,0.041 -0.006,0.082 -0.01,0.123c-0.003,0.013 -0.003,0.03 -0.003,0.044c-0.004,0.037 -0.007,0.078 -0.01,0.115c-0.004,0.017 -0.004,0.034 -0.007,0.051c-0.004,0.038 -0.007,0.072 -0.01,0.109c0,0.02 -0.004,0.037 -0.004,0.058c-0.003,0.037 -0.007,0.071 -0.01,0.109c-0.003,0.017 -0.003,0.03 -0.007,0.051c-0.003,0.033 -0.007,0.078 -0.01,0.112c0,0.02 -0.003,0.03 -0.003,0.047c-0.004,0.041 -0.007,0.082 -0.014,0.122c0,0.011 0,0.021 -0.003,0.031c-0.004,0.048 -0.007,0.088 -0.011,0.136c-0.003,0.003 -0.003,0.01 -0.003,0.014c-0.061,0.635 -0.129,1.27 -0.204,1.902c0,0.003 0,-0.003 0,0c-0.007,0.054 -0.013,0.105 -0.02,0.16c0,0.003 0,-0.004 0,0c-0.007,0.054 -0.01,0.102 -0.017,0.156c0,0.003 0,0.003 0,0.007c-1.57,13.086 -5.49,25.449 -11.33,36.654l-26.618,0.027Z" style="fill:#1fb0ac;fill-rule:nonzero;"/><path d="M214.966,130.146c0,-0.034 0,-0.061 0,-0.095c0,0.031 0,0.065 0,0.095Z" style="fill:#3ec2d6;fill-rule:nonzero;"/><path d="M214.966,130.167c0,-0.055 0,-0.106 0,-0.16l0,0.16Z" style="fill:#1fb0ac;fill-rule:nonzero;"/><path d="M214.969,129.983c0,-0.034 0,-0.064 0,-0.098c0,0.03 0,0.064 0,0.098Z" style="fill:#3ec2d6;fill-rule:nonzero;"/><path d="M214.966,129.994c0.003,-0.051 0.003,-0.099 0.003,-0.15l0,0.139c0,0.004 -0.003,0.007 -0.003,0.011Z" style="fill:#1fb0ac;fill-rule:nonzero;"/><path d="M214.969,129.81c0.003,-0.034 0.003,-0.061 0.003,-0.095c0,0.031 0,0.064 -0.003,0.095Z" style="fill:#3ec2d6;fill-rule:nonzero;"/><path d="M214.969,129.817c0.003,-0.048 0.003,-0.092 0.003,-0.136c0,0.014 0,0.02 0,0.034c0,0.034 0,0.061 -0.003,0.095c0,0.003 0,0.003 0,0.007Z" style="fill:#1fb0ac;fill-rule:nonzero;"/><path d="M214.972,129.64c0,-0.03 0,-0.061 0,-0.092c0,0.028 0,0.065 0,0.092Z" style="fill:#3ec2d6;fill-rule:nonzero;"/><path d="M214.972,129.644c0,-0.045 0,-0.085 0.004,-0.13c0,0.014 -0.004,0.021 -0.004,0.034c0,0.031 0,0.062 0,0.092l0,0.004Z" style="fill:#1fb0ac;fill-rule:nonzero;"/><path d="M214.976,129.47c0,-0.03 0,-0.061 0,-0.091c0,0.03 0,0.061 0,0.091Z" style="fill:#3ec2d6;fill-rule:nonzero;"/><path d="M214.976,129.47c0,-0.04 0,-0.081 0,-0.122l0,0.122Z" style="fill:#1fb0ac;fill-rule:nonzero;"/><path d="M214.976,129.3l0,-0.003c0,-0.031 0.003,-0.054 0.003,-0.085c0,0.027 -0.003,0.061 -0.003,0.088Z" style="fill:#3ec2d6;fill-rule:nonzero;"/><path d="M214.976,129.297c0,-0.037 0.003,-0.071 0.003,-0.109c0,0.007 0,0.017 0,0.024c0,0.031 -0.003,0.054 -0.003,0.085Z" style="fill:#1fb0ac;fill-rule:nonzero;"/><path d="M214.979,129.127l0,-0.088c0,0.03 0,0.058 0,0.088Z" style="fill:#3ec2d6;fill-rule:nonzero;"/><path d="M214.979,129.093c0,-0.024 0,-0.047 0,-0.071l0,0.071Z" style="fill:#1fb0ac;fill-rule:nonzero;"/><path d="M214.979,128.961l0,-0.089c0,0.031 0,0.058 0,0.089Z" style="fill:#3ec2d6;fill-rule:nonzero;"/><path d="M214.979,128.92c0,-0.024 0,-0.044 0,-0.068l0,0.068Z" style="fill:#1fb0ac;fill-rule:nonzero;"/><path d="M214.983,128.791l0,-0.099c0,0.034 0,0.065 0,0.099Z" style="fill:#3ec2d6;fill-rule:nonzero;"/><path d="M214.983,128.747c0,-0.024 0,-0.048 0,-0.072l0,0.072Z" style="fill:#1fb0ac;fill-rule:nonzero;"/><path d="M214.983,128.624l0,-0.105c0,0.034 0,0.071 0,0.105Z" style="fill:#3ec2d6;fill-rule:nonzero;"/><path d="M214.983,128.573c0,-0.023 0,-0.051 0,-0.074l0,0.074Z" style="fill:#1fb0ac;fill-rule:nonzero;"/><path d="M214.983,128.458l0,-0.119c0,0.041 0,0.078 0,0.119Z" style="fill:#3ec2d6;fill-rule:nonzero;"/><path d="M214.983,128.366c0,-0.01 0,-0.02 0,-0.03l0,0.03Z" style="fill:#1fb0ac;fill-rule:nonzero;"/><path d="M214.983,128.285c0,-0.055 0,-0.109 0,-0.167c0,0.055 0,0.112 0,0.167Z" style="fill:#3ec2d6;fill-rule:nonzero;"/><path d="M155.676,46.076c-2.219,-2.877 -4.539,-5.575 -6.958,-8.072c3.003,0.469 6.387,1.413 7.151,4.607c0.347,1.44 0.143,2.551 -0.193,3.465Zm-11.12,-12.077c-5.718,-5.123 -11.891,-9.132 -18.407,-11.755c8.035,1.406 15.764,3.706 23.078,6.791c-0.006,1.706 -0.38,4.515 -2.779,4.515c-0.771,0 -1.406,0.174 -1.892,0.449Z" style="fill:#1fb0ac;fill-rule:nonzero;"/><path d="M167.58,65.159c-3.503,-6.944 -7.495,-13.365 -11.904,-19.083c0.336,-0.914 0.54,-2.025 0.193,-3.465c-0.764,-3.194 -4.148,-4.138 -7.151,-4.607c-1.359,-1.4 -2.749,-2.738 -4.162,-4.005c0.486,-0.275 1.121,-0.449 1.892,-0.449c2.399,0 2.773,-2.809 2.779,-4.515c3.354,1.414 6.615,2.99 9.781,4.723c7.172,3.923 13.844,8.646 19.909,14.037c0.316,0.88 0.506,1.536 0.506,1.814c0.02,1.383 -1.811,4.417 -1.811,4.417c0,0 3.261,3.261 2.898,5.436c-0.279,1.688 -2.959,2.065 -4.485,2.065c-0.441,0 -0.788,-0.03 -0.951,-0.071c-0.153,-0.041 -0.387,-0.054 -0.672,-0.054c-0.391,0 -0.877,0.027 -1.386,0.054c-0.514,0.024 -1.047,0.051 -1.529,0.051c-0.354,0 -0.68,-0.014 -0.948,-0.051c-0.299,-0.044 -0.618,-0.085 -0.931,-0.085c-1.016,0 -1.96,0.448 -1.96,2.799c0,0.354 -0.024,0.683 -0.068,0.989Z" style="fill:#cfcfcf;fill-rule:nonzero;"/><path d="M206.775,169.375c0.329,-0.971 0.907,-7.909 -3.37,-7.909c-0.079,0 -0.16,0 -0.245,0.007c-0.921,0.054 -1.604,0.095 -2.157,0.095c-2.229,0 -2.382,-0.693 -7.508,-4.175c-6.408,-4.349 2.055,-8.697 0.424,-13.589c-1.627,-4.893 1.631,-7.335 5.979,-13.318c4.349,-5.976 -0.543,-10.868 0,-12.227c0.187,-0.462 0.775,-0.768 1.72,-0.768c1.841,0 5.021,1.159 9.155,4.57c2.26,1.868 3.428,3.448 4.193,4.722c0.006,0.445 0.017,0.89 0.017,1.335l0,0.673c0,0.02 -0.004,0.041 -0.004,0.061l0,0.336c0,0.038 -0.003,0.072 -0.003,0.109l0,0.217c-0.004,0.045 -0.004,0.085 -0.004,0.13c0,0.01 0,0.027 0,0.037c0,0.044 0,0.088 -0.003,0.136c0,0.01 0,0.017 0,0.027c0,0.051 0,0.099 -0.003,0.15l0,0.176c-0.262,13.871 -3.153,27.097 -8.191,39.205Z" style="fill:#cfcfcf;fill-rule:nonzero;"/><path d="M293.658,286.376c0,12.05 -1.587,11.36 -13.634,11.36l-140.414,0c-12.047,0 -13.179,-1.128 -13.179,-13.178l0,-94.065c0,-12.047 2.494,-12.723 14.541,-12.723l134.965,-0.139c12.044,0 17.602,-2.399 17.602,9.652l0.119,99.093Z" style="fill:#34495e;fill-rule:nonzero;"/><rect x="136.8" y="188.94" width="146.489" height="97.299" style="fill:#edeeee;fill-rule:nonzero;"/><path d="M165.511,272.287c0,5.021 -4.07,9.091 -9.088,9.091c-5.021,0 -9.088,-4.07 -9.088,-9.091l0,-67.705c0,-5.021 4.067,-9.092 9.088,-9.092c5.018,0 9.088,4.071 9.088,9.092l0,67.705Z" style="fill:#f4b146;fill-rule:nonzero;"/><path d="M274.799,210.942l-25.218,0l0,-10.454l25.218,0l0,10.454Zm-27.036,-11.816l0,13.178l29.082,0l0,-13.178l-29.082,0Z" style="fill:#1d2f47;fill-rule:nonzero;"/><rect x="247.763" y="222.149" width="29.081" height="13.178" style="fill:#1d2f47;fill-rule:nonzero;"/><rect x="247.763" y="246.083" width="29.081" height="13.178" style="fill:#1d2f47;fill-rule:nonzero;"/><rect x="247.763" y="264.789" width="29.081" height="13.178" style="fill:#1d2f47;fill-rule:nonzero;"/><path d="M236.359,249.026c0,3.604 -2.919,6.522 -6.523,6.522l-43.123,0c-3.604,0 -6.522,-2.918 -6.522,-6.522l0,-26.816c0,-3.601 2.918,-6.522 6.522,-6.522l43.123,0c3.604,0 6.523,2.921 6.523,6.522l0,26.816Z" style="fill:#f04953;fill-rule:nonzero;"/><path d="M220.578,235.983l-10.491,6.058l-10.494,6.06l0,-12.118l0,-12.121l10.494,6.06l10.491,6.061Z" style="fill:#edeeee;fill-rule:nonzero;"/><path d="M75.533,336.992l8.636,-39.079c0,0 0.455,-6.363 11.816,-17.724c11.36,-11.364 30.446,-36.127 30.446,-36.127l0,34.119l-8.636,15.866l24.084,-27.491c0,0 16.361,-8.229 13.735,9.971c0,0 -20.55,29.108 -21.002,31.381c-0.455,2.273 -0.914,14.089 -10.002,26.812c-9.087,12.726 -9.539,16.813 -9.539,16.813l-1.818,2.728l-37.72,-17.269Z" style="fill:#f9bba2;fill-rule:nonzero;"/><path d="M153.403,278.181l-12.431,-9.159c3.282,-1.773 5.752,-2.483 7.603,-2.483c7.495,0 4.828,11.642 4.828,11.642Z" style="fill:#fbd1bf;fill-rule:nonzero;"/><path d="M344.557,337.101l-8.637,-39.079c0,0 -0.455,-6.36 -11.815,-17.724c-11.361,-11.357 -30.447,-36.124 -30.447,-36.124l0,34.119l8.632,15.866l-24.083,-27.491c0,0 -16.684,-8.884 -13.749,9.947c0,0 20.567,29.132 21.019,31.405c0.455,2.269 0.911,14.085 9.998,26.812c9.088,12.723 9.543,16.813 9.543,16.813l1.818,2.728l37.721,-17.272Z" style="fill:#f9bba2;fill-rule:nonzero;"/><path d="M266.683,278.293c0,0 -2.66,-11.639 4.831,-11.639c1.848,0 4.318,0.71 7.603,2.48l-12.434,9.159Z" style="fill:#fbd1bf;fill-rule:nonzero;"/><rect x="221.689" y="129.239" width="150.743" height="37.68" style="fill:#f4b146;"/><rect x="237.354" y="100.379" width="119.416" height="28.592" style="fill:#f15959;"/><path d="M262.555,69.881l76.967,0c0,0 -13.399,4.685 -13.063,13.729c0.336,8.84 13.063,14.877 13.063,14.877l-76.967,0c-7.864,0 -14.299,-6.435 -14.299,-14.31c0,-7.865 6.435,-14.296 14.299,-14.296Z" style="fill:#e6e6e6;"/><path d="M262.555,68.067l76.967,0c0.18,0 0.373,0 0.567,0.014l0,3.628c-0.194,0 -0.387,-0.014 -0.567,-0.014l-76.967,0c-3.438,0 -6.553,1.417 -8.816,3.666c-2.266,2.266 -3.669,5.395 -3.669,8.816c0,3.435 1.403,6.564 3.669,8.826c2.263,2.253 5.378,3.67 8.816,3.67l76.967,0c0.18,0 0.373,-0.014 0.567,-0.014l0,3.628c-0.194,0.014 -0.387,0.014 -0.567,0.014l-76.967,0c-4.43,0 -8.469,-1.814 -11.391,-4.736c-2.908,-2.918 -4.725,-6.947 -4.725,-11.388c0,-4.427 1.817,-8.452 4.725,-11.374c2.922,-2.922 6.961,-4.736 11.391,-4.736Z" style="fill:#1d2f47;fill-rule:nonzero;"/><rect x="259.042" y="77.484" width="60.157" height="0.567" style="fill:#718cc7;"/><rect x="254.381" y="81.629" width="60.16" height="0.567" style="fill:#718cc7;"/><rect x="259.943" y="85.825" width="60.16" height="0.578" style="fill:#718cc7;"/><path d="M309.408,96.673l-30.202,0l-13.073,-3.347l4.362,-2.612l4.213,2.612l0,-6.924l15.563,0l19.137,10.271Z" style="fill:#b9b8b9;fill-rule:nonzero;"/><path d="M289.194,85.825l-14.486,0l0,-3.628l7.718,0l6.768,3.628Zm-7.821,-4.196l-6.665,0l0,-0.221l0,-3.356l6.665,3.577Z" style="fill:#b9b8b9;fill-rule:nonzero;"/><path d="M282.426,82.197l-7.718,0l0,-0.568l6.665,0l1.053,0.568Z" style="fill:#5a71a0;fill-rule:nonzero;"/><path d="M290.271,86.402l-15.563,0l0,-0.577l14.486,0l1.077,0.577Z" style="fill:#5a71a0;fill-rule:nonzero;"/><rect x="260.51" y="90.714" width="62.718" height="0.567" style="fill:#718cc7;"/><path d="M266.133,78.052l8.575,0l0,15.274l-4.213,-2.612l-4.362,2.612l0,-15.274Z" style="fill:#fecd03;"/><path d="M274.708,81.408c-2.015,-0.628 -3.958,-0.846 -5.681,-0.846c-1.06,0 -2.035,0.085 -2.894,0.201l0,-2.711l8.575,0l0,3.356Z" style="fill:#e3b722;fill-rule:nonzero;"/><rect x="237.354" y="114.675" width="119.416" height="14.296" style="fill:#dc4f50;fill-rule:nonzero;"/><rect x="221.689" y="149.538" width="150.743" height="17.381" style="fill:#db9f40;fill-rule:nonzero;"/></g></svg>